<?xml version="1.0" encoding="UTF-8" standalone="no"?><svg xmlns="http://www.w3.org/2000/svg" xmlns:xlink="http://www.w3.org/1999/xlink" contentScriptType="application/ecmascript" contentStyleType="text/css" height="316px" preserveAspectRatio="none" style="width:413px;height:316px;background:#FFFFFF;" version="1.1" viewBox="0 0 413 316" width="413px" zoomAndPan="magnify"><defs><filter height="300%" id="feizz1qlmulqg" width="300%" x="-1" y="-1"><feGaussianBlur result="blurOut" stdDeviation="2.0"/><feColorMatrix in="blurOut" result="blurOut2" type="matrix" values="0 0 0 0 0 0 0 0 0 0 0 0 0 0 0 0 0 0 .4 0"/><feOffset dx="4.0" dy="4.0" in="blurOut2" result="blurOut3"/><feBlend in="SourceGraphic" in2="blurOut3" mode="normal"/></filter></defs><g><rect fill="#FFFFFF" filter="url(#feizz1qlmulqg)" height="122.4063" style="stroke:#A80036;stroke-width:1.0;" width="10" x="55" y="99.6094"/><rect fill="#FFFFFF" filter="url(#feizz1qlmulqg)" height="30.3516" style="stroke:#A80036;stroke-width:1.0;" width="10" x="366" y="121.9609"/><rect fill="#FFFFFF" filter="url(#feizz1qlmulqg)" height="30.3516" style="stroke:#A80036;stroke-width:1.0;" width="10" x="366" y="182.6641"/><line style="stroke:#A80036;stroke-width:1.0;stroke-dasharray:5.0,5.0;" x1="60" x2="60" y1="89.6094" y2="231.0156"/><line style="stroke:#A80036;stroke-width:1.0;stroke-dasharray:5.0,5.0;" x1="371" x2="371" y1="89.6094" y2="231.0156"/><text fill="#000000" font-family="sans-serif" font-size="14" lengthAdjust="spacing" textLength="104" x="5" y="86.5332">Project Manager</text><ellipse cx="60" cy="15" fill="#FEFECE" filter="url(#feizz1qlmulqg)" rx="8" ry="8" style="stroke:#A80036;stroke-width:2.0;"/><path d="M60,23 L60,50 M47,31 L73,31 M60,50 L47,65 M60,50 L73,65 " fill="none" filter="url(#feizz1qlmulqg)" style="stroke:#A80036;stroke-width:2.0;"/><text fill="#000000" font-family="sans-serif" font-size="14" lengthAdjust="spacing" textLength="104" x="5" y="244.5488">Project Manager</text><ellipse cx="60" cy="257.625" fill="#FEFECE" filter="url(#feizz1qlmulqg)" rx="8" ry="8" style="stroke:#A80036;stroke-width:2.0;"/><path d="M60,265.625 L60,292.625 M47,273.625 L73,273.625 M60,292.625 L47,307.625 M60,292.625 L73,307.625 " fill="none" filter="url(#feizz1qlmulqg)" style="stroke:#A80036;stroke-width:2.0;"/><rect fill="#FEFECE" filter="url(#feizz1qlmulqg)" height="31.6094" style="stroke:#A80036;stroke-width:1.5;" width="60" x="339" y="53"/><text fill="#000000" font-family="sans-serif" font-size="14" lengthAdjust="spacing" textLength="46" x="346" y="74.5332">System</text><rect fill="#FEFECE" filter="url(#feizz1qlmulqg)" height="31.6094" style="stroke:#A80036;stroke-width:1.5;" width="60" x="339" y="230.0156"/><text fill="#000000" font-family="sans-serif" font-size="14" lengthAdjust="spacing" textLength="46" x="346" y="251.5488">System</text><rect fill="#FFFFFF" filter="url(#feizz1qlmulqg)" height="122.4063" style="stroke:#A80036;stroke-width:1.0;" width="10" x="55" y="99.6094"/><rect fill="#FFFFFF" filter="url(#feizz1qlmulqg)" height="30.3516" style="stroke:#A80036;stroke-width:1.0;" width="10" x="366" y="121.9609"/><rect fill="#FFFFFF" filter="url(#feizz1qlmulqg)" height="30.3516" style="stroke:#A80036;stroke-width:1.0;" width="10" x="366" y="182.6641"/><polygon fill="#A80036" points="354,117.9609,364,121.9609,354,125.9609,358,121.9609" style="stroke:#A80036;stroke-width:1.0;"/><line style="stroke:#A80036;stroke-width:1.0;stroke-dasharray:2.0,2.0;" x1="65" x2="360" y1="121.9609" y2="121.9609"/><text fill="#000000" font-family="sans-serif" font-size="13" font-weight="bold" lengthAdjust="spacing" textLength="7" x="72" y="117.1045">1</text><text fill="#000000" font-family="sans-serif" font-size="13" lengthAdjust="spacing" textLength="148" x="83" y="117.1045">Wants to create a activity</text><polygon fill="#A80036" points="76,148.3125,66,152.3125,76,156.3125,72,152.3125" style="stroke:#A80036;stroke-width:1.0;"/><line style="stroke:#A80036;stroke-width:1.0;stroke-dasharray:2.0,2.0;" x1="70" x2="370" y1="152.3125" y2="152.3125"/><text fill="#000000" font-family="sans-serif" font-size="13" font-weight="bold" lengthAdjust="spacing" textLength="7" x="82" y="147.4561">2</text><text fill="#000000" font-family="sans-serif" font-size="13" lengthAdjust="spacing" textLength="266" x="93" y="147.4561">Requests necessary information for WorkFlow</text><polygon fill="#A80036" points="354,178.6641,364,182.6641,354,186.6641,358,182.6641" style="stroke:#A80036;stroke-width:1.0;"/><line style="stroke:#A80036;stroke-width:1.0;stroke-dasharray:2.0,2.0;" x1="65" x2="360" y1="182.6641" y2="182.6641"/><text fill="#000000" font-family="sans-serif" font-size="13" font-weight="bold" lengthAdjust="spacing" textLength="7" x="72" y="177.8076">3</text><text fill="#000000" font-family="sans-serif" font-size="13" lengthAdjust="spacing" textLength="90" x="83" y="177.8076">Inserts the data</text><polygon fill="#A80036" points="76,209.0156,66,213.0156,76,217.0156,72,213.0156" style="stroke:#A80036;stroke-width:1.0;"/><line style="stroke:#A80036;stroke-width:1.0;stroke-dasharray:2.0,2.0;" x1="70" x2="370" y1="213.0156" y2="213.0156"/><text fill="#000000" font-family="sans-serif" font-size="13" font-weight="bold" lengthAdjust="spacing" textLength="7" x="82" y="208.1592">4</text><text fill="#000000" font-family="sans-serif" font-size="13" lengthAdjust="spacing" textLength="119" x="93" y="208.1592">displayWorkFlowInfo</text><!--MD5=[00b9c388a91a904e0a2c38c768a47be8]
@startuml
autonumber

actor "Project Manager" as PM
participant "System" as UI

activate PM
PM - -> UI : Wants to create a activity
activate UI
    UI - -> PM : Requests necessary information for WorkFlow
deactivate UI
PM - -> UI : Inserts the data
activate UI
UI - -> PM : displayWorkFlowInfo
deactivate UI

@enduml

PlantUML version 1.2021.7(Sun May 23 13:40:07 BST 2021)
(GPL source distribution)
Java Runtime: OpenJDK Runtime Environment
JVM: Dynamic Code Evolution 64-Bit Server VM
Default Encoding: Cp1252
Language: pt
Country: PT
--></g></svg>