<?xml version="1.0" encoding="UTF-8" standalone="no"?><svg xmlns="http://www.w3.org/2000/svg" xmlns:xlink="http://www.w3.org/1999/xlink" contentScriptType="application/ecmascript" contentStyleType="text/css" height="942px" preserveAspectRatio="none" style="width:2128px;height:942px;background:#FFFFFF;" version="1.1" viewBox="0 0 2128 942" width="2128px" zoomAndPan="magnify"><defs><filter height="300%" id="f19rh7k927g3ry" width="300%" x="-1" y="-1"><feGaussianBlur result="blurOut" stdDeviation="2.0"/><feColorMatrix in="blurOut" result="blurOut2" type="matrix" values="0 0 0 0 0 0 0 0 0 0 0 0 0 0 0 0 0 0 .4 0"/><feOffset dx="4.0" dy="4.0" in="blurOut2" result="blurOut3"/><feBlend in="SourceGraphic" in2="blurOut3" mode="normal"/></filter></defs><g><rect fill="#FFFFFF" filter="url(#f19rh7k927g3ry)" height="60.7031" style="stroke:#A80036;stroke-width:1.0;" width="10" x="361" y="121.9609"/><rect fill="#FFFFFF" filter="url(#f19rh7k927g3ry)" height="626.3281" style="stroke:#A80036;stroke-width:1.0;" width="10" x="361" y="213.0156"/><rect fill="#FFFFFF" filter="url(#f19rh7k927g3ry)" height="565.625" style="stroke:#A80036;stroke-width:1.0;" width="10" x="932" y="243.3672"/><rect fill="#FFFFFF" filter="url(#f19rh7k927g3ry)" height="30" style="stroke:#A80036;stroke-width:1.0;" width="10" x="1101.5" y="273.7188"/><rect fill="#FFFFFF" filter="url(#f19rh7k927g3ry)" height="30" style="stroke:#A80036;stroke-width:1.0;" width="10" x="1101.5" y="334.0703"/><rect fill="#FFFFFF" filter="url(#f19rh7k927g3ry)" height="91.0547" style="stroke:#A80036;stroke-width:1.0;" width="10" x="1101.5" y="434.7734"/><rect fill="#FFFFFF" filter="url(#f19rh7k927g3ry)" height="101.0547" style="stroke:#A80036;stroke-width:1.0;" width="10" x="1755.5" y="556.1797"/><rect fill="#FFFFFF" filter="url(#f19rh7k927g3ry)" height="60.7031" style="stroke:#A80036;stroke-width:1.0;" width="10" x="1902.5" y="687.5859"/><line style="stroke:#A80036;stroke-width:1.0;stroke-dasharray:5.0,5.0;" x1="60" x2="60" y1="89.6094" y2="857.3438"/><line style="stroke:#A80036;stroke-width:1.0;stroke-dasharray:5.0,5.0;" x1="365.5" x2="365.5" y1="89.6094" y2="857.3438"/><line style="stroke:#A80036;stroke-width:1.0;stroke-dasharray:5.0,5.0;" x1="936.5" x2="936.5" y1="89.6094" y2="857.3438"/><line style="stroke:#A80036;stroke-width:1.0;stroke-dasharray:5.0,5.0;" x1="1106.5" x2="1106.5" y1="89.6094" y2="857.3438"/><line style="stroke:#A80036;stroke-width:1.0;stroke-dasharray:5.0,5.0;" x1="1607.5" x2="1607.5" y1="89.6094" y2="857.3438"/><line style="stroke:#A80036;stroke-width:1.0;stroke-dasharray:5.0,5.0;" x1="1760.5" x2="1760.5" y1="89.6094" y2="857.3438"/><line style="stroke:#A80036;stroke-width:1.0;stroke-dasharray:5.0,5.0;" x1="1907.5" x2="1907.5" y1="89.6094" y2="857.3438"/><line style="stroke:#A80036;stroke-width:1.0;stroke-dasharray:5.0,5.0;" x1="2052.5" x2="2052.5" y1="89.6094" y2="857.3438"/><text fill="#000000" font-family="sans-serif" font-size="14" lengthAdjust="spacing" textLength="104" x="5" y="86.5332">Project Manager</text><ellipse cx="60" cy="15" fill="#FEFECE" filter="url(#f19rh7k927g3ry)" rx="8" ry="8" style="stroke:#A80036;stroke-width:2.0;"/><path d="M60,23 L60,50 M47,31 L73,31 M60,50 L47,65 M60,50 L73,65 " fill="none" filter="url(#f19rh7k927g3ry)" style="stroke:#A80036;stroke-width:2.0;"/><text fill="#000000" font-family="sans-serif" font-size="14" lengthAdjust="spacing" textLength="104" x="5" y="870.877">Project Manager</text><ellipse cx="60" cy="883.9531" fill="#FEFECE" filter="url(#f19rh7k927g3ry)" rx="8" ry="8" style="stroke:#A80036;stroke-width:2.0;"/><path d="M60,891.9531 L60,918.9531 M47,899.9531 L73,899.9531 M60,918.9531 L47,933.9531 M60,918.9531 L73,933.9531 " fill="none" filter="url(#f19rh7k927g3ry)" style="stroke:#A80036;stroke-width:2.0;"/><rect fill="#FEFECE" filter="url(#f19rh7k927g3ry)" height="31.6094" style="stroke:#A80036;stroke-width:1.5;" width="141" x="293.5" y="53"/><text fill="#000000" font-family="sans-serif" font-size="14" lengthAdjust="spacing" textLength="127" x="300.5" y="74.5332">RegisterWorkFlowUI</text><rect fill="#FEFECE" filter="url(#f19rh7k927g3ry)" height="31.6094" style="stroke:#A80036;stroke-width:1.5;" width="141" x="293.5" y="856.3438"/><text fill="#000000" font-family="sans-serif" font-size="14" lengthAdjust="spacing" textLength="127" x="300.5" y="877.877">RegisterWorkFlowUI</text><rect fill="#FEFECE" filter="url(#f19rh7k927g3ry)" height="31.6094" style="stroke:#A80036;stroke-width:1.5;" width="191" x="839.5" y="53"/><text fill="#000000" font-family="sans-serif" font-size="14" lengthAdjust="spacing" textLength="177" x="846.5" y="74.5332">RegisterWorkFlowController</text><rect fill="#FEFECE" filter="url(#f19rh7k927g3ry)" height="31.6094" style="stroke:#A80036;stroke-width:1.5;" width="191" x="839.5" y="856.3438"/><text fill="#000000" font-family="sans-serif" font-size="14" lengthAdjust="spacing" textLength="177" x="846.5" y="877.877">RegisterWorkFlowController</text><rect fill="#FEFECE" filter="url(#f19rh7k927g3ry)" height="31.6094" style="stroke:#A80036;stroke-width:1.5;" width="120" x="1044.5" y="53"/><text fill="#000000" font-family="sans-serif" font-size="14" lengthAdjust="spacing" textLength="106" x="1051.5" y="74.5332">WorkFlowBuilder</text><rect fill="#FEFECE" filter="url(#f19rh7k927g3ry)" height="31.6094" style="stroke:#A80036;stroke-width:1.5;" width="120" x="1044.5" y="856.3438"/><text fill="#000000" font-family="sans-serif" font-size="14" lengthAdjust="spacing" textLength="106" x="1051.5" y="877.877">WorkFlowBuilder</text><rect fill="#FEFECE" filter="url(#f19rh7k927g3ry)" height="31.6094" style="stroke:#A80036;stroke-width:1.5;" width="142" x="1534.5" y="53"/><text fill="#000000" font-family="sans-serif" font-size="14" lengthAdjust="spacing" textLength="128" x="1541.5" y="74.5332">WorkFlow:WorkFlow</text><rect fill="#FEFECE" filter="url(#f19rh7k927g3ry)" height="31.6094" style="stroke:#A80036;stroke-width:1.5;" width="142" x="1534.5" y="856.3438"/><text fill="#000000" font-family="sans-serif" font-size="14" lengthAdjust="spacing" textLength="128" x="1541.5" y="877.877">WorkFlow:WorkFlow</text><rect fill="#FEFECE" filter="url(#f19rh7k927g3ry)" height="31.6094" style="stroke:#A80036;stroke-width:1.5;" width="136" x="1690.5" y="53"/><text fill="#000000" font-family="sans-serif" font-size="14" lengthAdjust="spacing" textLength="122" x="1697.5" y="74.5332">PersistenceContext</text><rect fill="#FEFECE" filter="url(#f19rh7k927g3ry)" height="31.6094" style="stroke:#A80036;stroke-width:1.5;" width="136" x="1690.5" y="856.3438"/><text fill="#000000" font-family="sans-serif" font-size="14" lengthAdjust="spacing" textLength="122" x="1697.5" y="877.877">PersistenceContext</text><rect fill="#FEFECE" filter="url(#f19rh7k927g3ry)" height="31.6094" style="stroke:#A80036;stroke-width:1.5;" width="130" x="1840.5" y="53"/><text fill="#000000" font-family="sans-serif" font-size="14" lengthAdjust="spacing" textLength="116" x="1847.5" y="74.5332">RepositoryFactory</text><rect fill="#FEFECE" filter="url(#f19rh7k927g3ry)" height="31.6094" style="stroke:#A80036;stroke-width:1.5;" width="130" x="1840.5" y="856.3438"/><text fill="#000000" font-family="sans-serif" font-size="14" lengthAdjust="spacing" textLength="116" x="1847.5" y="877.877">RepositoryFactory</text><text fill="#000000" font-family="sans-serif" font-size="14" lengthAdjust="spacing" textLength="130" x="1984.5" y="86.5332">WorkFlowRepository</text><path d="M2034.5,36 C2034.5,26 2052.5,26 2052.5,26 C2052.5,26 2070.5,26 2070.5,36 L2070.5,62 C2070.5,72 2052.5,72 2052.5,72 C2052.5,72 2034.5,72 2034.5,62 L2034.5,36 " fill="#FEFECE" filter="url(#f19rh7k927g3ry)" style="stroke:#000000;stroke-width:1.5;"/><path d="M2034.5,36 C2034.5,46 2052.5,46 2052.5,46 C2052.5,46 2070.5,46 2070.5,36 " fill="none" style="stroke:#000000;stroke-width:1.5;"/><text fill="#000000" font-family="sans-serif" font-size="14" lengthAdjust="spacing" textLength="130" x="1984.5" y="870.877">WorkFlowRepository</text><path d="M2034.5,883.9531 C2034.5,873.9531 2052.5,873.9531 2052.5,873.9531 C2052.5,873.9531 2070.5,873.9531 2070.5,883.9531 L2070.5,909.9531 C2070.5,919.9531 2052.5,919.9531 2052.5,919.9531 C2052.5,919.9531 2034.5,919.9531 2034.5,909.9531 L2034.5,883.9531 " fill="#FEFECE" filter="url(#f19rh7k927g3ry)" style="stroke:#000000;stroke-width:1.5;"/><path d="M2034.5,883.9531 C2034.5,893.9531 2052.5,893.9531 2052.5,893.9531 C2052.5,893.9531 2070.5,893.9531 2070.5,883.9531 " fill="none" style="stroke:#000000;stroke-width:1.5;"/><rect fill="#FFFFFF" filter="url(#f19rh7k927g3ry)" height="60.7031" style="stroke:#A80036;stroke-width:1.0;" width="10" x="361" y="121.9609"/><rect fill="#FFFFFF" filter="url(#f19rh7k927g3ry)" height="626.3281" style="stroke:#A80036;stroke-width:1.0;" width="10" x="361" y="213.0156"/><rect fill="#FFFFFF" filter="url(#f19rh7k927g3ry)" height="565.625" style="stroke:#A80036;stroke-width:1.0;" width="10" x="932" y="243.3672"/><rect fill="#FFFFFF" filter="url(#f19rh7k927g3ry)" height="30" style="stroke:#A80036;stroke-width:1.0;" width="10" x="1101.5" y="273.7188"/><rect fill="#FFFFFF" filter="url(#f19rh7k927g3ry)" height="30" style="stroke:#A80036;stroke-width:1.0;" width="10" x="1101.5" y="334.0703"/><rect fill="#FFFFFF" filter="url(#f19rh7k927g3ry)" height="91.0547" style="stroke:#A80036;stroke-width:1.0;" width="10" x="1101.5" y="434.7734"/><rect fill="#FFFFFF" filter="url(#f19rh7k927g3ry)" height="101.0547" style="stroke:#A80036;stroke-width:1.0;" width="10" x="1755.5" y="556.1797"/><rect fill="#FFFFFF" filter="url(#f19rh7k927g3ry)" height="60.7031" style="stroke:#A80036;stroke-width:1.0;" width="10" x="1902.5" y="687.5859"/><polygon fill="#A80036" points="349,117.9609,359,121.9609,349,125.9609,353,121.9609" style="stroke:#A80036;stroke-width:1.0;"/><line style="stroke:#A80036;stroke-width:1.0;stroke-dasharray:2.0,2.0;" x1="60" x2="355" y1="121.9609" y2="121.9609"/><text fill="#000000" font-family="sans-serif" font-size="13" font-weight="bold" lengthAdjust="spacing" textLength="7" x="67" y="117.1045">1</text><text fill="#000000" font-family="sans-serif" font-size="13" lengthAdjust="spacing" textLength="121" x="78" y="117.1045">Register a WorkFlow</text><polygon fill="#A80036" points="925,148.3125,935,152.3125,925,156.3125,929,152.3125" style="stroke:#A80036;stroke-width:1.0;"/><line style="stroke:#A80036;stroke-width:1.0;" x1="371" x2="931" y1="152.3125" y2="152.3125"/><text fill="#000000" font-family="sans-serif" font-size="13" font-weight="bold" lengthAdjust="spacing" textLength="7" x="378" y="147.4561">2</text><text fill="#000000" font-family="sans-serif" font-size="13" lengthAdjust="spacing" textLength="36" x="389" y="147.4561">create</text><polygon fill="#A80036" points="71,178.6641,61,182.6641,71,186.6641,67,182.6641" style="stroke:#A80036;stroke-width:1.0;"/><line style="stroke:#A80036;stroke-width:1.0;stroke-dasharray:2.0,2.0;" x1="65" x2="365" y1="182.6641" y2="182.6641"/><text fill="#000000" font-family="sans-serif" font-size="13" font-weight="bold" lengthAdjust="spacing" textLength="7" x="77" y="177.8076">3</text><text fill="#000000" font-family="sans-serif" font-size="13" lengthAdjust="spacing" textLength="266" x="88" y="177.8076">Requests necessary credentials for WorkFlow</text><polygon fill="#A80036" points="349,209.0156,359,213.0156,349,217.0156,353,213.0156" style="stroke:#A80036;stroke-width:1.0;"/><line style="stroke:#A80036;stroke-width:1.0;stroke-dasharray:2.0,2.0;" x1="60" x2="355" y1="213.0156" y2="213.0156"/><text fill="#000000" font-family="sans-serif" font-size="13" font-weight="bold" lengthAdjust="spacing" textLength="7" x="67" y="208.1592">4</text><text fill="#000000" font-family="sans-serif" font-size="13" lengthAdjust="spacing" textLength="90" x="78" y="208.1592">Inserts the data</text><polygon fill="#A80036" points="920,239.3672,930,243.3672,920,247.3672,924,243.3672" style="stroke:#A80036;stroke-width:1.0;"/><line style="stroke:#A80036;stroke-width:1.0;" x1="371" x2="926" y1="243.3672" y2="243.3672"/><text fill="#000000" font-family="sans-serif" font-size="13" font-weight="bold" lengthAdjust="spacing" textLength="7" x="378" y="238.5107">5</text><text fill="#000000" font-family="sans-serif" font-size="13" lengthAdjust="spacing" textLength="531" x="389" y="238.5107">workFlow = newWorkFlow(WorkFlowExecutionId workFlowExecutionId,WorkFlow workFlow)</text><polygon fill="#A80036" points="1089.5,269.7188,1099.5,273.7188,1089.5,277.7188,1093.5,273.7188" style="stroke:#A80036;stroke-width:1.0;"/><line style="stroke:#A80036;stroke-width:1.0;" x1="942" x2="1095.5" y1="273.7188" y2="273.7188"/><text fill="#000000" font-family="sans-serif" font-size="13" font-weight="bold" lengthAdjust="spacing" textLength="7" x="949" y="268.8623">6</text><text fill="#000000" font-family="sans-serif" font-size="13" lengthAdjust="spacing" textLength="101" x="960" y="268.8623">registerWorkFlow</text><polygon fill="#A80036" points="1089.5,330.0703,1099.5,334.0703,1089.5,338.0703,1093.5,334.0703" style="stroke:#A80036;stroke-width:1.0;"/><line style="stroke:#A80036;stroke-width:1.0;" x1="942" x2="1095.5" y1="334.0703" y2="334.0703"/><text fill="#000000" font-family="sans-serif" font-size="13" font-weight="bold" lengthAdjust="spacing" textLength="7" x="949" y="329.2139">7</text><text fill="#000000" font-family="sans-serif" font-size="13" lengthAdjust="spacing" textLength="84" x="960" y="329.2139">setWorkFlow()</text><path d="M859,377.0703 L859,403.0703 L1183,403.0703 L1183,387.0703 L1173,377.0703 L859,377.0703 " fill="#FBFB77" filter="url(#f19rh7k927g3ry)" style="stroke:#A80036;stroke-width:1.0;"/><path d="M1173,377.0703 L1173,387.0703 L1183,387.0703 L1173,377.0703 " fill="#FBFB77" style="stroke:#A80036;stroke-width:1.0;"/><text fill="#000000" font-family="sans-serif" font-size="13" lengthAdjust="spacing" textLength="178" x="925.5" y="395.5654">Sets the rest of the information</text><polygon fill="#A80036" points="1089.5,430.7734,1099.5,434.7734,1089.5,438.7734,1093.5,434.7734" style="stroke:#A80036;stroke-width:1.0;"/><line style="stroke:#A80036;stroke-width:1.0;" x1="942" x2="1095.5" y1="434.7734" y2="434.7734"/><text fill="#000000" font-family="sans-serif" font-size="13" font-weight="bold" lengthAdjust="spacing" textLength="7" x="949" y="429.917">8</text><text fill="#000000" font-family="sans-serif" font-size="13" lengthAdjust="spacing" textLength="109" x="960" y="429.917">registerWorkFlow()</text><polygon fill="#A80036" points="1595.5,461.125,1605.5,465.125,1595.5,469.125,1599.5,465.125" style="stroke:#A80036;stroke-width:1.0;"/><line style="stroke:#A80036;stroke-width:1.0;" x1="1111.5" x2="1601.5" y1="465.125" y2="465.125"/><text fill="#000000" font-family="sans-serif" font-size="13" font-weight="bold" lengthAdjust="spacing" textLength="7" x="1118.5" y="460.2686">9</text><text fill="#000000" font-family="sans-serif" font-size="13" lengthAdjust="spacing" textLength="461" x="1129.5" y="460.2686">newWorkFlow(WorkFlowExecutionId workFlowExecutionId,WorkFlow workFlow)</text><polygon fill="#A80036" points="1122.5,491.4766,1112.5,495.4766,1122.5,499.4766,1118.5,495.4766" style="stroke:#A80036;stroke-width:1.0;"/><line style="stroke:#A80036;stroke-width:1.0;" x1="1116.5" x2="1606.5" y1="495.4766" y2="495.4766"/><text fill="#000000" font-family="sans-serif" font-size="13" font-weight="bold" lengthAdjust="spacing" textLength="14" x="1128.5" y="490.6201">10</text><text fill="#000000" font-family="sans-serif" font-size="13" lengthAdjust="spacing" textLength="58" x="1146.5" y="490.6201">WorkFlow</text><polygon fill="#A80036" points="953,521.8281,943,525.8281,953,529.8281,949,525.8281" style="stroke:#A80036;stroke-width:1.0;"/><line style="stroke:#A80036;stroke-width:1.0;" x1="947" x2="1105.5" y1="525.8281" y2="525.8281"/><text fill="#000000" font-family="sans-serif" font-size="13" font-weight="bold" lengthAdjust="spacing" textLength="14" x="959" y="520.9717">11</text><text fill="#000000" font-family="sans-serif" font-size="13" lengthAdjust="spacing" textLength="58" x="977" y="520.9717">WorkFlow</text><polygon fill="#A80036" points="1743.5,552.1797,1753.5,556.1797,1743.5,560.1797,1747.5,556.1797" style="stroke:#A80036;stroke-width:1.0;"/><line style="stroke:#A80036;stroke-width:1.0;" x1="942" x2="1749.5" y1="556.1797" y2="556.1797"/><text fill="#000000" font-family="sans-serif" font-size="13" font-weight="bold" lengthAdjust="spacing" textLength="14" x="949" y="551.3232">12</text><text fill="#000000" font-family="sans-serif" font-size="13" lengthAdjust="spacing" textLength="0" x="971" y="551.3232"/><path d="M1694,569.1797 L1694,595.1797 L2119,595.1797 L2119,579.1797 L2109,569.1797 L1694,569.1797 " fill="#FBFB77" filter="url(#f19rh7k927g3ry)" style="stroke:#A80036;stroke-width:1.0;"/><path d="M2109,569.1797 L2109,579.1797 L2119,579.1797 L2109,569.1797 " fill="#FBFB77" style="stroke:#A80036;stroke-width:1.0;"/><text fill="#000000" font-family="sans-serif" font-size="13" lengthAdjust="spacing" textLength="248" x="1776" y="587.6748">can create an repository in memory or JPA</text><polygon fill="#A80036" points="1895.5,622.8828,1905.5,626.8828,1895.5,630.8828,1899.5,626.8828" style="stroke:#A80036;stroke-width:1.0;"/><line style="stroke:#A80036;stroke-width:1.0;" x1="1765.5" x2="1901.5" y1="626.8828" y2="626.8828"/><text fill="#000000" font-family="sans-serif" font-size="13" font-weight="bold" lengthAdjust="spacing" textLength="14" x="1772.5" y="622.0264">13</text><text fill="#000000" font-family="sans-serif" font-size="13" lengthAdjust="spacing" textLength="36" x="1790.5" y="622.0264">create</text><polygon fill="#A80036" points="953,653.2344,943,657.2344,953,661.2344,949,657.2344" style="stroke:#A80036;stroke-width:1.0;"/><line style="stroke:#A80036;stroke-width:1.0;" x1="947" x2="1759.5" y1="657.2344" y2="657.2344"/><text fill="#000000" font-family="sans-serif" font-size="13" font-weight="bold" lengthAdjust="spacing" textLength="14" x="959" y="652.3779">14</text><text fill="#000000" font-family="sans-serif" font-size="13" lengthAdjust="spacing" textLength="39" x="977" y="652.3779">factory</text><polygon fill="#A80036" points="1890.5,683.5859,1900.5,687.5859,1890.5,691.5859,1894.5,687.5859" style="stroke:#A80036;stroke-width:1.0;"/><line style="stroke:#A80036;stroke-width:1.0;" x1="942" x2="1896.5" y1="687.5859" y2="687.5859"/><text fill="#000000" font-family="sans-serif" font-size="13" font-weight="bold" lengthAdjust="spacing" textLength="14" x="949" y="682.7295">15</text><text fill="#000000" font-family="sans-serif" font-size="13" lengthAdjust="spacing" textLength="66" x="967" y="682.7295">WorkFlow()</text><polygon fill="#A80036" points="2040.5,713.9375,2050.5,717.9375,2040.5,721.9375,2044.5,717.9375" style="stroke:#A80036;stroke-width:1.0;"/><line style="stroke:#A80036;stroke-width:1.0;" x1="1912.5" x2="2046.5" y1="717.9375" y2="717.9375"/><text fill="#000000" font-family="sans-serif" font-size="13" font-weight="bold" lengthAdjust="spacing" textLength="14" x="1919.5" y="713.0811">16</text><text fill="#000000" font-family="sans-serif" font-size="13" lengthAdjust="spacing" textLength="36" x="1937.5" y="713.0811">create</text><polygon fill="#A80036" points="953,744.2891,943,748.2891,953,752.2891,949,748.2891" style="stroke:#A80036;stroke-width:1.0;"/><line style="stroke:#A80036;stroke-width:1.0;" x1="947" x2="1906.5" y1="748.2891" y2="748.2891"/><text fill="#000000" font-family="sans-serif" font-size="13" font-weight="bold" lengthAdjust="spacing" textLength="14" x="959" y="743.4326">17</text><text fill="#000000" font-family="sans-serif" font-size="13" lengthAdjust="spacing" textLength="128" x="977" y="743.4326">WorkFlowRepository()</text><polygon fill="#A80036" points="2040.5,774.6406,2050.5,778.6406,2040.5,782.6406,2044.5,778.6406" style="stroke:#A80036;stroke-width:1.0;"/><line style="stroke:#A80036;stroke-width:1.0;" x1="942" x2="2046.5" y1="778.6406" y2="778.6406"/><text fill="#000000" font-family="sans-serif" font-size="13" font-weight="bold" lengthAdjust="spacing" textLength="14" x="949" y="773.7842">18</text><text fill="#000000" font-family="sans-serif" font-size="13" lengthAdjust="spacing" textLength="92" x="967" y="773.7842">save(WorkFlow)</text><polygon fill="#A80036" points="382,804.9922,372,808.9922,382,812.9922,378,808.9922" style="stroke:#A80036;stroke-width:1.0;"/><line style="stroke:#A80036;stroke-width:1.0;" x1="376" x2="936" y1="808.9922" y2="808.9922"/><text fill="#000000" font-family="sans-serif" font-size="13" font-weight="bold" lengthAdjust="spacing" textLength="14" x="388" y="804.1357">19</text><text fill="#000000" font-family="sans-serif" font-size="13" lengthAdjust="spacing" textLength="58" x="406" y="804.1357">WorkFlow</text><polygon fill="#A80036" points="71,835.3438,61,839.3438,71,843.3438,67,839.3438" style="stroke:#A80036;stroke-width:1.0;"/><line style="stroke:#A80036;stroke-width:1.0;stroke-dasharray:2.0,2.0;" x1="65" x2="365" y1="839.3438" y2="839.3438"/><text fill="#000000" font-family="sans-serif" font-size="13" font-weight="bold" lengthAdjust="spacing" textLength="14" x="77" y="834.4873">20</text><text fill="#000000" font-family="sans-serif" font-size="13" lengthAdjust="spacing" textLength="119" x="95" y="834.4873">displayWorkFlowInfo</text><!--MD5=[c2766df106bce22700326c2d8adba880]
@startuml
autonumber

actor "Project Manager" as PM

participant "RegisterWorkFlowUI" as UI
participant "RegisterWorkFlowController" as CTRL
participant "WorkFlowBuilder" as CB
participant "WorkFlow:WorkFlow" as CC
participant "PersistenceContext" as PC
participant "RepositoryFactory" as RF


database "WorkFlowRepository" as CR

PM - -> UI : Register a WorkFlow
activate UI
    UI -> CTRL : create
    UI - -> PM : Requests necessary credentials for WorkFlow
deactivate UI

PM - -> UI : Inserts the data
activate UI
    UI -> CTRL : workFlow = newWorkFlow(WorkFlowExecutionId workFlowExecutionId,WorkFlow workFlow)
    activate CTRL
        CTRL -> CB: registerWorkFlow
        activate CB
        deactivate CB

        CTRL -> CB: setWorkFlow()
        activate CB
        deactivate CB

note over CTRL, CB : Sets the rest of the information


        CTRL -> CB: registerWorkFlow()
        activate CB
                CB -> CC: newWorkFlow(WorkFlowExecutionId workFlowExecutionId,WorkFlow workFlow)
                CC -> CB: WorkFlow
                CB -> CTRL: WorkFlow
        deactivate CB

        CTRL -> PC:
        activate PC
        note over PC, CR : can create an repository in memory or JPA
         PC->RF: create
         PC->CTRL: factory

        deactivate PC

        CTRL->RF:WorkFlow()
        activate RF
        RF->CR:create
        RF->CTRL:WorkFlowRepository()
        deactivate RF

        CTRL->CR:save(WorkFlow)

        CTRL->UI:WorkFlow
    deactivate CTRL

    UI - -> PM : displayWorkFlowInfo
deactivate UI


@enduml

PlantUML version 1.2021.7(Sun May 23 13:40:07 BST 2021)
(GPL source distribution)
Java Runtime: OpenJDK Runtime Environment
JVM: Dynamic Code Evolution 64-Bit Server VM
Default Encoding: Cp1252
Language: pt
Country: PT
--></g></svg>