<?xml version="1.0" encoding="UTF-8" standalone="no"?><svg xmlns="http://www.w3.org/2000/svg" xmlns:xlink="http://www.w3.org/1999/xlink" contentScriptType="application/ecmascript" contentStyleType="text/css" height="224px" preserveAspectRatio="none" style="width:1255px;height:224px;" version="1.1" viewBox="0 0 1255 224" width="1255px" zoomAndPan="magnify"><defs><filter height="300%" id="fpzt27bdwj09t" width="300%" x="-1" y="-1"><feGaussianBlur result="blurOut" stdDeviation="2.0"/><feColorMatrix in="blurOut" result="blurOut2" type="matrix" values="0 0 0 0 0 0 0 0 0 0 0 0 0 0 0 0 0 0 .4 0"/><feOffset dx="4.0" dy="4.0" in="blurOut2" result="blurOut3"/><feBlend in="SourceGraphic" in2="blurOut3" mode="normal"/></filter></defs><g><!--MD5=[230135aa9d5ee942c0a97661bc2e7b75]
class RegisterCatalogueUI--><rect codeLine="3" fill="#FEFECE" filter="url(#fpzt27bdwj09t)" height="48" id="RegisterCatalogueUI" style="stroke:#A80036;stroke-width:1.5;" width="148" x="7" y="113.8"/><ellipse cx="22" cy="129.8" fill="#ADD1B2" rx="11" ry="11" style="stroke:#A80036;stroke-width:1.0;"/><path d="M24,126.3 Q24.2031,125.8 24.4375,125.55 Q24.6719,125.3 24.9375,125.3 Q25.4063,125.3 25.7031,125.5813 Q26,125.8625 26,126.5188 L26,128.0813 Q26,128.7375 25.7188,129.0188 Q25.4375,129.3 25,129.3 Q24.6094,129.3 24.3594,129.1281 Q24.1094,128.9563 24,128.5031 Q23.9531,128.1906 23.7813,128.0188 Q23.4688,127.6906 22.9063,127.5031 Q22.3438,127.3 21.7813,127.3 Q21.0781,127.3 20.4844,127.5813 Q19.9063,127.8625 19.4531,128.4875 Q19,129.1125 19,129.9719 L19,130.8938 Q19,131.925 19.8438,132.6125 Q20.6875,133.3 22.1875,133.3 Q23.0781,133.3 23.7031,133.0969 Q24.0625,132.9875 24.4688,132.6281 Q24.7344,132.425 24.875,132.3625 Q25.0156,132.3 25.1875,132.3 Q25.5156,132.3 25.75,132.5656 Q26,132.8156 26,133.175 Q26,133.5188 25.6563,133.925 Q25.1563,134.5188 24.3594,134.8469 Q23.3125,135.3 22.0313,135.3 Q20.5313,135.3 19.3281,134.7063 Q18.3594,134.2375 17.6719,133.2219 Q17,132.2063 17,131.0031 L17,129.9094 Q17,128.6594 17.5938,127.5656 Q18.2031,126.4719 19.25,125.8938 Q20.3125,125.3 21.5,125.3 Q22.2188,125.3 22.8438,125.55 Q23.4688,125.8 24,126.3 Z " fill="#000000"/><text fill="#000000" font-family="sans-serif" font-size="12" lengthAdjust="spacing" textLength="116" x="36" y="134.7102">RegisterCatalogueUI</text><line style="stroke:#A80036;stroke-width:1.5;" x1="8" x2="154" y1="145.8" y2="145.8"/><line style="stroke:#A80036;stroke-width:1.5;" x1="8" x2="154" y1="153.8" y2="153.8"/><!--MD5=[11e1baa4a92c39350e8cd6b2cdc1b8a3]
class RegisterCatalogueController--><rect codeLine="6" fill="#FEFECE" filter="url(#fpzt27bdwj09t)" height="61.8359" id="RegisterCatalogueController" style="stroke:#A80036;stroke-width:1.5;" width="190" x="190" y="106.8"/><ellipse cx="205" cy="122.8" fill="#ADD1B2" rx="11" ry="11" style="stroke:#A80036;stroke-width:1.0;"/><path d="M207,119.3 Q207.2031,118.8 207.4375,118.55 Q207.6719,118.3 207.9375,118.3 Q208.4063,118.3 208.7031,118.5813 Q209,118.8625 209,119.5188 L209,121.0813 Q209,121.7375 208.7188,122.0188 Q208.4375,122.3 208,122.3 Q207.6094,122.3 207.3594,122.1281 Q207.1094,121.9563 207,121.5031 Q206.9531,121.1906 206.7813,121.0188 Q206.4688,120.6906 205.9063,120.5031 Q205.3438,120.3 204.7813,120.3 Q204.0781,120.3 203.4844,120.5813 Q202.9063,120.8625 202.4531,121.4875 Q202,122.1125 202,122.9719 L202,123.8938 Q202,124.925 202.8438,125.6125 Q203.6875,126.3 205.1875,126.3 Q206.0781,126.3 206.7031,126.0969 Q207.0625,125.9875 207.4688,125.6281 Q207.7344,125.425 207.875,125.3625 Q208.0156,125.3 208.1875,125.3 Q208.5156,125.3 208.75,125.5656 Q209,125.8156 209,126.175 Q209,126.5188 208.6563,126.925 Q208.1563,127.5188 207.3594,127.8469 Q206.3125,128.3 205.0313,128.3 Q203.5313,128.3 202.3281,127.7063 Q201.3594,127.2375 200.6719,126.2219 Q200,125.2063 200,124.0031 L200,122.9094 Q200,121.6594 200.5938,120.5656 Q201.2031,119.4719 202.25,118.8938 Q203.3125,118.3 204.5,118.3 Q205.2188,118.3 205.8438,118.55 Q206.4688,118.8 207,119.3 Z " fill="#000000"/><text fill="#000000" font-family="sans-serif" font-size="12" lengthAdjust="spacing" textLength="158" x="219" y="127.7102">RegisterCatalogueController</text><line style="stroke:#A80036;stroke-width:1.5;" x1="191" x2="379" y1="138.8" y2="138.8"/><line style="stroke:#A80036;stroke-width:1.5;" x1="191" x2="379" y1="146.8" y2="146.8"/><text fill="#000000" font-family="sans-serif" font-size="11" lengthAdjust="spacing" textLength="96" x="196" y="162.2189">registerCatalogue();</text><!--MD5=[a77781830b4eef1927aef37ad01ad2c2]
class Catalogue--><rect codeLine="10" fill="#FEFECE" filter="url(#fpzt27bdwj09t)" height="103.3438" id="Catalogue" style="stroke:#A80036;stroke-width:1.5;" width="152" x="415" y="86.3"/><ellipse cx="458.35" cy="102.3" fill="#ADD1B2" rx="11" ry="11" style="stroke:#A80036;stroke-width:1.0;"/><path d="M460.35,98.8 Q460.5531,98.3 460.7875,98.05 Q461.0219,97.8 461.2875,97.8 Q461.7563,97.8 462.0531,98.0813 Q462.35,98.3625 462.35,99.0188 L462.35,100.5813 Q462.35,101.2375 462.0688,101.5188 Q461.7875,101.8 461.35,101.8 Q460.9594,101.8 460.7094,101.6281 Q460.4594,101.4563 460.35,101.0031 Q460.3031,100.6906 460.1313,100.5188 Q459.8188,100.1906 459.2563,100.0031 Q458.6938,99.8 458.1313,99.8 Q457.4281,99.8 456.8344,100.0813 Q456.2563,100.3625 455.8031,100.9875 Q455.35,101.6125 455.35,102.4719 L455.35,103.3938 Q455.35,104.425 456.1938,105.1125 Q457.0375,105.8 458.5375,105.8 Q459.4281,105.8 460.0531,105.5969 Q460.4125,105.4875 460.8188,105.1281 Q461.0844,104.925 461.225,104.8625 Q461.3656,104.8 461.5375,104.8 Q461.8656,104.8 462.1,105.0656 Q462.35,105.3156 462.35,105.675 Q462.35,106.0188 462.0063,106.425 Q461.5063,107.0188 460.7094,107.3469 Q459.6625,107.8 458.3813,107.8 Q456.8813,107.8 455.6781,107.2063 Q454.7094,106.7375 454.0219,105.7219 Q453.35,104.7063 453.35,103.5031 L453.35,102.4094 Q453.35,101.1594 453.9438,100.0656 Q454.5531,98.9719 455.6,98.3938 Q456.6625,97.8 457.85,97.8 Q458.5688,97.8 459.1938,98.05 Q459.8188,98.3 460.35,98.8 Z " fill="#000000"/><text fill="#000000" font-family="sans-serif" font-size="12" lengthAdjust="spacing" textLength="57" x="478.65" y="107.2102">Catalogue</text><line style="stroke:#A80036;stroke-width:1.5;" x1="416" x2="566" y1="118.3" y2="118.3"/><text fill="#000000" font-family="sans-serif" font-size="11" lengthAdjust="spacing" textLength="140" x="421" y="133.7189">Colaborator respColaborator;</text><text fill="#000000" font-family="sans-serif" font-size="11" lengthAdjust="spacing" textLength="117" x="421" y="147.5549">CatalogueId catalogueId;</text><text fill="#000000" font-family="sans-serif" font-size="11" lengthAdjust="spacing" textLength="139" x="421" y="161.3908">Description shortDescription;</text><text fill="#000000" font-family="sans-serif" font-size="11" lengthAdjust="spacing" textLength="128" x="421" y="175.2268">Designation catalogueTitle;</text><line style="stroke:#A80036;stroke-width:1.5;" x1="416" x2="566" y1="181.6438" y2="181.6438"/><!--MD5=[65f9b271fae1a3d56975d9ea4f8e38de]
class Colaborator--><rect codeLine="17" fill="#FEFECE" filter="url(#fpzt27bdwj09t)" height="144.8516" id="Colaborator" style="stroke:#A80036;stroke-width:1.5;" width="240" x="1001" y="65.3"/><ellipse cx="1084.25" cy="81.3" fill="#ADD1B2" rx="11" ry="11" style="stroke:#A80036;stroke-width:1.0;"/><path d="M1086.25,77.8 Q1086.4531,77.3 1086.6875,77.05 Q1086.9219,76.8 1087.1875,76.8 Q1087.6563,76.8 1087.9531,77.0813 Q1088.25,77.3625 1088.25,78.0188 L1088.25,79.5813 Q1088.25,80.2375 1087.9688,80.5188 Q1087.6875,80.8 1087.25,80.8 Q1086.8594,80.8 1086.6094,80.6281 Q1086.3594,80.4563 1086.25,80.0031 Q1086.2031,79.6906 1086.0313,79.5188 Q1085.7188,79.1906 1085.1563,79.0031 Q1084.5938,78.8 1084.0313,78.8 Q1083.3281,78.8 1082.7344,79.0813 Q1082.1563,79.3625 1081.7031,79.9875 Q1081.25,80.6125 1081.25,81.4719 L1081.25,82.3938 Q1081.25,83.425 1082.0938,84.1125 Q1082.9375,84.8 1084.4375,84.8 Q1085.3281,84.8 1085.9531,84.5969 Q1086.3125,84.4875 1086.7188,84.1281 Q1086.9844,83.925 1087.125,83.8625 Q1087.2656,83.8 1087.4375,83.8 Q1087.7656,83.8 1088,84.0656 Q1088.25,84.3156 1088.25,84.675 Q1088.25,85.0188 1087.9063,85.425 Q1087.4063,86.0188 1086.6094,86.3469 Q1085.5625,86.8 1084.2813,86.8 Q1082.7813,86.8 1081.5781,86.2063 Q1080.6094,85.7375 1079.9219,84.7219 Q1079.25,83.7063 1079.25,82.5031 L1079.25,81.4094 Q1079.25,80.1594 1079.8438,79.0656 Q1080.4531,77.9719 1081.5,77.3938 Q1082.5625,76.8 1083.75,76.8 Q1084.4688,76.8 1085.0938,77.05 Q1085.7188,77.3 1086.25,77.8 Z " fill="#000000"/><text fill="#000000" font-family="sans-serif" font-size="12" lengthAdjust="spacing" textLength="65" x="1104.75" y="86.2102">Colaborator</text><line style="stroke:#A80036;stroke-width:1.5;" x1="1002" x2="1240" y1="97.3" y2="97.3"/><text fill="#000000" font-family="sans-serif" font-size="11" lengthAdjust="spacing" textLength="87" x="1007" y="112.7189">SystemUser user;</text><text fill="#000000" font-family="sans-serif" font-size="11" lengthAdjust="spacing" textLength="228" x="1007" y="126.5549">MecanographicNumber mecanographicNumber;</text><text fill="#000000" font-family="sans-serif" font-size="11" lengthAdjust="spacing" textLength="59" x="1007" y="140.3908">Name name;</text><text fill="#000000" font-family="sans-serif" font-size="11" lengthAdjust="spacing" textLength="88" x="1007" y="154.2268">Address address;</text><text fill="#000000" font-family="sans-serif" font-size="11" lengthAdjust="spacing" textLength="93" x="1007" y="168.0627">BirthDate birthDate;</text><text fill="#000000" font-family="sans-serif" font-size="11" lengthAdjust="spacing" textLength="104" x="1007" y="181.8986">Evaluation evaluation;</text><text fill="#000000" font-family="sans-serif" font-size="11" lengthAdjust="spacing" textLength="79" x="1007" y="195.7346">Contact contact;</text><line style="stroke:#A80036;stroke-width:1.5;" x1="1002" x2="1240" y1="202.1516" y2="202.1516"/><!--MD5=[0abe66c5e1d87f00c5fb6fe25452d4f7]
class CatalogueId--><rect codeLine="27" fill="#FEFECE" filter="url(#fpzt27bdwj09t)" height="61.8359" id="CatalogueId" style="stroke:#A80036;stroke-width:1.5;" width="99" x="866.5" y="106.8"/><ellipse cx="881.5" cy="122.8" fill="#ADD1B2" rx="11" ry="11" style="stroke:#A80036;stroke-width:1.0;"/><path d="M883.5,119.3 Q883.7031,118.8 883.9375,118.55 Q884.1719,118.3 884.4375,118.3 Q884.9063,118.3 885.2031,118.5813 Q885.5,118.8625 885.5,119.5188 L885.5,121.0813 Q885.5,121.7375 885.2188,122.0188 Q884.9375,122.3 884.5,122.3 Q884.1094,122.3 883.8594,122.1281 Q883.6094,121.9563 883.5,121.5031 Q883.4531,121.1906 883.2813,121.0188 Q882.9688,120.6906 882.4063,120.5031 Q881.8438,120.3 881.2813,120.3 Q880.5781,120.3 879.9844,120.5813 Q879.4063,120.8625 878.9531,121.4875 Q878.5,122.1125 878.5,122.9719 L878.5,123.8938 Q878.5,124.925 879.3438,125.6125 Q880.1875,126.3 881.6875,126.3 Q882.5781,126.3 883.2031,126.0969 Q883.5625,125.9875 883.9688,125.6281 Q884.2344,125.425 884.375,125.3625 Q884.5156,125.3 884.6875,125.3 Q885.0156,125.3 885.25,125.5656 Q885.5,125.8156 885.5,126.175 Q885.5,126.5188 885.1563,126.925 Q884.6563,127.5188 883.8594,127.8469 Q882.8125,128.3 881.5313,128.3 Q880.0313,128.3 878.8281,127.7063 Q877.8594,127.2375 877.1719,126.2219 Q876.5,125.2063 876.5,124.0031 L876.5,122.9094 Q876.5,121.6594 877.0938,120.5656 Q877.7031,119.4719 878.75,118.8938 Q879.8125,118.3 881,118.3 Q881.7188,118.3 882.3438,118.55 Q882.9688,118.8 883.5,119.3 Z " fill="#000000"/><text fill="#000000" font-family="sans-serif" font-size="12" lengthAdjust="spacing" textLength="67" x="895.5" y="127.7102">CatalogueId</text><line style="stroke:#A80036;stroke-width:1.5;" x1="867.5" x2="964.5" y1="138.8" y2="138.8"/><text fill="#000000" font-family="sans-serif" font-size="11" lengthAdjust="spacing" textLength="70" x="872.5" y="154.2189">String number;</text><line style="stroke:#A80036;stroke-width:1.5;" x1="867.5" x2="964.5" y1="160.6359" y2="160.6359"/><!--MD5=[009695af4e54f3bba8a9c60dca3e1c94]
class Description--><rect codeLine="31" fill="#FEFECE" filter="url(#fpzt27bdwj09t)" height="75.6719" id="Description" style="stroke:#A80036;stroke-width:1.5;" width="95" x="736.5" y="99.8"/><ellipse cx="751.5" cy="115.8" fill="#ADD1B2" rx="11" ry="11" style="stroke:#A80036;stroke-width:1.0;"/><path d="M753.5,112.3 Q753.7031,111.8 753.9375,111.55 Q754.1719,111.3 754.4375,111.3 Q754.9063,111.3 755.2031,111.5813 Q755.5,111.8625 755.5,112.5188 L755.5,114.0813 Q755.5,114.7375 755.2188,115.0188 Q754.9375,115.3 754.5,115.3 Q754.1094,115.3 753.8594,115.1281 Q753.6094,114.9563 753.5,114.5031 Q753.4531,114.1906 753.2813,114.0188 Q752.9688,113.6906 752.4063,113.5031 Q751.8438,113.3 751.2813,113.3 Q750.5781,113.3 749.9844,113.5813 Q749.4063,113.8625 748.9531,114.4875 Q748.5,115.1125 748.5,115.9719 L748.5,116.8938 Q748.5,117.925 749.3438,118.6125 Q750.1875,119.3 751.6875,119.3 Q752.5781,119.3 753.2031,119.0969 Q753.5625,118.9875 753.9688,118.6281 Q754.2344,118.425 754.375,118.3625 Q754.5156,118.3 754.6875,118.3 Q755.0156,118.3 755.25,118.5656 Q755.5,118.8156 755.5,119.175 Q755.5,119.5188 755.1563,119.925 Q754.6563,120.5188 753.8594,120.8469 Q752.8125,121.3 751.5313,121.3 Q750.0313,121.3 748.8281,120.7063 Q747.8594,120.2375 747.1719,119.2219 Q746.5,118.2063 746.5,117.0031 L746.5,115.9094 Q746.5,114.6594 747.0938,113.5656 Q747.7031,112.4719 748.75,111.8938 Q749.8125,111.3 751,111.3 Q751.7188,111.3 752.3438,111.55 Q752.9688,111.8 753.5,112.3 Z " fill="#000000"/><text fill="#000000" font-family="sans-serif" font-size="12" lengthAdjust="spacing" textLength="63" x="765.5" y="120.7102">Description</text><line style="stroke:#A80036;stroke-width:1.5;" x1="737.5" x2="830.5" y1="131.8" y2="131.8"/><text fill="#000000" font-family="sans-serif" font-size="11" lengthAdjust="spacing" textLength="62" x="742.5" y="147.2189">String street;</text><text fill="#000000" font-family="sans-serif" font-size="11" lengthAdjust="spacing" textLength="51" x="742.5" y="161.0549">String city;</text><line style="stroke:#A80036;stroke-width:1.5;" x1="737.5" x2="830.5" y1="167.4719" y2="167.4719"/><!--MD5=[232882a74bb3d7ca169cfb1ce7c7ca46]
class Designation--><rect codeLine="36" fill="#FEFECE" filter="url(#fpzt27bdwj09t)" height="61.8359" id="Designation" style="stroke:#A80036;stroke-width:1.5;" width="99" x="602.5" y="106.8"/><ellipse cx="617.5" cy="122.8" fill="#ADD1B2" rx="11" ry="11" style="stroke:#A80036;stroke-width:1.0;"/><path d="M619.5,119.3 Q619.7031,118.8 619.9375,118.55 Q620.1719,118.3 620.4375,118.3 Q620.9063,118.3 621.2031,118.5813 Q621.5,118.8625 621.5,119.5188 L621.5,121.0813 Q621.5,121.7375 621.2188,122.0188 Q620.9375,122.3 620.5,122.3 Q620.1094,122.3 619.8594,122.1281 Q619.6094,121.9563 619.5,121.5031 Q619.4531,121.1906 619.2813,121.0188 Q618.9688,120.6906 618.4063,120.5031 Q617.8438,120.3 617.2813,120.3 Q616.5781,120.3 615.9844,120.5813 Q615.4063,120.8625 614.9531,121.4875 Q614.5,122.1125 614.5,122.9719 L614.5,123.8938 Q614.5,124.925 615.3438,125.6125 Q616.1875,126.3 617.6875,126.3 Q618.5781,126.3 619.2031,126.0969 Q619.5625,125.9875 619.9688,125.6281 Q620.2344,125.425 620.375,125.3625 Q620.5156,125.3 620.6875,125.3 Q621.0156,125.3 621.25,125.5656 Q621.5,125.8156 621.5,126.175 Q621.5,126.5188 621.1563,126.925 Q620.6563,127.5188 619.8594,127.8469 Q618.8125,128.3 617.5313,128.3 Q616.0313,128.3 614.8281,127.7063 Q613.8594,127.2375 613.1719,126.2219 Q612.5,125.2063 612.5,124.0031 L612.5,122.9094 Q612.5,121.6594 613.0938,120.5656 Q613.7031,119.4719 614.75,118.8938 Q615.8125,118.3 617,118.3 Q617.7188,118.3 618.3438,118.55 Q618.9688,118.8 619.5,119.3 Z " fill="#000000"/><text fill="#000000" font-family="sans-serif" font-size="12" lengthAdjust="spacing" textLength="67" x="631.5" y="127.7102">Designation</text><line style="stroke:#A80036;stroke-width:1.5;" x1="603.5" x2="700.5" y1="138.8" y2="138.8"/><text fill="#000000" font-family="sans-serif" font-size="11" lengthAdjust="spacing" textLength="71" x="608.5" y="154.2189">Date birthDate;</text><line style="stroke:#A80036;stroke-width:1.5;" x1="603.5" x2="700.5" y1="160.6359" y2="160.6359"/><!--MD5=[279cfd6e84c1c3de803c57619f09a4a2]
link RegisterCatalogueUI to RegisterCatalogueController--><path codeLine="40" d="M155.11,137.8 C164.97,137.8 174.84,137.8 184.71,137.8 " fill="none" id="RegisterCatalogueUI-to-RegisterCatalogueController" style="stroke:#A80036;stroke-width:1.0;"/><polygon fill="#A80036" points="189.87,137.8,180.87,133.8,184.87,137.8,180.87,141.8,189.87,137.8" style="stroke:#A80036;stroke-width:1.0;"/><!--MD5=[182d6825d6495fdc9c223590d39235eb]
link RegisterCatalogueController to Catalogue--><path codeLine="41" d="M380.36,137.8 C390.17,137.8 399.98,137.8 409.8,137.8 " fill="none" id="RegisterCatalogueController-to-Catalogue" style="stroke:#A80036;stroke-width:1.0;"/><polygon fill="#A80036" points="414.93,137.8,405.93,133.8,409.93,137.8,405.93,141.8,414.93,137.8" style="stroke:#A80036;stroke-width:1.0;"/><!--MD5=[912af357360847171a0fa7bba637ac54]
link Catalogue to Colaborator--><path codeLine="43" d="M532.14,86.06 C551.18,66.21 575.55,45.8 602.5,35.3 C677.66,6 888.23,12.13 965.5,35.3 C985.91,41.42 1006.12,51.19 1024.88,62.31 " fill="none" id="Catalogue-to-Colaborator" style="stroke:#A80036;stroke-width:1.0;"/><polygon fill="#A80036" points="1029.62,65.17,1023.9803,57.0957,1025.3388,62.587,1019.8475,63.9456,1029.62,65.17" style="stroke:#A80036;stroke-width:1.0;"/><!--MD5=[cbd2acec027d6e88880f61f90a78db05]
link Catalogue to CatalogueId--><path codeLine="44" d="M532.14,86.06 C551.18,66.21 575.55,45.8 602.5,35.3 C649.91,16.82 785.47,13.59 831.5,35.3 C860.76,49.1 883.32,78.55 897.75,102.36 " fill="none" id="Catalogue-to-CatalogueId" style="stroke:#A80036;stroke-width:1.0;"/><polygon fill="#A80036" points="900.34,106.73,899.1635,96.9517,897.7781,102.4362,892.2935,101.0508,900.34,106.73" style="stroke:#A80036;stroke-width:1.0;"/><!--MD5=[ecce3b1a64938565b9823a07066ba5a1]
link Catalogue to Description--><path codeLine="45" d="M532.14,86.06 C551.18,66.21 575.55,45.8 602.5,35.3 C643.5,19.32 661.81,16.3 701.5,35.3 C727.58,47.79 748.03,72.98 762.05,95.26 " fill="none" id="Catalogue-to-Description" style="stroke:#A80036;stroke-width:1.0;"/><polygon fill="#A80036" points="764.77,99.68,763.4452,89.9207,762.1431,95.4256,756.6382,94.1236,764.77,99.68" style="stroke:#A80036;stroke-width:1.0;"/><!--MD5=[948a99bedff0144b9864d96b4052a288]
link Catalogue to Designation--><path codeLine="46" d="M567.1,137.8 C577.08,137.8 587.06,137.8 597.03,137.8 " fill="none" id="Catalogue-to-Designation" style="stroke:#A80036;stroke-width:1.0;"/><polygon fill="#A80036" points="602.25,137.8,593.25,133.8,597.25,137.8,593.25,141.8,602.25,137.8" style="stroke:#A80036;stroke-width:1.0;"/><!--MD5=[829a7e952b40973f60ae5ec0024863d0]
@startuml
'https://plantuml.com/class-diagram

class RegisterCatalogueUI {
}

class RegisterCatalogueController {
registerCatalogue();
}

class Catalogue{
Colaborator respColaborator;
CatalogueId catalogueId;
Description shortDescription;
Designation catalogueTitle;
}

class Colaborator {
SystemUser user;
MecanographicNumber mecanographicNumber;
Name name;
Address address;
BirthDate birthDate;
Evaluation evaluation;
Contact contact;
}

class CatalogueId{
String number;
}

class Description{
String street;
String city;
}

class Designation{
Date birthDate;
}

RegisterCatalogueUI -> RegisterCatalogueController
RegisterCatalogueController -> Catalogue

Catalogue -> Colaborator
Catalogue -> CatalogueId
Catalogue -> Description
Catalogue -> Designation

@enduml

@startuml

class RegisterCatalogueUI {
}

class RegisterCatalogueController {
registerCatalogue();
}

class Catalogue{
Colaborator respColaborator;
CatalogueId catalogueId;
Description shortDescription;
Designation catalogueTitle;
}

class Colaborator {
SystemUser user;
MecanographicNumber mecanographicNumber;
Name name;
Address address;
BirthDate birthDate;
Evaluation evaluation;
Contact contact;
}

class CatalogueId{
String number;
}

class Description{
String street;
String city;
}

class Designation{
Date birthDate;
}

RegisterCatalogueUI -> RegisterCatalogueController
RegisterCatalogueController -> Catalogue

Catalogue -> Colaborator
Catalogue -> CatalogueId
Catalogue -> Description
Catalogue -> Designation

@enduml

PlantUML version 1.2021.5(Sun Apr 25 12:20:28 BST 2021)
(GPL source distribution)
Java Runtime: OpenJDK Runtime Environment
JVM: Dynamic Code Evolution 64-Bit Server VM
Default Encoding: Cp1252
Language: pt
Country: PT
--></g></svg>