<?xml version="1.0" encoding="UTF-8" standalone="no"?><svg xmlns="http://www.w3.org/2000/svg" xmlns:xlink="http://www.w3.org/1999/xlink" contentScriptType="application/ecmascript" contentStyleType="text/css" height="309px" preserveAspectRatio="none" style="width:463px;height:309px;background:#FFFFFF;" version="1.1" viewBox="0 0 463 309" width="463px" zoomAndPan="magnify"><defs><filter height="300%" id="fr8msw4g6kdz1" width="300%" x="-1" y="-1"><feGaussianBlur result="blurOut" stdDeviation="2.0"/><feColorMatrix in="blurOut" result="blurOut2" type="matrix" values="0 0 0 0 0 0 0 0 0 0 0 0 0 0 0 0 0 0 .4 0"/><feOffset dx="4.0" dy="4.0" in="blurOut2" result="blurOut3"/><feBlend in="SourceGraphic" in2="blurOut3" mode="normal"/></filter></defs><g><rect fill="#FFFFFF" filter="url(#fr8msw4g6kdz1)" height="117.5313" style="stroke:#A80036;stroke-width:1.0;" width="10" x="70" y="98.2969"/><rect fill="#FFFFFF" filter="url(#fr8msw4g6kdz1)" height="29.1328" style="stroke:#A80036;stroke-width:1.0;" width="10" x="412" y="119.4297"/><rect fill="#FFFFFF" filter="url(#fr8msw4g6kdz1)" height="29.1328" style="stroke:#A80036;stroke-width:1.0;" width="10" x="412" y="177.6953"/><line style="stroke:#A80036;stroke-width:1.0;stroke-dasharray:5.0,5.0;" x1="75" x2="75" y1="88.2969" y2="224.8281"/><line style="stroke:#A80036;stroke-width:1.0;stroke-dasharray:5.0,5.0;" x1="417" x2="417" y1="88.2969" y2="224.8281"/><text fill="#000000" font-family="sans-serif" font-size="14" lengthAdjust="spacing" textLength="134" x="5" y="84.9951">HelpDesk Manager</text><ellipse cx="75" cy="15" fill="#FEFECE" filter="url(#fr8msw4g6kdz1)" rx="8" ry="8" style="stroke:#A80036;stroke-width:2.0;"/><path d="M75,23 L75,50 M62,31 L88,31 M75,50 L62,65 M75,50 L88,65 " fill="none" filter="url(#fr8msw4g6kdz1)" style="stroke:#A80036;stroke-width:2.0;"/><text fill="#000000" font-family="sans-serif" font-size="14" lengthAdjust="spacing" textLength="134" x="5" y="236.8232">HelpDesk Manager</text><ellipse cx="75" cy="250.125" fill="#FEFECE" filter="url(#fr8msw4g6kdz1)" rx="8" ry="8" style="stroke:#A80036;stroke-width:2.0;"/><path d="M75,258.125 L75,285.125 M62,266.125 L88,266.125 M75,285.125 L62,300.125 M75,285.125 L88,300.125 " fill="none" filter="url(#fr8msw4g6kdz1)" style="stroke:#A80036;stroke-width:2.0;"/><rect fill="#FEFECE" filter="url(#fr8msw4g6kdz1)" height="30.2969" style="stroke:#A80036;stroke-width:1.5;" width="68" x="381" y="53"/><text fill="#000000" font-family="sans-serif" font-size="14" lengthAdjust="spacing" textLength="54" x="388" y="72.9951">System</text><rect fill="#FEFECE" filter="url(#fr8msw4g6kdz1)" height="30.2969" style="stroke:#A80036;stroke-width:1.5;" width="68" x="381" y="223.8281"/><text fill="#000000" font-family="sans-serif" font-size="14" lengthAdjust="spacing" textLength="54" x="388" y="243.8232">System</text><rect fill="#FFFFFF" filter="url(#fr8msw4g6kdz1)" height="117.5313" style="stroke:#A80036;stroke-width:1.0;" width="10" x="70" y="98.2969"/><rect fill="#FFFFFF" filter="url(#fr8msw4g6kdz1)" height="29.1328" style="stroke:#A80036;stroke-width:1.0;" width="10" x="412" y="119.4297"/><rect fill="#FFFFFF" filter="url(#fr8msw4g6kdz1)" height="29.1328" style="stroke:#A80036;stroke-width:1.0;" width="10" x="412" y="177.6953"/><polygon fill="#A80036" points="400,115.4297,410,119.4297,400,123.4297,404,119.4297" style="stroke:#A80036;stroke-width:1.0;"/><line style="stroke:#A80036;stroke-width:1.0;stroke-dasharray:2.0,2.0;" x1="80" x2="406" y1="119.4297" y2="119.4297"/><text fill="#000000" font-family="sans-serif" font-size="13" font-weight="bold" lengthAdjust="spacing" textLength="9" x="87" y="114.3638">1</text><text fill="#000000" font-family="sans-serif" font-size="13" lengthAdjust="spacing" textLength="134" x="100" y="114.3638">Register a Catalogue</text><polygon fill="#A80036" points="91,144.5625,81,148.5625,91,152.5625,87,148.5625" style="stroke:#A80036;stroke-width:1.0;"/><line style="stroke:#A80036;stroke-width:1.0;stroke-dasharray:2.0,2.0;" x1="85" x2="416" y1="148.5625" y2="148.5625"/><text fill="#000000" font-family="sans-serif" font-size="13" font-weight="bold" lengthAdjust="spacing" textLength="9" x="97" y="143.4966">2</text><text fill="#000000" font-family="sans-serif" font-size="13" lengthAdjust="spacing" textLength="295" x="110" y="143.4966">Requests necessary credentials for Catalogue</text><polygon fill="#A80036" points="400,173.6953,410,177.6953,400,181.6953,404,177.6953" style="stroke:#A80036;stroke-width:1.0;"/><line style="stroke:#A80036;stroke-width:1.0;stroke-dasharray:2.0,2.0;" x1="80" x2="406" y1="177.6953" y2="177.6953"/><text fill="#000000" font-family="sans-serif" font-size="13" font-weight="bold" lengthAdjust="spacing" textLength="8" x="87" y="172.6294">3</text><text fill="#000000" font-family="sans-serif" font-size="13" lengthAdjust="spacing" textLength="101" x="99" y="172.6294">Inserts the data</text><polygon fill="#A80036" points="91,202.8281,81,206.8281,91,210.8281,87,206.8281" style="stroke:#A80036;stroke-width:1.0;"/><line style="stroke:#A80036;stroke-width:1.0;stroke-dasharray:2.0,2.0;" x1="85" x2="416" y1="206.8281" y2="206.8281"/><text fill="#000000" font-family="sans-serif" font-size="13" font-weight="bold" lengthAdjust="spacing" textLength="9" x="97" y="201.7622">4</text><text fill="#000000" font-family="sans-serif" font-size="13" lengthAdjust="spacing" textLength="134" x="110" y="201.7622">displayCatalogueInfo</text><!--MD5=[1e3b5cdd62194e50e92cc92872d49013]
@startuml
autonumber

actor "HelpDesk Manager" as HDM
participant "System" as UI

activate HDM
HDM - -> UI : Register a Catalogue
activate UI
    UI - -> HDM : Requests necessary credentials for Catalogue
deactivate UI
HDM - -> UI : Inserts the data
activate UI
UI - -> HDM : displayCatalogueInfo
deactivate UI
@enduml

PlantUML version 1.2021.6beta6(Unknown compile time)
(GPL source distribution)
Java Runtime: Java(TM) SE Runtime Environment
JVM: Java HotSpot(TM) 64-Bit Server VM
Default Encoding: UTF-8
Language: en
Country: US
--></g></svg>