<?xml version="1.0" encoding="UTF-8" standalone="no"?><svg xmlns="http://www.w3.org/2000/svg" xmlns:xlink="http://www.w3.org/1999/xlink" contentScriptType="application/ecmascript" contentStyleType="text/css" height="943px" preserveAspectRatio="none" style="width:2249px;height:943px;background:#FFFFFF;" version="1.1" viewBox="0 0 2249 943" width="2249px" zoomAndPan="magnify"><defs><filter height="300%" id="f1sm7wa46n8uo3" width="300%" x="-1" y="-1"><feGaussianBlur result="blurOut" stdDeviation="2.0"/><feColorMatrix in="blurOut" result="blurOut2" type="matrix" values="0 0 0 0 0 0 0 0 0 0 0 0 0 0 0 0 0 0 .4 0"/><feOffset dx="4.0" dy="4.0" in="blurOut2" result="blurOut3"/><feBlend in="SourceGraphic" in2="blurOut3" mode="normal"/></filter></defs><g><rect fill="#FFFFFF" filter="url(#f1sm7wa46n8uo3)" height="58.2656" style="stroke:#A80036;stroke-width:1.0;" width="10" x="406" y="119.4297"/><rect fill="#FFFFFF" filter="url(#f1sm7wa46n8uo3)" height="634.6563" style="stroke:#A80036;stroke-width:1.0;" width="10" x="406" y="206.8281"/><rect fill="#FFFFFF" filter="url(#f1sm7wa46n8uo3)" height="561.2578" style="stroke:#A80036;stroke-width:1.0;" width="10" x="972" y="251.0938"/><rect fill="#FFFFFF" filter="url(#f1sm7wa46n8uo3)" height="30" style="stroke:#A80036;stroke-width:1.0;" width="10" x="1222" y="280.2266"/><rect fill="#FFFFFF" filter="url(#f1sm7wa46n8uo3)" height="30" style="stroke:#A80036;stroke-width:1.0;" width="10" x="1222" y="339.3594"/><rect fill="#FFFFFF" filter="url(#f1sm7wa46n8uo3)" height="102.5313" style="stroke:#A80036;stroke-width:1.0;" width="10" x="1222" y="437.625"/><rect fill="#FFFFFF" filter="url(#f1sm7wa46n8uo3)" height="97.3984" style="stroke:#A80036;stroke-width:1.0;" width="10" x="1828" y="569.2891"/><rect fill="#FFFFFF" filter="url(#f1sm7wa46n8uo3)" height="58.2656" style="stroke:#A80036;stroke-width:1.0;" width="10" x="1994" y="695.8203"/><line style="stroke:#A80036;stroke-width:1.0;stroke-dasharray:5.0,5.0;" x1="75" x2="75" y1="88.2969" y2="859.4844"/><line style="stroke:#A80036;stroke-width:1.0;stroke-dasharray:5.0,5.0;" x1="411" x2="411" y1="88.2969" y2="859.4844"/><line style="stroke:#A80036;stroke-width:1.0;stroke-dasharray:5.0,5.0;" x1="977" x2="977" y1="88.2969" y2="859.4844"/><line style="stroke:#A80036;stroke-width:1.0;stroke-dasharray:5.0,5.0;" x1="1227" x2="1227" y1="88.2969" y2="859.4844"/><line style="stroke:#A80036;stroke-width:1.0;stroke-dasharray:5.0,5.0;" x1="1658.5" x2="1658.5" y1="88.2969" y2="859.4844"/><line style="stroke:#A80036;stroke-width:1.0;stroke-dasharray:5.0,5.0;" x1="1832.5" x2="1832.5" y1="88.2969" y2="859.4844"/><line style="stroke:#A80036;stroke-width:1.0;stroke-dasharray:5.0,5.0;" x1="1998.5" x2="1998.5" y1="88.2969" y2="859.4844"/><line style="stroke:#A80036;stroke-width:1.0;stroke-dasharray:5.0,5.0;" x1="2162.5" x2="2162.5" y1="88.2969" y2="859.4844"/><text fill="#000000" font-family="sans-serif" font-size="14" lengthAdjust="spacing" textLength="134" x="5" y="84.9951">HelpDesk Manager</text><ellipse cx="75" cy="15" fill="#FEFECE" filter="url(#f1sm7wa46n8uo3)" rx="8" ry="8" style="stroke:#A80036;stroke-width:2.0;"/><path d="M75,23 L75,50 M62,31 L88,31 M75,50 L62,65 M75,50 L88,65 " fill="none" filter="url(#f1sm7wa46n8uo3)" style="stroke:#A80036;stroke-width:2.0;"/><text fill="#000000" font-family="sans-serif" font-size="14" lengthAdjust="spacing" textLength="134" x="5" y="871.4795">HelpDesk Manager</text><ellipse cx="75" cy="884.7813" fill="#FEFECE" filter="url(#f1sm7wa46n8uo3)" rx="8" ry="8" style="stroke:#A80036;stroke-width:2.0;"/><path d="M75,892.7813 L75,919.7813 M62,900.7813 L88,900.7813 M75,919.7813 L62,934.7813 M75,919.7813 L88,934.7813 " fill="none" filter="url(#f1sm7wa46n8uo3)" style="stroke:#A80036;stroke-width:2.0;"/><rect fill="#FEFECE" filter="url(#f1sm7wa46n8uo3)" height="30.2969" style="stroke:#A80036;stroke-width:1.5;" width="160" x="329" y="53"/><text fill="#000000" font-family="sans-serif" font-size="14" lengthAdjust="spacing" textLength="146" x="336" y="72.9951">RegisterCatalogueUI</text><rect fill="#FEFECE" filter="url(#f1sm7wa46n8uo3)" height="30.2969" style="stroke:#A80036;stroke-width:1.5;" width="160" x="329" y="858.4844"/><text fill="#000000" font-family="sans-serif" font-size="14" lengthAdjust="spacing" textLength="146" x="336" y="878.4795">RegisterCatalogueUI</text><rect fill="#FEFECE" filter="url(#f1sm7wa46n8uo3)" height="30.2969" style="stroke:#A80036;stroke-width:1.5;" width="220" x="865" y="53"/><text fill="#000000" font-family="sans-serif" font-size="14" lengthAdjust="spacing" textLength="206" x="872" y="72.9951">RegisterCatalogueController</text><rect fill="#FEFECE" filter="url(#f1sm7wa46n8uo3)" height="30.2969" style="stroke:#A80036;stroke-width:1.5;" width="220" x="865" y="858.4844"/><text fill="#000000" font-family="sans-serif" font-size="14" lengthAdjust="spacing" textLength="206" x="872" y="878.4795">RegisterCatalogueController</text><rect fill="#FEFECE" filter="url(#f1sm7wa46n8uo3)" height="30.2969" style="stroke:#A80036;stroke-width:1.5;" width="136" x="1157" y="53"/><text fill="#000000" font-family="sans-serif" font-size="14" lengthAdjust="spacing" textLength="122" x="1164" y="72.9951">CatalogueBuilder</text><rect fill="#FEFECE" filter="url(#f1sm7wa46n8uo3)" height="30.2969" style="stroke:#A80036;stroke-width:1.5;" width="136" x="1157" y="858.4844"/><text fill="#000000" font-family="sans-serif" font-size="14" lengthAdjust="spacing" textLength="122" x="1164" y="878.4795">CatalogueBuilder</text><rect fill="#FEFECE" filter="url(#f1sm7wa46n8uo3)" height="30.2969" style="stroke:#A80036;stroke-width:1.5;" width="163" x="1575.5" y="53"/><text fill="#000000" font-family="sans-serif" font-size="14" lengthAdjust="spacing" textLength="149" x="1582.5" y="72.9951">Catalogue:Catalogue</text><rect fill="#FEFECE" filter="url(#f1sm7wa46n8uo3)" height="30.2969" style="stroke:#A80036;stroke-width:1.5;" width="163" x="1575.5" y="858.4844"/><text fill="#000000" font-family="sans-serif" font-size="14" lengthAdjust="spacing" textLength="149" x="1582.5" y="878.4795">Catalogue:Catalogue</text><rect fill="#FEFECE" filter="url(#f1sm7wa46n8uo3)" height="30.2969" style="stroke:#A80036;stroke-width:1.5;" width="157" x="1752.5" y="53"/><text fill="#000000" font-family="sans-serif" font-size="14" lengthAdjust="spacing" textLength="143" x="1759.5" y="72.9951">PersistenceContext</text><rect fill="#FEFECE" filter="url(#f1sm7wa46n8uo3)" height="30.2969" style="stroke:#A80036;stroke-width:1.5;" width="157" x="1752.5" y="858.4844"/><text fill="#000000" font-family="sans-serif" font-size="14" lengthAdjust="spacing" textLength="143" x="1759.5" y="878.4795">PersistenceContext</text><rect fill="#FEFECE" filter="url(#f1sm7wa46n8uo3)" height="30.2969" style="stroke:#A80036;stroke-width:1.5;" width="147" x="1923.5" y="53"/><text fill="#000000" font-family="sans-serif" font-size="14" lengthAdjust="spacing" textLength="133" x="1930.5" y="72.9951">RepositoryFactory</text><rect fill="#FEFECE" filter="url(#f1sm7wa46n8uo3)" height="30.2969" style="stroke:#A80036;stroke-width:1.5;" width="147" x="1923.5" y="858.4844"/><text fill="#000000" font-family="sans-serif" font-size="14" lengthAdjust="spacing" textLength="133" x="1930.5" y="878.4795">RepositoryFactory</text><text fill="#000000" font-family="sans-serif" font-size="14" lengthAdjust="spacing" textLength="151" x="2084.5" y="84.9951">CatalogueRepository</text><path d="M2145,36 C2145,26 2163,26 2163,26 C2163,26 2181,26 2181,36 L2181,62 C2181,72 2163,72 2163,72 C2163,72 2145,72 2145,62 L2145,36 " fill="#FEFECE" filter="url(#f1sm7wa46n8uo3)" style="stroke:#000000;stroke-width:1.5;"/><path d="M2145,36 C2145,46 2163,46 2163,46 C2163,46 2181,46 2181,36 " fill="none" style="stroke:#000000;stroke-width:1.5;"/><text fill="#000000" font-family="sans-serif" font-size="14" lengthAdjust="spacing" textLength="151" x="2084.5" y="871.4795">CatalogueRepository</text><path d="M2145,884.7813 C2145,874.7813 2163,874.7813 2163,874.7813 C2163,874.7813 2181,874.7813 2181,884.7813 L2181,910.7813 C2181,920.7813 2163,920.7813 2163,920.7813 C2163,920.7813 2145,920.7813 2145,910.7813 L2145,884.7813 " fill="#FEFECE" filter="url(#f1sm7wa46n8uo3)" style="stroke:#000000;stroke-width:1.5;"/><path d="M2145,884.7813 C2145,894.7813 2163,894.7813 2163,894.7813 C2163,894.7813 2181,894.7813 2181,884.7813 " fill="none" style="stroke:#000000;stroke-width:1.5;"/><rect fill="#FFFFFF" filter="url(#f1sm7wa46n8uo3)" height="58.2656" style="stroke:#A80036;stroke-width:1.0;" width="10" x="406" y="119.4297"/><rect fill="#FFFFFF" filter="url(#f1sm7wa46n8uo3)" height="634.6563" style="stroke:#A80036;stroke-width:1.0;" width="10" x="406" y="206.8281"/><rect fill="#FFFFFF" filter="url(#f1sm7wa46n8uo3)" height="561.2578" style="stroke:#A80036;stroke-width:1.0;" width="10" x="972" y="251.0938"/><rect fill="#FFFFFF" filter="url(#f1sm7wa46n8uo3)" height="30" style="stroke:#A80036;stroke-width:1.0;" width="10" x="1222" y="280.2266"/><rect fill="#FFFFFF" filter="url(#f1sm7wa46n8uo3)" height="30" style="stroke:#A80036;stroke-width:1.0;" width="10" x="1222" y="339.3594"/><rect fill="#FFFFFF" filter="url(#f1sm7wa46n8uo3)" height="102.5313" style="stroke:#A80036;stroke-width:1.0;" width="10" x="1222" y="437.625"/><rect fill="#FFFFFF" filter="url(#f1sm7wa46n8uo3)" height="97.3984" style="stroke:#A80036;stroke-width:1.0;" width="10" x="1828" y="569.2891"/><rect fill="#FFFFFF" filter="url(#f1sm7wa46n8uo3)" height="58.2656" style="stroke:#A80036;stroke-width:1.0;" width="10" x="1994" y="695.8203"/><polygon fill="#A80036" points="394,115.4297,404,119.4297,394,123.4297,398,119.4297" style="stroke:#A80036;stroke-width:1.0;"/><line style="stroke:#A80036;stroke-width:1.0;stroke-dasharray:2.0,2.0;" x1="75" x2="400" y1="119.4297" y2="119.4297"/><text fill="#000000" font-family="sans-serif" font-size="13" font-weight="bold" lengthAdjust="spacing" textLength="9" x="82" y="114.3638">1</text><text fill="#000000" font-family="sans-serif" font-size="13" lengthAdjust="spacing" textLength="134" x="95" y="114.3638">Register a Catalogue</text><polygon fill="#A80036" points="965,144.5625,975,148.5625,965,152.5625,969,148.5625" style="stroke:#A80036;stroke-width:1.0;"/><line style="stroke:#A80036;stroke-width:1.0;" x1="416" x2="971" y1="148.5625" y2="148.5625"/><text fill="#000000" font-family="sans-serif" font-size="13" font-weight="bold" lengthAdjust="spacing" textLength="9" x="423" y="143.4966">2</text><text fill="#000000" font-family="sans-serif" font-size="13" lengthAdjust="spacing" textLength="41" x="436" y="143.4966">create</text><polygon fill="#A80036" points="86,173.6953,76,177.6953,86,181.6953,82,177.6953" style="stroke:#A80036;stroke-width:1.0;"/><line style="stroke:#A80036;stroke-width:1.0;stroke-dasharray:2.0,2.0;" x1="80" x2="410" y1="177.6953" y2="177.6953"/><text fill="#000000" font-family="sans-serif" font-size="13" font-weight="bold" lengthAdjust="spacing" textLength="8" x="92" y="172.6294">3</text><text fill="#000000" font-family="sans-serif" font-size="13" lengthAdjust="spacing" textLength="295" x="104" y="172.6294">Requests necessary credentials for Catalogue</text><polygon fill="#A80036" points="394,202.8281,404,206.8281,394,210.8281,398,206.8281" style="stroke:#A80036;stroke-width:1.0;"/><line style="stroke:#A80036;stroke-width:1.0;stroke-dasharray:2.0,2.0;" x1="75" x2="400" y1="206.8281" y2="206.8281"/><text fill="#000000" font-family="sans-serif" font-size="13" font-weight="bold" lengthAdjust="spacing" textLength="9" x="82" y="201.7622">4</text><text fill="#000000" font-family="sans-serif" font-size="13" lengthAdjust="spacing" textLength="101" x="95" y="201.7622">Inserts the data</text><polygon fill="#A80036" points="960,247.0938,970,251.0938,960,255.0938,964,251.0938" style="stroke:#A80036;stroke-width:1.0;"/><line style="stroke:#A80036;stroke-width:1.0;" x1="416" x2="966" y1="251.0938" y2="251.0938"/><text fill="#000000" font-family="sans-serif" font-size="13" font-weight="bold" lengthAdjust="spacing" textLength="9" x="423" y="238.4614">5</text><text fill="#000000" font-family="sans-serif" font-size="13" lengthAdjust="spacing" textLength="524" x="436" y="230.895">Catalogue = newCatalogue(Colaborator respColaborator,CatalogueId catalogueId,</text><text fill="#000000" font-family="sans-serif" font-size="13" lengthAdjust="spacing" textLength="360" x="436" y="246.0278">Description shortDescription,Designation catalogueTitle)</text><polygon fill="#A80036" points="1210,276.2266,1220,280.2266,1210,284.2266,1214,280.2266" style="stroke:#A80036;stroke-width:1.0;"/><line style="stroke:#A80036;stroke-width:1.0;" x1="982" x2="1216" y1="280.2266" y2="280.2266"/><text fill="#000000" font-family="sans-serif" font-size="13" font-weight="bold" lengthAdjust="spacing" textLength="9" x="989" y="275.1606">6</text><text fill="#000000" font-family="sans-serif" font-size="13" lengthAdjust="spacing" textLength="41" x="1002" y="275.1606">create</text><polygon fill="#A80036" points="1210,335.3594,1220,339.3594,1210,343.3594,1214,339.3594" style="stroke:#A80036;stroke-width:1.0;"/><line style="stroke:#A80036;stroke-width:1.0;" x1="982" x2="1216" y1="339.3594" y2="339.3594"/><text fill="#000000" font-family="sans-serif" font-size="13" font-weight="bold" lengthAdjust="spacing" textLength="9" x="989" y="334.2935">7</text><text fill="#000000" font-family="sans-serif" font-size="13" lengthAdjust="spacing" textLength="208" x="1002" y="334.2935">setColaborator(respColaborator)</text><path d="M888,382.3594 L888,407.3594 L1315,407.3594 L1315,392.3594 L1305,382.3594 L888,382.3594 " fill="#FBFB77" filter="url(#f1sm7wa46n8uo3)" style="stroke:#A80036;stroke-width:1.0;"/><path d="M1305,382.3594 L1305,392.3594 L1315,392.3594 L1305,382.3594 " fill="#FBFB77" style="stroke:#A80036;stroke-width:1.0;"/><text fill="#000000" font-family="sans-serif" font-size="13" lengthAdjust="spacing" textLength="202" x="994" y="399.4263">Sets the rest of the information</text><polygon fill="#A80036" points="1210,433.625,1220,437.625,1210,441.625,1214,437.625" style="stroke:#A80036;stroke-width:1.0;"/><line style="stroke:#A80036;stroke-width:1.0;" x1="982" x2="1216" y1="437.625" y2="437.625"/><text fill="#000000" font-family="sans-serif" font-size="13" font-weight="bold" lengthAdjust="spacing" textLength="9" x="989" y="432.5591">8</text><text fill="#000000" font-family="sans-serif" font-size="13" lengthAdjust="spacing" textLength="116" x="1002" y="432.5591">createCatalogue()</text><polygon fill="#A80036" points="1647,477.8906,1657,481.8906,1647,485.8906,1651,481.8906" style="stroke:#A80036;stroke-width:1.0;"/><line style="stroke:#A80036;stroke-width:1.0;" x1="1232" x2="1653" y1="481.8906" y2="481.8906"/><text fill="#000000" font-family="sans-serif" font-size="13" font-weight="bold" lengthAdjust="spacing" textLength="9" x="1239" y="469.2583">9</text><text fill="#000000" font-family="sans-serif" font-size="13" lengthAdjust="spacing" textLength="390" x="1252" y="461.6919">create(Colaborator respColaborator,CatalogueId catalogueId,</text><text fill="#000000" font-family="sans-serif" font-size="13" lengthAdjust="spacing" textLength="360" x="1252" y="476.8247">Description shortDescription,Designation catalogueTitle)</text><polygon fill="#A80036" points="1243,507.0234,1233,511.0234,1243,515.0234,1239,511.0234" style="stroke:#A80036;stroke-width:1.0;"/><line style="stroke:#A80036;stroke-width:1.0;" x1="1237" x2="1658" y1="511.0234" y2="511.0234"/><text fill="#000000" font-family="sans-serif" font-size="13" font-weight="bold" lengthAdjust="spacing" textLength="19" x="1249" y="505.9575">10</text><text fill="#000000" font-family="sans-serif" font-size="13" lengthAdjust="spacing" textLength="65" x="1272" y="505.9575">Catalogue</text><polygon fill="#A80036" points="993,536.1563,983,540.1563,993,544.1563,989,540.1563" style="stroke:#A80036;stroke-width:1.0;"/><line style="stroke:#A80036;stroke-width:1.0;" x1="987" x2="1226" y1="540.1563" y2="540.1563"/><text fill="#000000" font-family="sans-serif" font-size="13" font-weight="bold" lengthAdjust="spacing" textLength="18" x="999" y="535.0903">11</text><text fill="#000000" font-family="sans-serif" font-size="13" lengthAdjust="spacing" textLength="65" x="1021" y="535.0903">Catalogue</text><polygon fill="#A80036" points="1816,565.2891,1826,569.2891,1816,573.2891,1820,569.2891" style="stroke:#A80036;stroke-width:1.0;"/><line style="stroke:#A80036;stroke-width:1.0;" x1="982" x2="1822" y1="569.2891" y2="569.2891"/><text fill="#000000" font-family="sans-serif" font-size="13" font-weight="bold" lengthAdjust="spacing" textLength="18" x="989" y="564.2231">12</text><text fill="#000000" font-family="sans-serif" font-size="13" lengthAdjust="spacing" textLength="0" x="1015" y="564.2231"/><path d="M1756,582.2891 L1756,607.2891 L2240,607.2891 L2240,592.2891 L2230,582.2891 L1756,582.2891 " fill="#FBFB77" filter="url(#f1sm7wa46n8uo3)" style="stroke:#A80036;stroke-width:1.0;"/><path d="M2230,582.2891 L2230,592.2891 L2240,592.2891 L2230,582.2891 " fill="#FBFB77" style="stroke:#A80036;stroke-width:1.0;"/><text fill="#000000" font-family="sans-serif" font-size="13" lengthAdjust="spacing" textLength="273" x="1855" y="599.356">can create an repository in memory or JPA</text><polygon fill="#A80036" points="1987,633.5547,1997,637.5547,1987,641.5547,1991,637.5547" style="stroke:#A80036;stroke-width:1.0;"/><line style="stroke:#A80036;stroke-width:1.0;" x1="1838" x2="1993" y1="637.5547" y2="637.5547"/><text fill="#000000" font-family="sans-serif" font-size="13" font-weight="bold" lengthAdjust="spacing" textLength="17" x="1845" y="632.4888">13</text><text fill="#000000" font-family="sans-serif" font-size="13" lengthAdjust="spacing" textLength="41" x="1866" y="632.4888">create</text><polygon fill="#A80036" points="993,662.6875,983,666.6875,993,670.6875,989,666.6875" style="stroke:#A80036;stroke-width:1.0;"/><line style="stroke:#A80036;stroke-width:1.0;" x1="987" x2="1832" y1="666.6875" y2="666.6875"/><text fill="#000000" font-family="sans-serif" font-size="13" font-weight="bold" lengthAdjust="spacing" textLength="18" x="999" y="661.6216">14</text><text fill="#000000" font-family="sans-serif" font-size="13" lengthAdjust="spacing" textLength="46" x="1021" y="661.6216">factory</text><polygon fill="#A80036" points="1982,691.8203,1992,695.8203,1982,699.8203,1986,695.8203" style="stroke:#A80036;stroke-width:1.0;"/><line style="stroke:#A80036;stroke-width:1.0;" x1="982" x2="1988" y1="695.8203" y2="695.8203"/><text fill="#000000" font-family="sans-serif" font-size="13" font-weight="bold" lengthAdjust="spacing" textLength="18" x="989" y="690.7544">15</text><text fill="#000000" font-family="sans-serif" font-size="13" lengthAdjust="spacing" textLength="82" x="1011" y="690.7544">Catalogues()</text><polygon fill="#A80036" points="2151,720.9531,2161,724.9531,2151,728.9531,2155,724.9531" style="stroke:#A80036;stroke-width:1.0;"/><line style="stroke:#A80036;stroke-width:1.0;" x1="2004" x2="2157" y1="724.9531" y2="724.9531"/><text fill="#000000" font-family="sans-serif" font-size="13" font-weight="bold" lengthAdjust="spacing" textLength="18" x="2011" y="719.8872">16</text><text fill="#000000" font-family="sans-serif" font-size="13" lengthAdjust="spacing" textLength="41" x="2033" y="719.8872">create</text><polygon fill="#A80036" points="993,750.0859,983,754.0859,993,758.0859,989,754.0859" style="stroke:#A80036;stroke-width:1.0;"/><line style="stroke:#A80036;stroke-width:1.0;" x1="987" x2="1998" y1="754.0859" y2="754.0859"/><text fill="#000000" font-family="sans-serif" font-size="13" font-weight="bold" lengthAdjust="spacing" textLength="18" x="999" y="749.02">17</text><text fill="#000000" font-family="sans-serif" font-size="13" lengthAdjust="spacing" textLength="144" x="1021" y="749.02">CatalogueRepository()</text><polygon fill="#A80036" points="2151,779.2188,2161,783.2188,2151,787.2188,2155,783.2188" style="stroke:#A80036;stroke-width:1.0;"/><line style="stroke:#A80036;stroke-width:1.0;" x1="982" x2="2157" y1="783.2188" y2="783.2188"/><text fill="#000000" font-family="sans-serif" font-size="13" font-weight="bold" lengthAdjust="spacing" textLength="18" x="989" y="778.1528">18</text><text fill="#000000" font-family="sans-serif" font-size="13" lengthAdjust="spacing" textLength="106" x="1011" y="778.1528">save(Catalogue)</text><polygon fill="#A80036" points="427,808.3516,417,812.3516,427,816.3516,423,812.3516" style="stroke:#A80036;stroke-width:1.0;"/><line style="stroke:#A80036;stroke-width:1.0;" x1="421" x2="976" y1="812.3516" y2="812.3516"/><text fill="#000000" font-family="sans-serif" font-size="13" font-weight="bold" lengthAdjust="spacing" textLength="18" x="433" y="807.2856">19</text><text fill="#000000" font-family="sans-serif" font-size="13" lengthAdjust="spacing" textLength="65" x="455" y="807.2856">Catalogue</text><polygon fill="#A80036" points="86,837.4844,76,841.4844,86,845.4844,82,841.4844" style="stroke:#A80036;stroke-width:1.0;"/><line style="stroke:#A80036;stroke-width:1.0;stroke-dasharray:2.0,2.0;" x1="80" x2="410" y1="841.4844" y2="841.4844"/><text fill="#000000" font-family="sans-serif" font-size="13" font-weight="bold" lengthAdjust="spacing" textLength="19" x="92" y="836.4185">20</text><text fill="#000000" font-family="sans-serif" font-size="13" lengthAdjust="spacing" textLength="134" x="115" y="836.4185">displayCatalogueInfo</text><!--MD5=[d144a1291a29db958d1847eb18bdf131]
@startuml
autonumber

actor "HelpDesk Manager" as HDM

participant "RegisterCatalogueUI" as UI
participant "RegisterCatalogueController" as CTRL
participant "CatalogueBuilder" as CB
participant "Catalogue:Catalogue" as CC
participant "PersistenceContext" as PC
participant "RepositoryFactory" as RF


database "CatalogueRepository" as CR

HDM - -> UI : Register a Catalogue
activate UI
    UI -> CTRL : create
    UI - -> HDM : Requests necessary credentials for Catalogue
deactivate UI

HDM - -> UI : Inserts the data
activate UI
    UI -> CTRL : Catalogue = newCatalogue(Colaborator respColaborator,CatalogueId catalogueId,\nDescription shortDescription,Designation catalogueTitle)
    activate CTRL
        CTRL -> CB: create
        activate CB
        deactivate CB

        CTRL -> CB: setColaborator(respColaborator)
        activate CB
        deactivate CB

note over CTRL, CB : Sets the rest of the information


        CTRL -> CB: createCatalogue()
        activate CB
                CB -> CC: create(Colaborator respColaborator,CatalogueId catalogueId,\nDescription shortDescription,Designation catalogueTitle)
                CC -> CB: Catalogue
                CB -> CTRL: Catalogue
        deactivate CB

        CTRL -> PC:
        activate PC
        note over PC, CR : can create an repository in memory or JPA
         PC->RF: create
         PC->CTRL: factory

        deactivate PC

        CTRL->RF:Catalogues()
        activate RF
        RF->CR:create
        RF->CTRL:CatalogueRepository()
        deactivate RF

        CTRL->CR:save(Catalogue)

        CTRL->UI:Catalogue
    deactivate CTRL

    UI - -> HDM : displayCatalogueInfo
deactivate UI
@enduml

PlantUML version 1.2021.6beta6(Unknown compile time)
(GPL source distribution)
Java Runtime: Java(TM) SE Runtime Environment
JVM: Java HotSpot(TM) 64-Bit Server VM
Default Encoding: UTF-8
Language: en
Country: US
--></g></svg>