<?xml version="1.0" encoding="UTF-8" standalone="no"?><svg xmlns="http://www.w3.org/2000/svg" xmlns:xlink="http://www.w3.org/1999/xlink" contentScriptType="application/ecmascript" contentStyleType="text/css" height="316px" preserveAspectRatio="none" style="width:403px;height:316px;" version="1.1" viewBox="0 0 403 316" width="403px" zoomAndPan="magnify"><defs><filter height="300%" id="f6wie06efo7pg" width="300%" x="-1" y="-1"><feGaussianBlur result="blurOut" stdDeviation="2.0"/><feColorMatrix in="blurOut" result="blurOut2" type="matrix" values="0 0 0 0 0 0 0 0 0 0 0 0 0 0 0 0 0 0 .4 0"/><feOffset dx="4.0" dy="4.0" in="blurOut2" result="blurOut3"/><feBlend in="SourceGraphic" in2="blurOut3" mode="normal"/></filter></defs><g><rect fill="#FFFFFF" filter="url(#f6wie06efo7pg)" height="122.4063" style="stroke:#A80036;stroke-width:1.0;" width="10" x="63" y="99.6094"/><rect fill="#FFFFFF" filter="url(#f6wie06efo7pg)" height="30.3516" style="stroke:#A80036;stroke-width:1.0;" width="10" x="356" y="121.9609"/><rect fill="#FFFFFF" filter="url(#f6wie06efo7pg)" height="30.3516" style="stroke:#A80036;stroke-width:1.0;" width="10" x="356" y="182.6641"/><line style="stroke:#A80036;stroke-width:1.0;stroke-dasharray:5.0,5.0;" x1="68" x2="68" y1="89.6094" y2="231.0156"/><line style="stroke:#A80036;stroke-width:1.0;stroke-dasharray:5.0,5.0;" x1="361" x2="361" y1="89.6094" y2="231.0156"/><text fill="#000000" font-family="sans-serif" font-size="14" lengthAdjust="spacing" textLength="120" x="5" y="86.5332">HelpDesk Manager</text><ellipse cx="68" cy="15" fill="#FEFECE" filter="url(#f6wie06efo7pg)" rx="8" ry="8" style="stroke:#A80036;stroke-width:2.0;"/><path d="M68,23 L68,50 M55,31 L81,31 M68,50 L55,65 M68,50 L81,65 " fill="none" filter="url(#f6wie06efo7pg)" style="stroke:#A80036;stroke-width:2.0;"/><text fill="#000000" font-family="sans-serif" font-size="14" lengthAdjust="spacing" textLength="120" x="5" y="244.5488">HelpDesk Manager</text><ellipse cx="68" cy="257.625" fill="#FEFECE" filter="url(#f6wie06efo7pg)" rx="8" ry="8" style="stroke:#A80036;stroke-width:2.0;"/><path d="M68,265.625 L68,292.625 M55,273.625 L81,273.625 M68,292.625 L55,307.625 M68,292.625 L81,307.625 " fill="none" filter="url(#f6wie06efo7pg)" style="stroke:#A80036;stroke-width:2.0;"/><rect fill="#FEFECE" filter="url(#f6wie06efo7pg)" height="31.6094" style="stroke:#A80036;stroke-width:1.5;" width="60" x="329" y="53"/><text fill="#000000" font-family="sans-serif" font-size="14" lengthAdjust="spacing" textLength="46" x="336" y="74.5332">System</text><rect fill="#FEFECE" filter="url(#f6wie06efo7pg)" height="31.6094" style="stroke:#A80036;stroke-width:1.5;" width="60" x="329" y="230.0156"/><text fill="#000000" font-family="sans-serif" font-size="14" lengthAdjust="spacing" textLength="46" x="336" y="251.5488">System</text><rect fill="#FFFFFF" filter="url(#f6wie06efo7pg)" height="122.4063" style="stroke:#A80036;stroke-width:1.0;" width="10" x="63" y="99.6094"/><rect fill="#FFFFFF" filter="url(#f6wie06efo7pg)" height="30.3516" style="stroke:#A80036;stroke-width:1.0;" width="10" x="356" y="121.9609"/><rect fill="#FFFFFF" filter="url(#f6wie06efo7pg)" height="30.3516" style="stroke:#A80036;stroke-width:1.0;" width="10" x="356" y="182.6641"/><polygon fill="#A80036" points="344,117.9609,354,121.9609,344,125.9609,348,121.9609" style="stroke:#A80036;stroke-width:1.0;"/><line style="stroke:#A80036;stroke-width:1.0;stroke-dasharray:2.0,2.0;" x1="73" x2="350" y1="121.9609" y2="121.9609"/><text fill="#000000" font-family="sans-serif" font-size="13" font-weight="bold" lengthAdjust="spacing" textLength="7" x="80" y="117.1045">1</text><text fill="#000000" font-family="sans-serif" font-size="13" lengthAdjust="spacing" textLength="82" x="91" y="117.1045">Create a team</text><polygon fill="#A80036" points="84,148.3125,74,152.3125,84,156.3125,80,152.3125" style="stroke:#A80036;stroke-width:1.0;"/><line style="stroke:#A80036;stroke-width:1.0;stroke-dasharray:2.0,2.0;" x1="78" x2="360" y1="152.3125" y2="152.3125"/><text fill="#000000" font-family="sans-serif" font-size="13" font-weight="bold" lengthAdjust="spacing" textLength="7" x="90" y="147.4561">2</text><text fill="#000000" font-family="sans-serif" font-size="13" lengthAdjust="spacing" textLength="248" x="101" y="147.4561">Requests necessary credentials for a team</text><polygon fill="#A80036" points="344,178.6641,354,182.6641,344,186.6641,348,182.6641" style="stroke:#A80036;stroke-width:1.0;"/><line style="stroke:#A80036;stroke-width:1.0;stroke-dasharray:2.0,2.0;" x1="73" x2="350" y1="182.6641" y2="182.6641"/><text fill="#000000" font-family="sans-serif" font-size="13" font-weight="bold" lengthAdjust="spacing" textLength="7" x="80" y="177.8076">3</text><text fill="#000000" font-family="sans-serif" font-size="13" lengthAdjust="spacing" textLength="90" x="91" y="177.8076">Inserts the data</text><polygon fill="#A80036" points="84,209.0156,74,213.0156,84,217.0156,80,213.0156" style="stroke:#A80036;stroke-width:1.0;"/><line style="stroke:#A80036;stroke-width:1.0;stroke-dasharray:2.0,2.0;" x1="78" x2="360" y1="213.0156" y2="213.0156"/><text fill="#000000" font-family="sans-serif" font-size="13" font-weight="bold" lengthAdjust="spacing" textLength="7" x="90" y="208.1592">4</text><text fill="#000000" font-family="sans-serif" font-size="13" lengthAdjust="spacing" textLength="93" x="101" y="208.1592">displayTeamInfo</text><!--MD5=[9bd3118e99aba6e98636e00930475514]
@startuml
autonumber

actor "HelpDesk Manager" as HDM
participant "System" as UI

activate HDM
HDM - -> UI : Create a team
activate UI
    UI - -> HDM : Requests necessary credentials for a team
deactivate UI
HDM - -> UI : Inserts the data
activate UI
UI - -> HDM : displayTeamInfo
deactivate UI

@enduml

PlantUML version 1.2021.5(Sun Apr 25 12:20:28 BST 2021)
(GPL source distribution)
Java Runtime: OpenJDK Runtime Environment
JVM: Dynamic Code Evolution 64-Bit Server VM
Default Encoding: Cp1252
Language: pt
Country: PT
--></g></svg>