<?xml version="1.0" encoding="UTF-8" standalone="no"?><svg xmlns="http://www.w3.org/2000/svg" xmlns:xlink="http://www.w3.org/1999/xlink" contentScriptType="application/ecmascript" contentStyleType="text/css" height="198px" preserveAspectRatio="none" style="width:1131px;height:198px;" version="1.1" viewBox="0 0 1131 198" width="1131px" zoomAndPan="magnify"><defs><filter height="300%" id="flkdzf6lc0p5x" width="300%" x="-1" y="-1"><feGaussianBlur result="blurOut" stdDeviation="2.0"/><feColorMatrix in="blurOut" result="blurOut2" type="matrix" values="0 0 0 0 0 0 0 0 0 0 0 0 0 0 0 0 0 0 .4 0"/><feOffset dx="4.0" dy="4.0" in="blurOut2" result="blurOut3"/><feBlend in="SourceGraphic" in2="blurOut3" mode="normal"/></filter></defs><g><!--MD5=[2a6f36e83aa7ed751a7c0d026fc1e463]
class RegisterServiceUI--><rect codeLine="3" fill="#FEFECE" filter="url(#flkdzf6lc0p5x)" height="48" id="RegisterServiceUI" style="stroke:#A80036;stroke-width:1.5;" width="131" x="7" y="108.24"/><ellipse cx="22" cy="124.24" fill="#ADD1B2" rx="11" ry="11" style="stroke:#A80036;stroke-width:1.0;"/><path d="M24,120.74 Q24.2031,120.24 24.4375,119.99 Q24.6719,119.74 24.9375,119.74 Q25.4063,119.74 25.7031,120.0213 Q26,120.3025 26,120.9588 L26,122.5213 Q26,123.1775 25.7188,123.4588 Q25.4375,123.74 25,123.74 Q24.6094,123.74 24.3594,123.5681 Q24.1094,123.3963 24,122.9431 Q23.9531,122.6306 23.7813,122.4588 Q23.4688,122.1306 22.9063,121.9431 Q22.3438,121.74 21.7813,121.74 Q21.0781,121.74 20.4844,122.0213 Q19.9063,122.3025 19.4531,122.9275 Q19,123.5525 19,124.4119 L19,125.3338 Q19,126.365 19.8438,127.0525 Q20.6875,127.74 22.1875,127.74 Q23.0781,127.74 23.7031,127.5369 Q24.0625,127.4275 24.4688,127.0681 Q24.7344,126.865 24.875,126.8025 Q25.0156,126.74 25.1875,126.74 Q25.5156,126.74 25.75,127.0056 Q26,127.2556 26,127.615 Q26,127.9588 25.6563,128.365 Q25.1563,128.9588 24.3594,129.2869 Q23.3125,129.74 22.0313,129.74 Q20.5313,129.74 19.3281,129.1463 Q18.3594,128.6775 17.6719,127.6619 Q17,126.6463 17,125.4431 L17,124.3494 Q17,123.0994 17.5938,122.0056 Q18.2031,120.9119 19.25,120.3338 Q20.3125,119.74 21.5,119.74 Q22.2188,119.74 22.8438,119.99 Q23.4688,120.24 24,120.74 Z " fill="#000000"/><text fill="#000000" font-family="sans-serif" font-size="12" lengthAdjust="spacing" textLength="99" x="36" y="129.1502">RegisterServiceUI</text><line style="stroke:#A80036;stroke-width:1.5;" x1="8" x2="137" y1="140.24" y2="140.24"/><line style="stroke:#A80036;stroke-width:1.5;" x1="8" x2="137" y1="148.24" y2="148.24"/><!--MD5=[772c01ae3cca207a6315917610cbd58f]
class RegisterServiceController--><rect codeLine="6" fill="#FEFECE" filter="url(#flkdzf6lc0p5x)" height="61.8359" id="RegisterServiceController" style="stroke:#A80036;stroke-width:1.5;" width="173" x="173" y="101.24"/><ellipse cx="188" cy="117.24" fill="#ADD1B2" rx="11" ry="11" style="stroke:#A80036;stroke-width:1.0;"/><path d="M190,113.74 Q190.2031,113.24 190.4375,112.99 Q190.6719,112.74 190.9375,112.74 Q191.4063,112.74 191.7031,113.0213 Q192,113.3025 192,113.9588 L192,115.5213 Q192,116.1775 191.7188,116.4588 Q191.4375,116.74 191,116.74 Q190.6094,116.74 190.3594,116.5681 Q190.1094,116.3963 190,115.9431 Q189.9531,115.6306 189.7813,115.4588 Q189.4688,115.1306 188.9063,114.9431 Q188.3438,114.74 187.7813,114.74 Q187.0781,114.74 186.4844,115.0213 Q185.9063,115.3025 185.4531,115.9275 Q185,116.5525 185,117.4119 L185,118.3338 Q185,119.365 185.8438,120.0525 Q186.6875,120.74 188.1875,120.74 Q189.0781,120.74 189.7031,120.5369 Q190.0625,120.4275 190.4688,120.0681 Q190.7344,119.865 190.875,119.8025 Q191.0156,119.74 191.1875,119.74 Q191.5156,119.74 191.75,120.0056 Q192,120.2556 192,120.615 Q192,120.9588 191.6563,121.365 Q191.1563,121.9588 190.3594,122.2869 Q189.3125,122.74 188.0313,122.74 Q186.5313,122.74 185.3281,122.1463 Q184.3594,121.6775 183.6719,120.6619 Q183,119.6463 183,118.4431 L183,117.3494 Q183,116.0994 183.5938,115.0056 Q184.2031,113.9119 185.25,113.3338 Q186.3125,112.74 187.5,112.74 Q188.2188,112.74 188.8438,112.99 Q189.4688,113.24 190,113.74 Z " fill="#000000"/><text fill="#000000" font-family="sans-serif" font-size="12" lengthAdjust="spacing" textLength="141" x="202" y="122.1502">RegisterServiceController</text><line style="stroke:#A80036;stroke-width:1.5;" x1="174" x2="345" y1="133.24" y2="133.24"/><line style="stroke:#A80036;stroke-width:1.5;" x1="174" x2="345" y1="141.24" y2="141.24"/><text fill="#000000" font-family="sans-serif" font-size="11" lengthAdjust="spacing" textLength="85" x="179" y="156.6589">registerService();</text><!--MD5=[dbb8b4f13c7b21394f9d757e58732f45]
class Service--><rect codeLine="10" fill="#FEFECE" filter="url(#flkdzf6lc0p5x)" height="103.3438" id="Service" style="stroke:#A80036;stroke-width:1.5;" width="168" x="381.5" y="80.74"/><ellipse cx="441.25" cy="96.74" fill="#ADD1B2" rx="11" ry="11" style="stroke:#A80036;stroke-width:1.0;"/><path d="M443.25,93.24 Q443.4531,92.74 443.6875,92.49 Q443.9219,92.24 444.1875,92.24 Q444.6563,92.24 444.9531,92.5213 Q445.25,92.8025 445.25,93.4588 L445.25,95.0213 Q445.25,95.6775 444.9688,95.9588 Q444.6875,96.24 444.25,96.24 Q443.8594,96.24 443.6094,96.0681 Q443.3594,95.8963 443.25,95.4431 Q443.2031,95.1306 443.0313,94.9588 Q442.7188,94.6306 442.1563,94.4431 Q441.5938,94.24 441.0313,94.24 Q440.3281,94.24 439.7344,94.5213 Q439.1563,94.8025 438.7031,95.4275 Q438.25,96.0525 438.25,96.9119 L438.25,97.8338 Q438.25,98.865 439.0938,99.5525 Q439.9375,100.24 441.4375,100.24 Q442.3281,100.24 442.9531,100.0369 Q443.3125,99.9275 443.7188,99.5681 Q443.9844,99.365 444.125,99.3025 Q444.2656,99.24 444.4375,99.24 Q444.7656,99.24 445,99.5056 Q445.25,99.7556 445.25,100.115 Q445.25,100.4588 444.9063,100.865 Q444.4063,101.4588 443.6094,101.7869 Q442.5625,102.24 441.2813,102.24 Q439.7813,102.24 438.5781,101.6463 Q437.6094,101.1775 436.9219,100.1619 Q436.25,99.1463 436.25,97.9431 L436.25,96.8494 Q436.25,95.5994 436.8438,94.5056 Q437.4531,93.4119 438.5,92.8338 Q439.5625,92.24 440.75,92.24 Q441.4688,92.24 442.0938,92.49 Q442.7188,92.74 443.25,93.24 Z " fill="#000000"/><text fill="#000000" font-family="sans-serif" font-size="12" lengthAdjust="spacing" textLength="40" x="461.75" y="101.6502">Service</text><line style="stroke:#A80036;stroke-width:1.5;" x1="382.5" x2="548.5" y1="112.74" y2="112.74"/><text fill="#000000" font-family="sans-serif" font-size="11" lengthAdjust="spacing" textLength="98" x="387.5" y="128.1589">ServiceCode scode;</text><text fill="#000000" font-family="sans-serif" font-size="11" lengthAdjust="spacing" textLength="84" x="387.5" y="141.9949">ServiceTitle stitle;</text><text fill="#000000" font-family="sans-serif" font-size="11" lengthAdjust="spacing" textLength="89" x="387.5" y="155.8308">ServiceIcon sicon;</text><text fill="#000000" font-family="sans-serif" font-size="11" lengthAdjust="spacing" textLength="156" x="387.5" y="169.6668">ServiceDescription sdescription;</text><line style="stroke:#A80036;stroke-width:1.5;" x1="382.5" x2="548.5" y1="176.0838" y2="176.0838"/><!--MD5=[93e82380fb1d97cd0c7fd02c1de131b4]
class ServiceCode--><rect codeLine="17" fill="#FEFECE" filter="url(#flkdzf6lc0p5x)" height="48" id="ServiceCode" style="stroke:#A80036;stroke-width:1.5;" width="102" x="1015.5" y="108.24"/><ellipse cx="1030.5" cy="124.24" fill="#ADD1B2" rx="11" ry="11" style="stroke:#A80036;stroke-width:1.0;"/><path d="M1032.5,120.74 Q1032.7031,120.24 1032.9375,119.99 Q1033.1719,119.74 1033.4375,119.74 Q1033.9063,119.74 1034.2031,120.0213 Q1034.5,120.3025 1034.5,120.9588 L1034.5,122.5213 Q1034.5,123.1775 1034.2188,123.4588 Q1033.9375,123.74 1033.5,123.74 Q1033.1094,123.74 1032.8594,123.5681 Q1032.6094,123.3963 1032.5,122.9431 Q1032.4531,122.6306 1032.2813,122.4588 Q1031.9688,122.1306 1031.4063,121.9431 Q1030.8438,121.74 1030.2813,121.74 Q1029.5781,121.74 1028.9844,122.0213 Q1028.4063,122.3025 1027.9531,122.9275 Q1027.5,123.5525 1027.5,124.4119 L1027.5,125.3338 Q1027.5,126.365 1028.3438,127.0525 Q1029.1875,127.74 1030.6875,127.74 Q1031.5781,127.74 1032.2031,127.5369 Q1032.5625,127.4275 1032.9688,127.0681 Q1033.2344,126.865 1033.375,126.8025 Q1033.5156,126.74 1033.6875,126.74 Q1034.0156,126.74 1034.25,127.0056 Q1034.5,127.2556 1034.5,127.615 Q1034.5,127.9588 1034.1563,128.365 Q1033.6563,128.9588 1032.8594,129.2869 Q1031.8125,129.74 1030.5313,129.74 Q1029.0313,129.74 1027.8281,129.1463 Q1026.8594,128.6775 1026.1719,127.6619 Q1025.5,126.6463 1025.5,125.4431 L1025.5,124.3494 Q1025.5,123.0994 1026.0938,122.0056 Q1026.7031,120.9119 1027.75,120.3338 Q1028.8125,119.74 1030,119.74 Q1030.7188,119.74 1031.3438,119.99 Q1031.9688,120.24 1032.5,120.74 Z " fill="#000000"/><text fill="#000000" font-family="sans-serif" font-size="12" lengthAdjust="spacing" textLength="70" x="1044.5" y="129.1502">ServiceCode</text><line style="stroke:#A80036;stroke-width:1.5;" x1="1016.5" x2="1116.5" y1="140.24" y2="140.24"/><line style="stroke:#A80036;stroke-width:1.5;" x1="1016.5" x2="1116.5" y1="148.24" y2="148.24"/><!--MD5=[cfadaeeb841820999762f71683307bfb]
class ServiceTitle--><rect codeLine="20" fill="#FEFECE" filter="url(#flkdzf6lc0p5x)" height="48" id="ServiceTitle" style="stroke:#A80036;stroke-width:1.5;" width="95" x="885" y="108.24"/><ellipse cx="900" cy="124.24" fill="#ADD1B2" rx="11" ry="11" style="stroke:#A80036;stroke-width:1.0;"/><path d="M902,120.74 Q902.2031,120.24 902.4375,119.99 Q902.6719,119.74 902.9375,119.74 Q903.4063,119.74 903.7031,120.0213 Q904,120.3025 904,120.9588 L904,122.5213 Q904,123.1775 903.7188,123.4588 Q903.4375,123.74 903,123.74 Q902.6094,123.74 902.3594,123.5681 Q902.1094,123.3963 902,122.9431 Q901.9531,122.6306 901.7813,122.4588 Q901.4688,122.1306 900.9063,121.9431 Q900.3438,121.74 899.7813,121.74 Q899.0781,121.74 898.4844,122.0213 Q897.9063,122.3025 897.4531,122.9275 Q897,123.5525 897,124.4119 L897,125.3338 Q897,126.365 897.8438,127.0525 Q898.6875,127.74 900.1875,127.74 Q901.0781,127.74 901.7031,127.5369 Q902.0625,127.4275 902.4688,127.0681 Q902.7344,126.865 902.875,126.8025 Q903.0156,126.74 903.1875,126.74 Q903.5156,126.74 903.75,127.0056 Q904,127.2556 904,127.615 Q904,127.9588 903.6563,128.365 Q903.1563,128.9588 902.3594,129.2869 Q901.3125,129.74 900.0313,129.74 Q898.5313,129.74 897.3281,129.1463 Q896.3594,128.6775 895.6719,127.6619 Q895,126.6463 895,125.4431 L895,124.3494 Q895,123.0994 895.5938,122.0056 Q896.2031,120.9119 897.25,120.3338 Q898.3125,119.74 899.5,119.74 Q900.2188,119.74 900.8438,119.99 Q901.4688,120.24 902,120.74 Z " fill="#000000"/><text fill="#000000" font-family="sans-serif" font-size="12" lengthAdjust="spacing" textLength="63" x="914" y="129.1502">ServiceTitle</text><line style="stroke:#A80036;stroke-width:1.5;" x1="886" x2="979" y1="140.24" y2="140.24"/><line style="stroke:#A80036;stroke-width:1.5;" x1="886" x2="979" y1="148.24" y2="148.24"/><!--MD5=[c735f24174d61e36bab495972a829ba4]
class ServiceIcon--><rect codeLine="23" fill="#FEFECE" filter="url(#flkdzf6lc0p5x)" height="48" id="ServiceIcon" style="stroke:#A80036;stroke-width:1.5;" width="95" x="755" y="108.24"/><ellipse cx="770" cy="124.24" fill="#ADD1B2" rx="11" ry="11" style="stroke:#A80036;stroke-width:1.0;"/><path d="M772,120.74 Q772.2031,120.24 772.4375,119.99 Q772.6719,119.74 772.9375,119.74 Q773.4063,119.74 773.7031,120.0213 Q774,120.3025 774,120.9588 L774,122.5213 Q774,123.1775 773.7188,123.4588 Q773.4375,123.74 773,123.74 Q772.6094,123.74 772.3594,123.5681 Q772.1094,123.3963 772,122.9431 Q771.9531,122.6306 771.7813,122.4588 Q771.4688,122.1306 770.9063,121.9431 Q770.3438,121.74 769.7813,121.74 Q769.0781,121.74 768.4844,122.0213 Q767.9063,122.3025 767.4531,122.9275 Q767,123.5525 767,124.4119 L767,125.3338 Q767,126.365 767.8438,127.0525 Q768.6875,127.74 770.1875,127.74 Q771.0781,127.74 771.7031,127.5369 Q772.0625,127.4275 772.4688,127.0681 Q772.7344,126.865 772.875,126.8025 Q773.0156,126.74 773.1875,126.74 Q773.5156,126.74 773.75,127.0056 Q774,127.2556 774,127.615 Q774,127.9588 773.6563,128.365 Q773.1563,128.9588 772.3594,129.2869 Q771.3125,129.74 770.0313,129.74 Q768.5313,129.74 767.3281,129.1463 Q766.3594,128.6775 765.6719,127.6619 Q765,126.6463 765,125.4431 L765,124.3494 Q765,123.0994 765.5938,122.0056 Q766.2031,120.9119 767.25,120.3338 Q768.3125,119.74 769.5,119.74 Q770.2188,119.74 770.8438,119.99 Q771.4688,120.24 772,120.74 Z " fill="#000000"/><text fill="#000000" font-family="sans-serif" font-size="12" lengthAdjust="spacing" textLength="63" x="784" y="129.1502">ServiceIcon</text><line style="stroke:#A80036;stroke-width:1.5;" x1="756" x2="849" y1="140.24" y2="140.24"/><line style="stroke:#A80036;stroke-width:1.5;" x1="756" x2="849" y1="148.24" y2="148.24"/><!--MD5=[847dce18ee617fcc71119701feeb3e6b]
class ServiceDescription--><rect codeLine="26" fill="#FEFECE" filter="url(#flkdzf6lc0p5x)" height="48" id="ServiceDescription" style="stroke:#A80036;stroke-width:1.5;" width="135" x="585" y="108.24"/><ellipse cx="600" cy="124.24" fill="#ADD1B2" rx="11" ry="11" style="stroke:#A80036;stroke-width:1.0;"/><path d="M602,120.74 Q602.2031,120.24 602.4375,119.99 Q602.6719,119.74 602.9375,119.74 Q603.4063,119.74 603.7031,120.0213 Q604,120.3025 604,120.9588 L604,122.5213 Q604,123.1775 603.7188,123.4588 Q603.4375,123.74 603,123.74 Q602.6094,123.74 602.3594,123.5681 Q602.1094,123.3963 602,122.9431 Q601.9531,122.6306 601.7813,122.4588 Q601.4688,122.1306 600.9063,121.9431 Q600.3438,121.74 599.7813,121.74 Q599.0781,121.74 598.4844,122.0213 Q597.9063,122.3025 597.4531,122.9275 Q597,123.5525 597,124.4119 L597,125.3338 Q597,126.365 597.8438,127.0525 Q598.6875,127.74 600.1875,127.74 Q601.0781,127.74 601.7031,127.5369 Q602.0625,127.4275 602.4688,127.0681 Q602.7344,126.865 602.875,126.8025 Q603.0156,126.74 603.1875,126.74 Q603.5156,126.74 603.75,127.0056 Q604,127.2556 604,127.615 Q604,127.9588 603.6563,128.365 Q603.1563,128.9588 602.3594,129.2869 Q601.3125,129.74 600.0313,129.74 Q598.5313,129.74 597.3281,129.1463 Q596.3594,128.6775 595.6719,127.6619 Q595,126.6463 595,125.4431 L595,124.3494 Q595,123.0994 595.5938,122.0056 Q596.2031,120.9119 597.25,120.3338 Q598.3125,119.74 599.5,119.74 Q600.2188,119.74 600.8438,119.99 Q601.4688,120.24 602,120.74 Z " fill="#000000"/><text fill="#000000" font-family="sans-serif" font-size="12" lengthAdjust="spacing" textLength="103" x="614" y="129.1502">ServiceDescription</text><line style="stroke:#A80036;stroke-width:1.5;" x1="586" x2="719" y1="140.24" y2="140.24"/><line style="stroke:#A80036;stroke-width:1.5;" x1="586" x2="719" y1="148.24" y2="148.24"/><!--MD5=[85b8b576afe0a09e14fc1e67b20341be]
link RegisterServiceUI to RegisterServiceController--><path codeLine="29" d="M138.24,132.24 C148.06,132.24 157.87,132.24 167.69,132.24 " fill="none" id="RegisterServiceUI-to-RegisterServiceController" style="stroke:#A80036;stroke-width:1.0;"/><polygon fill="#A80036" points="172.82,132.24,163.82,128.24,167.82,132.24,163.82,136.24,172.82,132.24" style="stroke:#A80036;stroke-width:1.0;"/><!--MD5=[91d7daa95fdad9114a8649ce57092216]
link RegisterServiceController to Service--><path codeLine="30" d="M346,132.24 C356.07,132.24 366.14,132.24 376.21,132.24 " fill="none" id="RegisterServiceController-to-Service" style="stroke:#A80036;stroke-width:1.0;"/><polygon fill="#A80036" points="381.48,132.24,372.48,128.24,376.48,132.24,372.48,136.24,381.48,132.24" style="stroke:#A80036;stroke-width:1.0;"/><!--MD5=[ba31e1fd0a76da204e5afdbbdf04fb3c]
link Service to ServiceCode--><path codeLine="32" d="M526.3,80.58 C544.11,68.39 564.36,57.11 585,50.74 C668.88,24.86 898.41,18.36 980,50.74 C1006.92,61.43 1030.33,84.9 1045.98,103.92 " fill="none" id="Service-to-ServiceCode" style="stroke:#A80036;stroke-width:1.0;"/><polygon fill="#A80036" points="1049.4,108.16,1046.8885,98.6368,1046.2713,104.2598,1040.6482,103.6427,1049.4,108.16" style="stroke:#A80036;stroke-width:1.0;"/><!--MD5=[a45dc974eb66f212a1bb2b66eda08254]
link Service to ServiceTitle--><path codeLine="33" d="M526.3,80.58 C544.11,68.39 564.36,57.11 585,50.74 C697.54,16.02 741.05,6 850,50.74 C876.15,61.48 898.42,84.95 913.22,103.95 " fill="none" id="Service-to-ServiceTitle" style="stroke:#A80036;stroke-width:1.0;"/><polygon fill="#A80036" points="916.44,108.18,914.1632,98.5979,913.4081,104.2042,907.8018,103.449,916.44,108.18" style="stroke:#A80036;stroke-width:1.0;"/><!--MD5=[84caf335cb988e11f38d2783221dbce7]
link Service to ServiceIcon--><path codeLine="34" d="M526.3,80.58 C544.11,68.39 564.36,57.11 585,50.74 C642.33,33.05 664.5,27.95 720,50.74 C746.15,61.48 768.42,84.95 783.22,103.95 " fill="none" id="Service-to-ServiceIcon" style="stroke:#A80036;stroke-width:1.0;"/><polygon fill="#A80036" points="786.44,108.18,784.1632,98.5979,783.4081,104.2042,777.8018,103.449,786.44,108.18" style="stroke:#A80036;stroke-width:1.0;"/><!--MD5=[4dd599ff2b353d7f3c24605367128ac4]
link Service to ServiceDescription--><path codeLine="35" d="M549.5,132.24 C559.55,132.24 569.6,132.24 579.65,132.24 " fill="none" id="Service-to-ServiceDescription" style="stroke:#A80036;stroke-width:1.0;"/><polygon fill="#A80036" points="584.91,132.24,575.91,128.24,579.91,132.24,575.91,136.24,584.91,132.24" style="stroke:#A80036;stroke-width:1.0;"/><!--MD5=[1f61e71c3ba56a86e10d84e49e62e055]
@startuml
'https://plantuml.com/class-diagram

class RegisterServiceUI {
}

class RegisterServiceController {
registerService();
}

class Service{
ServiceCode scode;
ServiceTitle stitle;
ServiceIcon sicon;
ServiceDescription sdescription;
}

class ServiceCode{
}

class ServiceTitle{
}

class ServiceIcon{
}

class ServiceDescription {
}

RegisterServiceUI -> RegisterServiceController
RegisterServiceController -> Service

Service -> ServiceCode
Service -> ServiceTitle
Service -> ServiceIcon
Service -> ServiceDescription

@enduml

@startuml

class RegisterServiceUI {
}

class RegisterServiceController {
registerService();
}

class Service{
ServiceCode scode;
ServiceTitle stitle;
ServiceIcon sicon;
ServiceDescription sdescription;
}

class ServiceCode{
}

class ServiceTitle{
}

class ServiceIcon{
}

class ServiceDescription {
}

RegisterServiceUI -> RegisterServiceController
RegisterServiceController -> Service

Service -> ServiceCode
Service -> ServiceTitle
Service -> ServiceIcon
Service -> ServiceDescription

@enduml

PlantUML version 1.2021.5(Sun Apr 25 12:20:28 BST 2021)
(GPL source distribution)
Java Runtime: OpenJDK Runtime Environment
JVM: Dynamic Code Evolution 64-Bit Server VM
Default Encoding: Cp1252
Language: pt
Country: PT
--></g></svg>