<?xml version="1.0" encoding="UTF-8" standalone="no"?><svg xmlns="http://www.w3.org/2000/svg" xmlns:xlink="http://www.w3.org/1999/xlink" contentScriptType="application/ecmascript" contentStyleType="text/css" height="975px" preserveAspectRatio="none" style="width:1723px;height:975px;" version="1.1" viewBox="0 0 1723 975" width="1723px" zoomAndPan="magnify"><defs><filter height="300%" id="f69kgyw0r1ibx" width="300%" x="-1" y="-1"><feGaussianBlur result="blurOut" stdDeviation="2.0"/><feColorMatrix in="blurOut" result="blurOut2" type="matrix" values="0 0 0 0 0 0 0 0 0 0 0 0 0 0 0 0 0 0 .4 0"/><feOffset dx="4.0" dy="4.0" in="blurOut2" result="blurOut3"/><feBlend in="SourceGraphic" in2="blurOut3" mode="normal"/></filter></defs><g><rect fill="#FFFFFF" filter="url(#f69kgyw0r1ibx)" height="60.7031" style="stroke:#A80036;stroke-width:1.0;" width="10" x="353" y="121.9609"/><rect fill="#FFFFFF" filter="url(#f69kgyw0r1ibx)" height="659.0313" style="stroke:#A80036;stroke-width:1.0;" width="10" x="353" y="213.0156"/><rect fill="#FFFFFF" filter="url(#f69kgyw0r1ibx)" height="581.9766" style="stroke:#A80036;stroke-width:1.0;" width="10" x="731" y="259.7188"/><rect fill="#FFFFFF" filter="url(#f69kgyw0r1ibx)" height="30" style="stroke:#A80036;stroke-width:1.0;" width="10" x="911" y="290.0703"/><rect fill="#FFFFFF" filter="url(#f69kgyw0r1ibx)" height="30" style="stroke:#A80036;stroke-width:1.0;" width="10" x="911" y="350.4219"/><rect fill="#FFFFFF" filter="url(#f69kgyw0r1ibx)" height="107.4063" style="stroke:#A80036;stroke-width:1.0;" width="10" x="911" y="451.125"/><rect fill="#FFFFFF" filter="url(#f69kgyw0r1ibx)" height="101.0547" style="stroke:#A80036;stroke-width:1.0;" width="10" x="1362" y="588.8828"/><rect fill="#FFFFFF" filter="url(#f69kgyw0r1ibx)" height="60.7031" style="stroke:#A80036;stroke-width:1.0;" width="10" x="1509" y="720.2891"/><line style="stroke:#A80036;stroke-width:1.0;stroke-dasharray:5.0,5.0;" x1="68" x2="68" y1="89.6094" y2="890.0469"/><line style="stroke:#A80036;stroke-width:1.0;stroke-dasharray:5.0,5.0;" x1="358" x2="358" y1="89.6094" y2="890.0469"/><line style="stroke:#A80036;stroke-width:1.0;stroke-dasharray:5.0,5.0;" x1="736" x2="736" y1="89.6094" y2="890.0469"/><line style="stroke:#A80036;stroke-width:1.0;stroke-dasharray:5.0,5.0;" x1="915.5" x2="915.5" y1="89.6094" y2="890.0469"/><line style="stroke:#A80036;stroke-width:1.0;stroke-dasharray:5.0,5.0;" x1="1229" x2="1229" y1="89.6094" y2="890.0469"/><line style="stroke:#A80036;stroke-width:1.0;stroke-dasharray:5.0,5.0;" x1="1367" x2="1367" y1="89.6094" y2="890.0469"/><line style="stroke:#A80036;stroke-width:1.0;stroke-dasharray:5.0,5.0;" x1="1514" x2="1514" y1="89.6094" y2="890.0469"/><line style="stroke:#A80036;stroke-width:1.0;stroke-dasharray:5.0,5.0;" x1="1651" x2="1651" y1="89.6094" y2="890.0469"/><text fill="#000000" font-family="sans-serif" font-size="14" lengthAdjust="spacing" textLength="120" x="5" y="86.5332">HelpDesk Manager</text><ellipse cx="68" cy="15" fill="#FEFECE" filter="url(#f69kgyw0r1ibx)" rx="8" ry="8" style="stroke:#A80036;stroke-width:2.0;"/><path d="M68,23 L68,50 M55,31 L81,31 M68,50 L55,65 M68,50 L81,65 " fill="none" filter="url(#f69kgyw0r1ibx)" style="stroke:#A80036;stroke-width:2.0;"/><text fill="#000000" font-family="sans-serif" font-size="14" lengthAdjust="spacing" textLength="120" x="5" y="903.5801">HelpDesk Manager</text><ellipse cx="68" cy="916.6563" fill="#FEFECE" filter="url(#f69kgyw0r1ibx)" rx="8" ry="8" style="stroke:#A80036;stroke-width:2.0;"/><path d="M68,924.6563 L68,951.6563 M55,932.6563 L81,932.6563 M68,951.6563 L55,966.6563 M68,951.6563 L81,966.6563 " fill="none" filter="url(#f69kgyw0r1ibx)" style="stroke:#A80036;stroke-width:2.0;"/><rect fill="#FEFECE" filter="url(#f69kgyw0r1ibx)" height="31.6094" style="stroke:#A80036;stroke-width:1.5;" width="126" x="293" y="53"/><text fill="#000000" font-family="sans-serif" font-size="14" lengthAdjust="spacing" textLength="112" x="300" y="74.5332">RegisterServiceUI</text><rect fill="#FEFECE" filter="url(#f69kgyw0r1ibx)" height="31.6094" style="stroke:#A80036;stroke-width:1.5;" width="126" x="293" y="889.0469"/><text fill="#000000" font-family="sans-serif" font-size="14" lengthAdjust="spacing" textLength="112" x="300" y="910.5801">RegisterServiceUI</text><rect fill="#FEFECE" filter="url(#f69kgyw0r1ibx)" height="31.6094" style="stroke:#A80036;stroke-width:1.5;" width="176" x="646" y="53"/><text fill="#000000" font-family="sans-serif" font-size="14" lengthAdjust="spacing" textLength="162" x="653" y="74.5332">RegisterServiceController</text><rect fill="#FEFECE" filter="url(#f69kgyw0r1ibx)" height="31.6094" style="stroke:#A80036;stroke-width:1.5;" width="176" x="646" y="889.0469"/><text fill="#000000" font-family="sans-serif" font-size="14" lengthAdjust="spacing" textLength="162" x="653" y="910.5801">RegisterServiceController</text><rect fill="#FEFECE" filter="url(#f69kgyw0r1ibx)" height="31.6094" style="stroke:#A80036;stroke-width:1.5;" width="105" x="861.5" y="53"/><text fill="#000000" font-family="sans-serif" font-size="14" lengthAdjust="spacing" textLength="91" x="868.5" y="74.5332">ServiceBuilder</text><rect fill="#FEFECE" filter="url(#f69kgyw0r1ibx)" height="31.6094" style="stroke:#A80036;stroke-width:1.5;" width="105" x="861.5" y="889.0469"/><text fill="#000000" font-family="sans-serif" font-size="14" lengthAdjust="spacing" textLength="91" x="868.5" y="910.5801">ServiceBuilder</text><rect fill="#FEFECE" filter="url(#f69kgyw0r1ibx)" height="31.6094" style="stroke:#A80036;stroke-width:1.5;" width="112" x="1171" y="53"/><text fill="#000000" font-family="sans-serif" font-size="14" lengthAdjust="spacing" textLength="98" x="1178" y="74.5332">Service:Service</text><rect fill="#FEFECE" filter="url(#f69kgyw0r1ibx)" height="31.6094" style="stroke:#A80036;stroke-width:1.5;" width="112" x="1171" y="889.0469"/><text fill="#000000" font-family="sans-serif" font-size="14" lengthAdjust="spacing" textLength="98" x="1178" y="910.5801">Service:Service</text><rect fill="#FEFECE" filter="url(#f69kgyw0r1ibx)" height="31.6094" style="stroke:#A80036;stroke-width:1.5;" width="136" x="1297" y="53"/><text fill="#000000" font-family="sans-serif" font-size="14" lengthAdjust="spacing" textLength="122" x="1304" y="74.5332">PersistenceContext</text><rect fill="#FEFECE" filter="url(#f69kgyw0r1ibx)" height="31.6094" style="stroke:#A80036;stroke-width:1.5;" width="136" x="1297" y="889.0469"/><text fill="#000000" font-family="sans-serif" font-size="14" lengthAdjust="spacing" textLength="122" x="1304" y="910.5801">PersistenceContext</text><rect fill="#FEFECE" filter="url(#f69kgyw0r1ibx)" height="31.6094" style="stroke:#A80036;stroke-width:1.5;" width="130" x="1447" y="53"/><text fill="#000000" font-family="sans-serif" font-size="14" lengthAdjust="spacing" textLength="116" x="1454" y="74.5332">RepositoryFactory</text><rect fill="#FEFECE" filter="url(#f69kgyw0r1ibx)" height="31.6094" style="stroke:#A80036;stroke-width:1.5;" width="130" x="1447" y="889.0469"/><text fill="#000000" font-family="sans-serif" font-size="14" lengthAdjust="spacing" textLength="116" x="1454" y="910.5801">RepositoryFactory</text><text fill="#000000" font-family="sans-serif" font-size="14" lengthAdjust="spacing" textLength="115" x="1591" y="86.5332">ServiceRepository</text><path d="M1633.5,36 C1633.5,26 1651.5,26 1651.5,26 C1651.5,26 1669.5,26 1669.5,36 L1669.5,62 C1669.5,72 1651.5,72 1651.5,72 C1651.5,72 1633.5,72 1633.5,62 L1633.5,36 " fill="#FEFECE" filter="url(#f69kgyw0r1ibx)" style="stroke:#000000;stroke-width:1.5;"/><path d="M1633.5,36 C1633.5,46 1651.5,46 1651.5,46 C1651.5,46 1669.5,46 1669.5,36 " fill="none" style="stroke:#000000;stroke-width:1.5;"/><text fill="#000000" font-family="sans-serif" font-size="14" lengthAdjust="spacing" textLength="115" x="1591" y="903.5801">ServiceRepository</text><path d="M1633.5,916.6563 C1633.5,906.6563 1651.5,906.6563 1651.5,906.6563 C1651.5,906.6563 1669.5,906.6563 1669.5,916.6563 L1669.5,942.6563 C1669.5,952.6563 1651.5,952.6563 1651.5,952.6563 C1651.5,952.6563 1633.5,952.6563 1633.5,942.6563 L1633.5,916.6563 " fill="#FEFECE" filter="url(#f69kgyw0r1ibx)" style="stroke:#000000;stroke-width:1.5;"/><path d="M1633.5,916.6563 C1633.5,926.6563 1651.5,926.6563 1651.5,926.6563 C1651.5,926.6563 1669.5,926.6563 1669.5,916.6563 " fill="none" style="stroke:#000000;stroke-width:1.5;"/><rect fill="#FFFFFF" filter="url(#f69kgyw0r1ibx)" height="60.7031" style="stroke:#A80036;stroke-width:1.0;" width="10" x="353" y="121.9609"/><rect fill="#FFFFFF" filter="url(#f69kgyw0r1ibx)" height="659.0313" style="stroke:#A80036;stroke-width:1.0;" width="10" x="353" y="213.0156"/><rect fill="#FFFFFF" filter="url(#f69kgyw0r1ibx)" height="581.9766" style="stroke:#A80036;stroke-width:1.0;" width="10" x="731" y="259.7188"/><rect fill="#FFFFFF" filter="url(#f69kgyw0r1ibx)" height="30" style="stroke:#A80036;stroke-width:1.0;" width="10" x="911" y="290.0703"/><rect fill="#FFFFFF" filter="url(#f69kgyw0r1ibx)" height="30" style="stroke:#A80036;stroke-width:1.0;" width="10" x="911" y="350.4219"/><rect fill="#FFFFFF" filter="url(#f69kgyw0r1ibx)" height="107.4063" style="stroke:#A80036;stroke-width:1.0;" width="10" x="911" y="451.125"/><rect fill="#FFFFFF" filter="url(#f69kgyw0r1ibx)" height="101.0547" style="stroke:#A80036;stroke-width:1.0;" width="10" x="1362" y="588.8828"/><rect fill="#FFFFFF" filter="url(#f69kgyw0r1ibx)" height="60.7031" style="stroke:#A80036;stroke-width:1.0;" width="10" x="1509" y="720.2891"/><polygon fill="#A80036" points="341,117.9609,351,121.9609,341,125.9609,345,121.9609" style="stroke:#A80036;stroke-width:1.0;"/><line style="stroke:#A80036;stroke-width:1.0;stroke-dasharray:2.0,2.0;" x1="68" x2="347" y1="121.9609" y2="121.9609"/><text fill="#000000" font-family="sans-serif" font-size="13" font-weight="bold" lengthAdjust="spacing" textLength="7" x="75" y="117.1045">1</text><text fill="#000000" font-family="sans-serif" font-size="13" lengthAdjust="spacing" textLength="105" x="86" y="117.1045">Register a Service</text><polygon fill="#A80036" points="724,148.3125,734,152.3125,724,156.3125,728,152.3125" style="stroke:#A80036;stroke-width:1.0;"/><line style="stroke:#A80036;stroke-width:1.0;" x1="363" x2="730" y1="152.3125" y2="152.3125"/><text fill="#000000" font-family="sans-serif" font-size="13" font-weight="bold" lengthAdjust="spacing" textLength="7" x="370" y="147.4561">2</text><text fill="#000000" font-family="sans-serif" font-size="13" lengthAdjust="spacing" textLength="36" x="381" y="147.4561">create</text><polygon fill="#A80036" points="79,178.6641,69,182.6641,79,186.6641,75,182.6641" style="stroke:#A80036;stroke-width:1.0;"/><line style="stroke:#A80036;stroke-width:1.0;stroke-dasharray:2.0,2.0;" x1="73" x2="357" y1="182.6641" y2="182.6641"/><text fill="#000000" font-family="sans-serif" font-size="13" font-weight="bold" lengthAdjust="spacing" textLength="7" x="85" y="177.8076">3</text><text fill="#000000" font-family="sans-serif" font-size="13" lengthAdjust="spacing" textLength="250" x="96" y="177.8076">Requests necessary credentials for Service</text><polygon fill="#A80036" points="341,209.0156,351,213.0156,341,217.0156,345,213.0156" style="stroke:#A80036;stroke-width:1.0;"/><line style="stroke:#A80036;stroke-width:1.0;stroke-dasharray:2.0,2.0;" x1="68" x2="347" y1="213.0156" y2="213.0156"/><text fill="#000000" font-family="sans-serif" font-size="13" font-weight="bold" lengthAdjust="spacing" textLength="7" x="75" y="208.1592">4</text><text fill="#000000" font-family="sans-serif" font-size="13" lengthAdjust="spacing" textLength="90" x="86" y="208.1592">Inserts the data</text><polygon fill="#A80036" points="719,255.7188,729,259.7188,719,263.7188,723,259.7188" style="stroke:#A80036;stroke-width:1.0;"/><line style="stroke:#A80036;stroke-width:1.0;" x1="363" x2="725" y1="259.7188" y2="259.7188"/><text fill="#000000" font-family="sans-serif" font-size="13" font-weight="bold" lengthAdjust="spacing" textLength="7" x="370" y="246.6865">5</text><text fill="#000000" font-family="sans-serif" font-size="13" lengthAdjust="spacing" textLength="334" x="381" y="238.5107">Service = newService(ServiceCode code, ServiceTitle title,</text><text fill="#000000" font-family="sans-serif" font-size="13" lengthAdjust="spacing" textLength="273" x="381" y="254.8623">ServiceIcon icon, ServiceDescriptio description)</text><polygon fill="#A80036" points="899,286.0703,909,290.0703,899,294.0703,903,290.0703" style="stroke:#A80036;stroke-width:1.0;"/><line style="stroke:#A80036;stroke-width:1.0;" x1="741" x2="905" y1="290.0703" y2="290.0703"/><text fill="#000000" font-family="sans-serif" font-size="13" font-weight="bold" lengthAdjust="spacing" textLength="7" x="748" y="285.2139">6</text><text fill="#000000" font-family="sans-serif" font-size="13" lengthAdjust="spacing" textLength="36" x="759" y="285.2139">create</text><polygon fill="#A80036" points="899,346.4219,909,350.4219,899,354.4219,903,350.4219" style="stroke:#A80036;stroke-width:1.0;"/><line style="stroke:#A80036;stroke-width:1.0;" x1="741" x2="905" y1="350.4219" y2="350.4219"/><text fill="#000000" font-family="sans-serif" font-size="13" font-weight="bold" lengthAdjust="spacing" textLength="7" x="748" y="345.5654">7</text><text fill="#000000" font-family="sans-serif" font-size="13" lengthAdjust="spacing" textLength="140" x="759" y="345.5654">setCatalogue(catalogue)</text><path d="M666,393.4219 L666,419.4219 L985,419.4219 L985,403.4219 L975,393.4219 L666,393.4219 " fill="#FBFB77" filter="url(#f69kgyw0r1ibx)" style="stroke:#A80036;stroke-width:1.0;"/><path d="M975,393.4219 L975,403.4219 L985,403.4219 L975,393.4219 " fill="#FBFB77" style="stroke:#A80036;stroke-width:1.0;"/><text fill="#000000" font-family="sans-serif" font-size="13" lengthAdjust="spacing" textLength="178" x="730.25" y="411.917">Sets the rest of the information</text><polygon fill="#A80036" points="899,447.125,909,451.125,899,455.125,903,451.125" style="stroke:#A80036;stroke-width:1.0;"/><line style="stroke:#A80036;stroke-width:1.0;" x1="741" x2="905" y1="451.125" y2="451.125"/><text fill="#000000" font-family="sans-serif" font-size="13" font-weight="bold" lengthAdjust="spacing" textLength="7" x="748" y="446.2686">8</text><text fill="#000000" font-family="sans-serif" font-size="13" lengthAdjust="spacing" textLength="86" x="759" y="446.2686">createService()</text><polygon fill="#A80036" points="1217,493.8281,1227,497.8281,1217,501.8281,1221,497.8281" style="stroke:#A80036;stroke-width:1.0;"/><line style="stroke:#A80036;stroke-width:1.0;" x1="921" x2="1223" y1="497.8281" y2="497.8281"/><text fill="#000000" font-family="sans-serif" font-size="13" font-weight="bold" lengthAdjust="spacing" textLength="7" x="928" y="484.7959">9</text><text fill="#000000" font-family="sans-serif" font-size="13" lengthAdjust="spacing" textLength="247" x="939" y="476.6201">create(ServiceCode code, ServiceTitle title,</text><text fill="#000000" font-family="sans-serif" font-size="13" lengthAdjust="spacing" textLength="273" x="939" y="492.9717">ServiceIcon icon, ServiceDescriptio description)</text><polygon fill="#A80036" points="932,524.1797,922,528.1797,932,532.1797,928,528.1797" style="stroke:#A80036;stroke-width:1.0;"/><line style="stroke:#A80036;stroke-width:1.0;" x1="926" x2="1228" y1="528.1797" y2="528.1797"/><text fill="#000000" font-family="sans-serif" font-size="13" font-weight="bold" lengthAdjust="spacing" textLength="14" x="938" y="523.3232">10</text><text fill="#000000" font-family="sans-serif" font-size="13" lengthAdjust="spacing" textLength="42" x="956" y="523.3232">Service</text><polygon fill="#A80036" points="752,554.5313,742,558.5313,752,562.5313,748,558.5313" style="stroke:#A80036;stroke-width:1.0;"/><line style="stroke:#A80036;stroke-width:1.0;" x1="746" x2="915" y1="558.5313" y2="558.5313"/><text fill="#000000" font-family="sans-serif" font-size="13" font-weight="bold" lengthAdjust="spacing" textLength="14" x="758" y="553.6748">11</text><text fill="#000000" font-family="sans-serif" font-size="13" lengthAdjust="spacing" textLength="42" x="776" y="553.6748">Service</text><polygon fill="#A80036" points="1350,584.8828,1360,588.8828,1350,592.8828,1354,588.8828" style="stroke:#A80036;stroke-width:1.0;"/><line style="stroke:#A80036;stroke-width:1.0;" x1="741" x2="1356" y1="588.8828" y2="588.8828"/><text fill="#000000" font-family="sans-serif" font-size="13" font-weight="bold" lengthAdjust="spacing" textLength="14" x="748" y="584.0264">12</text><text fill="#000000" font-family="sans-serif" font-size="13" lengthAdjust="spacing" textLength="0" x="770" y="584.0264"/><path d="M1304,601.8828 L1304,627.8828 L1714,627.8828 L1714,611.8828 L1704,601.8828 L1304,601.8828 " fill="#FBFB77" filter="url(#f69kgyw0r1ibx)" style="stroke:#A80036;stroke-width:1.0;"/><path d="M1704,601.8828 L1704,611.8828 L1714,611.8828 L1704,601.8828 " fill="#FBFB77" style="stroke:#A80036;stroke-width:1.0;"/><text fill="#000000" font-family="sans-serif" font-size="13" lengthAdjust="spacing" textLength="248" x="1378.5" y="620.3779">can create an repository in memory or JPA</text><polygon fill="#A80036" points="1502,655.5859,1512,659.5859,1502,663.5859,1506,659.5859" style="stroke:#A80036;stroke-width:1.0;"/><line style="stroke:#A80036;stroke-width:1.0;" x1="1372" x2="1508" y1="659.5859" y2="659.5859"/><text fill="#000000" font-family="sans-serif" font-size="13" font-weight="bold" lengthAdjust="spacing" textLength="14" x="1379" y="654.7295">13</text><text fill="#000000" font-family="sans-serif" font-size="13" lengthAdjust="spacing" textLength="36" x="1397" y="654.7295">create</text><polygon fill="#A80036" points="752,685.9375,742,689.9375,752,693.9375,748,689.9375" style="stroke:#A80036;stroke-width:1.0;"/><line style="stroke:#A80036;stroke-width:1.0;" x1="746" x2="1366" y1="689.9375" y2="689.9375"/><text fill="#000000" font-family="sans-serif" font-size="13" font-weight="bold" lengthAdjust="spacing" textLength="14" x="758" y="685.0811">14</text><text fill="#000000" font-family="sans-serif" font-size="13" lengthAdjust="spacing" textLength="39" x="776" y="685.0811">factory</text><polygon fill="#A80036" points="1497,716.2891,1507,720.2891,1497,724.2891,1501,720.2891" style="stroke:#A80036;stroke-width:1.0;"/><line style="stroke:#A80036;stroke-width:1.0;" x1="741" x2="1503" y1="720.2891" y2="720.2891"/><text fill="#000000" font-family="sans-serif" font-size="13" font-weight="bold" lengthAdjust="spacing" textLength="14" x="748" y="715.4326">15</text><text fill="#000000" font-family="sans-serif" font-size="13" lengthAdjust="spacing" textLength="57" x="766" y="715.4326">Services()</text><polygon fill="#A80036" points="1639.5,746.6406,1649.5,750.6406,1639.5,754.6406,1643.5,750.6406" style="stroke:#A80036;stroke-width:1.0;"/><line style="stroke:#A80036;stroke-width:1.0;" x1="1519" x2="1645.5" y1="750.6406" y2="750.6406"/><text fill="#000000" font-family="sans-serif" font-size="13" font-weight="bold" lengthAdjust="spacing" textLength="14" x="1526" y="745.7842">16</text><text fill="#000000" font-family="sans-serif" font-size="13" lengthAdjust="spacing" textLength="36" x="1544" y="745.7842">create</text><polygon fill="#A80036" points="752,776.9922,742,780.9922,752,784.9922,748,780.9922" style="stroke:#A80036;stroke-width:1.0;"/><line style="stroke:#A80036;stroke-width:1.0;" x1="746" x2="1513" y1="780.9922" y2="780.9922"/><text fill="#000000" font-family="sans-serif" font-size="13" font-weight="bold" lengthAdjust="spacing" textLength="14" x="758" y="776.1357">17</text><text fill="#000000" font-family="sans-serif" font-size="13" lengthAdjust="spacing" textLength="112" x="776" y="776.1357">ServiceRepository()</text><polygon fill="#A80036" points="1639.5,807.3438,1649.5,811.3438,1639.5,815.3438,1643.5,811.3438" style="stroke:#A80036;stroke-width:1.0;"/><line style="stroke:#A80036;stroke-width:1.0;" x1="741" x2="1645.5" y1="811.3438" y2="811.3438"/><text fill="#000000" font-family="sans-serif" font-size="13" font-weight="bold" lengthAdjust="spacing" textLength="14" x="748" y="806.4873">18</text><text fill="#000000" font-family="sans-serif" font-size="13" lengthAdjust="spacing" textLength="76" x="766" y="806.4873">save(Service)</text><polygon fill="#A80036" points="374,837.6953,364,841.6953,374,845.6953,370,841.6953" style="stroke:#A80036;stroke-width:1.0;"/><line style="stroke:#A80036;stroke-width:1.0;" x1="368" x2="735" y1="841.6953" y2="841.6953"/><text fill="#000000" font-family="sans-serif" font-size="13" font-weight="bold" lengthAdjust="spacing" textLength="14" x="380" y="836.8389">19</text><text fill="#000000" font-family="sans-serif" font-size="13" lengthAdjust="spacing" textLength="42" x="398" y="836.8389">Service</text><polygon fill="#A80036" points="79,868.0469,69,872.0469,79,876.0469,75,872.0469" style="stroke:#A80036;stroke-width:1.0;"/><line style="stroke:#A80036;stroke-width:1.0;stroke-dasharray:2.0,2.0;" x1="73" x2="357" y1="872.0469" y2="872.0469"/><text fill="#000000" font-family="sans-serif" font-size="13" font-weight="bold" lengthAdjust="spacing" textLength="14" x="85" y="867.1904">20</text><text fill="#000000" font-family="sans-serif" font-size="13" lengthAdjust="spacing" textLength="103" x="103" y="867.1904">displayServiceInfo</text><!--MD5=[9bb7b9f033e1fb9a4dacd70be76cbb21]
@startuml
autonumber

actor "HelpDesk Manager" as HDM

participant "RegisterServiceUI" as UI
participant "RegisterServiceController" as CTRL
participant "ServiceBuilder" as CB
participant "Service:Service" as CC
participant "PersistenceContext" as PC
participant "RepositoryFactory" as RF


database "ServiceRepository" as CR

HDM - -> UI : Register a Service
activate UI
    UI -> CTRL : create
    UI - -> HDM : Requests necessary credentials for Service
deactivate UI

HDM - -> UI : Inserts the data
activate UI
    UI -> CTRL : Service = newService(ServiceCode code, ServiceTitle title, \nServiceIcon icon, ServiceDescriptio description)
    activate CTRL
        CTRL -> CB: create
        activate CB
        deactivate CB

        CTRL -> CB: setCatalogue(catalogue)
        activate CB
        deactivate CB

note over CTRL, CB : Sets the rest of the information


        CTRL -> CB: createService()
        activate CB
                CB -> CC: create(ServiceCode code, ServiceTitle title, \nServiceIcon icon, ServiceDescriptio description)
                CC -> CB: Service
                CB -> CTRL: Service
        deactivate CB

        CTRL -> PC:
        activate PC
        note over PC, CR : can create an repository in memory or JPA
         PC->RF: create
         PC->CTRL: factory

        deactivate PC

        CTRL->RF:Services()
        activate RF
        RF->CR:create
        RF->CTRL:ServiceRepository()
        deactivate RF

        CTRL->CR:save(Service)

        CTRL->UI:Service
    deactivate CTRL

    UI - -> HDM : displayServiceInfo
deactivate UI


@enduml

PlantUML version 1.2021.5(Sun Apr 25 12:20:28 BST 2021)
(GPL source distribution)
Java Runtime: OpenJDK Runtime Environment
JVM: Dynamic Code Evolution 64-Bit Server VM
Default Encoding: Cp1252
Language: pt
Country: PT
--></g></svg>