<?xml version="1.0" encoding="UTF-8" standalone="no"?><svg xmlns="http://www.w3.org/2000/svg" xmlns:xlink="http://www.w3.org/1999/xlink" contentScriptType="application/ecmascript" contentStyleType="text/css" height="203px" preserveAspectRatio="none" style="width:1595px;height:203px;background:#FFFFFF;" version="1.1" viewBox="0 0 1595 203" width="1595px" zoomAndPan="magnify"><defs><filter height="300%" id="f14249qpgpfibg" width="300%" x="-1" y="-1"><feGaussianBlur result="blurOut" stdDeviation="2.0"/><feColorMatrix in="blurOut" result="blurOut2" type="matrix" values="0 0 0 0 0 0 0 0 0 0 0 0 0 0 0 0 0 0 .4 0"/><feOffset dx="4.0" dy="4.0" in="blurOut2" result="blurOut3"/><feBlend in="SourceGraphic" in2="blurOut3" mode="normal"/></filter></defs><g><!--MD5=[2e920501632225a7774f5f6b79da624e]
class RequestServiceUI--><rect codeLine="3" fill="#FEFECE" filter="url(#f14249qpgpfibg)" height="48" id="RequestServiceUI" style="stroke:#A80036;stroke-width:1.5;" width="131" x="7" y="107.16"/><ellipse cx="22" cy="123.16" fill="#ADD1B2" rx="11" ry="11" style="stroke:#A80036;stroke-width:1.0;"/><path d="M24,119.66 Q24.2031,119.16 24.4375,118.91 Q24.6719,118.66 24.9375,118.66 Q25.4063,118.66 25.7031,118.9413 Q26,119.2225 26,119.8788 L26,121.4413 Q26,122.0975 25.7188,122.3788 Q25.4375,122.66 25,122.66 Q24.6094,122.66 24.3594,122.4881 Q24.1094,122.3163 24,121.8631 Q23.9531,121.5506 23.7813,121.3788 Q23.4688,121.0506 22.9063,120.8631 Q22.3438,120.66 21.7813,120.66 Q21.0781,120.66 20.4844,120.9413 Q19.9063,121.2225 19.4531,121.8475 Q19,122.4725 19,123.3319 L19,124.2538 Q19,125.285 19.8438,125.9725 Q20.6875,126.66 22.1875,126.66 Q23.0781,126.66 23.7031,126.4569 Q24.0625,126.3475 24.4688,125.9881 Q24.7344,125.785 24.875,125.7225 Q25.0156,125.66 25.1875,125.66 Q25.5156,125.66 25.75,125.9256 Q26,126.1756 26,126.535 Q26,126.8788 25.6563,127.285 Q25.1563,127.8788 24.3594,128.2069 Q23.3125,128.66 22.0313,128.66 Q20.5313,128.66 19.3281,128.0663 Q18.3594,127.5975 17.6719,126.5819 Q17,125.5663 17,124.3631 L17,123.2694 Q17,122.0194 17.5938,120.9256 Q18.2031,119.8319 19.25,119.2538 Q20.3125,118.66 21.5,118.66 Q22.2188,118.66 22.8438,118.91 Q23.4688,119.16 24,119.66 Z " fill="#000000"/><text fill="#000000" font-family="sans-serif" font-size="12" lengthAdjust="spacing" textLength="99" x="36" y="128.0702">RequestServiceUI</text><line style="stroke:#A80036;stroke-width:1.5;" x1="8" x2="137" y1="139.16" y2="139.16"/><line style="stroke:#A80036;stroke-width:1.5;" x1="8" x2="137" y1="147.16" y2="147.16"/><!--MD5=[398428482f7f4d031a567488489140f6]
class RequestServiceController--><rect codeLine="6" fill="#FEFECE" filter="url(#f14249qpgpfibg)" height="89.5078" id="RequestServiceController" style="stroke:#A80036;stroke-width:1.5;" width="173" x="173" y="86.16"/><ellipse cx="188" cy="102.16" fill="#ADD1B2" rx="11" ry="11" style="stroke:#A80036;stroke-width:1.0;"/><path d="M190,98.66 Q190.2031,98.16 190.4375,97.91 Q190.6719,97.66 190.9375,97.66 Q191.4063,97.66 191.7031,97.9413 Q192,98.2225 192,98.8788 L192,100.4413 Q192,101.0975 191.7188,101.3788 Q191.4375,101.66 191,101.66 Q190.6094,101.66 190.3594,101.4881 Q190.1094,101.3163 190,100.8631 Q189.9531,100.5506 189.7813,100.3788 Q189.4688,100.0506 188.9063,99.8631 Q188.3438,99.66 187.7813,99.66 Q187.0781,99.66 186.4844,99.9413 Q185.9063,100.2225 185.4531,100.8475 Q185,101.4725 185,102.3319 L185,103.2538 Q185,104.285 185.8438,104.9725 Q186.6875,105.66 188.1875,105.66 Q189.0781,105.66 189.7031,105.4569 Q190.0625,105.3475 190.4688,104.9881 Q190.7344,104.785 190.875,104.7225 Q191.0156,104.66 191.1875,104.66 Q191.5156,104.66 191.75,104.9256 Q192,105.1756 192,105.535 Q192,105.8788 191.6563,106.285 Q191.1563,106.8788 190.3594,107.2069 Q189.3125,107.66 188.0313,107.66 Q186.5313,107.66 185.3281,107.0663 Q184.3594,106.5975 183.6719,105.5819 Q183,104.5663 183,103.3631 L183,102.2694 Q183,101.0194 183.5938,99.9256 Q184.2031,98.8319 185.25,98.2538 Q186.3125,97.66 187.5,97.66 Q188.2188,97.66 188.8438,97.91 Q189.4688,98.16 190,98.66 Z " fill="#000000"/><text fill="#000000" font-family="sans-serif" font-size="12" lengthAdjust="spacing" textLength="141" x="202" y="107.0702">RequestServiceController</text><line style="stroke:#A80036;stroke-width:1.5;" x1="174" x2="345" y1="118.16" y2="118.16"/><line style="stroke:#A80036;stroke-width:1.5;" x1="174" x2="345" y1="126.16" y2="126.16"/><ellipse cx="184" cy="137.16" fill="#84BE84" rx="3" ry="3" style="stroke:#038048;stroke-width:1.0;"/><text fill="#000000" font-family="sans-serif" font-size="11" lengthAdjust="spacing" textLength="130" x="193" y="141.5789">getServicesByCatalogue();</text><ellipse cx="184" cy="150.9959" fill="#84BE84" rx="3" ry="3" style="stroke:#038048;stroke-width:1.0;"/><text fill="#000000" font-family="sans-serif" font-size="11" lengthAdjust="spacing" textLength="85" x="193" y="155.4149">requestService();</text><ellipse cx="184" cy="164.8319" fill="#84BE84" rx="3" ry="3" style="stroke:#038048;stroke-width:1.0;"/><text fill="#000000" font-family="sans-serif" font-size="11" lengthAdjust="spacing" textLength="69" x="193" y="169.2508">currentUser();</text><!--MD5=[29607c184b58cc12f86f8e7971e51efd]
class Workflow--><rect codeLine="12" fill="#FEFECE" filter="url(#f14249qpgpfibg)" height="61.8359" id="Workflow" style="stroke:#A80036;stroke-width:1.5;" width="127" x="877" y="100.16"/><ellipse cx="912.25" cy="116.16" fill="#ADD1B2" rx="11" ry="11" style="stroke:#A80036;stroke-width:1.0;"/><path d="M914.25,112.66 Q914.4531,112.16 914.6875,111.91 Q914.9219,111.66 915.1875,111.66 Q915.6563,111.66 915.9531,111.9413 Q916.25,112.2225 916.25,112.8788 L916.25,114.4413 Q916.25,115.0975 915.9688,115.3788 Q915.6875,115.66 915.25,115.66 Q914.8594,115.66 914.6094,115.4881 Q914.3594,115.3163 914.25,114.8631 Q914.2031,114.5506 914.0313,114.3788 Q913.7188,114.0506 913.1563,113.8631 Q912.5938,113.66 912.0313,113.66 Q911.3281,113.66 910.7344,113.9413 Q910.1563,114.2225 909.7031,114.8475 Q909.25,115.4725 909.25,116.3319 L909.25,117.2538 Q909.25,118.285 910.0938,118.9725 Q910.9375,119.66 912.4375,119.66 Q913.3281,119.66 913.9531,119.4569 Q914.3125,119.3475 914.7188,118.9881 Q914.9844,118.785 915.125,118.7225 Q915.2656,118.66 915.4375,118.66 Q915.7656,118.66 916,118.9256 Q916.25,119.1756 916.25,119.535 Q916.25,119.8788 915.9063,120.285 Q915.4063,120.8788 914.6094,121.2069 Q913.5625,121.66 912.2813,121.66 Q910.7813,121.66 909.5781,121.0663 Q908.6094,120.5975 907.9219,119.5819 Q907.25,118.5663 907.25,117.3631 L907.25,116.2694 Q907.25,115.0194 907.8438,113.9256 Q908.4531,112.8319 909.5,112.2538 Q910.5625,111.66 911.75,111.66 Q912.4688,111.66 913.0938,111.91 Q913.7188,112.16 914.25,112.66 Z " fill="#000000"/><text fill="#000000" font-family="sans-serif" font-size="12" lengthAdjust="spacing" textLength="50" x="930.75" y="121.0702">Workflow</text><line style="stroke:#A80036;stroke-width:1.5;" x1="878" x2="1003" y1="132.16" y2="132.16"/><text fill="#000000" font-family="sans-serif" font-size="11" lengthAdjust="spacing" textLength="115" x="883" y="147.5789">WorkFlowId workflowId</text><line style="stroke:#A80036;stroke-width:1.5;" x1="878" x2="1003" y1="153.9959" y2="153.9959"/><!--MD5=[236f2aba18d5108ae172a2aee4a94236]
class WorkflowExecution--><rect codeLine="16" fill="#FEFECE" filter="url(#f14249qpgpfibg)" height="75.6719" id="WorkflowExecution" style="stroke:#A80036;stroke-width:1.5;" width="223" x="1175" y="93.16"/><ellipse cx="1230.75" cy="109.16" fill="#ADD1B2" rx="11" ry="11" style="stroke:#A80036;stroke-width:1.0;"/><path d="M1232.75,105.66 Q1232.9531,105.16 1233.1875,104.91 Q1233.4219,104.66 1233.6875,104.66 Q1234.1563,104.66 1234.4531,104.9413 Q1234.75,105.2225 1234.75,105.8788 L1234.75,107.4413 Q1234.75,108.0975 1234.4688,108.3788 Q1234.1875,108.66 1233.75,108.66 Q1233.3594,108.66 1233.1094,108.4881 Q1232.8594,108.3163 1232.75,107.8631 Q1232.7031,107.5506 1232.5313,107.3788 Q1232.2188,107.0506 1231.6563,106.8631 Q1231.0938,106.66 1230.5313,106.66 Q1229.8281,106.66 1229.2344,106.9413 Q1228.6563,107.2225 1228.2031,107.8475 Q1227.75,108.4725 1227.75,109.3319 L1227.75,110.2538 Q1227.75,111.285 1228.5938,111.9725 Q1229.4375,112.66 1230.9375,112.66 Q1231.8281,112.66 1232.4531,112.4569 Q1232.8125,112.3475 1233.2188,111.9881 Q1233.4844,111.785 1233.625,111.7225 Q1233.7656,111.66 1233.9375,111.66 Q1234.2656,111.66 1234.5,111.9256 Q1234.75,112.1756 1234.75,112.535 Q1234.75,112.8788 1234.4063,113.285 Q1233.9063,113.8788 1233.1094,114.2069 Q1232.0625,114.66 1230.7813,114.66 Q1229.2813,114.66 1228.0781,114.0663 Q1227.1094,113.5975 1226.4219,112.5819 Q1225.75,111.5663 1225.75,110.3631 L1225.75,109.2694 Q1225.75,108.0194 1226.3438,106.9256 Q1226.9531,105.8319 1228,105.2538 Q1229.0625,104.66 1230.25,104.66 Q1230.9688,104.66 1231.5938,104.91 Q1232.2188,105.16 1232.75,105.66 Z " fill="#000000"/><text fill="#000000" font-family="sans-serif" font-size="12" lengthAdjust="spacing" textLength="103" x="1251.25" y="114.0702">WorkflowExecution</text><line style="stroke:#A80036;stroke-width:1.5;" x1="1176" x2="1397" y1="125.16" y2="125.16"/><text fill="#000000" font-family="sans-serif" font-size="11" lengthAdjust="spacing" textLength="211" x="1181" y="140.5789">WorkFlowExecutionId workFlowExecutionId</text><text fill="#000000" font-family="sans-serif" font-size="11" lengthAdjust="spacing" textLength="101" x="1181" y="154.4149">WorkFlow workFlow</text><line style="stroke:#A80036;stroke-width:1.5;" x1="1176" x2="1397" y1="160.8319" y2="160.8319"/><!--MD5=[b818ceca6f312d7ab4f6517a26efb7fb]
class WorkflowExecutionID--><rect codeLine="21" fill="#FEFECE" filter="url(#f14249qpgpfibg)" height="61.8359" id="WorkflowExecutionID" style="stroke:#A80036;stroke-width:1.5;" width="148" x="1433.5" y="100.16"/><ellipse cx="1448.95" cy="116.16" fill="#ADD1B2" rx="11" ry="11" style="stroke:#A80036;stroke-width:1.0;"/><path d="M1450.95,112.66 Q1451.1531,112.16 1451.3875,111.91 Q1451.6219,111.66 1451.8875,111.66 Q1452.3563,111.66 1452.6531,111.9413 Q1452.95,112.2225 1452.95,112.8788 L1452.95,114.4413 Q1452.95,115.0975 1452.6688,115.3788 Q1452.3875,115.66 1451.95,115.66 Q1451.5594,115.66 1451.3094,115.4881 Q1451.0594,115.3163 1450.95,114.8631 Q1450.9031,114.5506 1450.7313,114.3788 Q1450.4188,114.0506 1449.8563,113.8631 Q1449.2938,113.66 1448.7313,113.66 Q1448.0281,113.66 1447.4344,113.9413 Q1446.8563,114.2225 1446.4031,114.8475 Q1445.95,115.4725 1445.95,116.3319 L1445.95,117.2538 Q1445.95,118.285 1446.7938,118.9725 Q1447.6375,119.66 1449.1375,119.66 Q1450.0281,119.66 1450.6531,119.4569 Q1451.0125,119.3475 1451.4188,118.9881 Q1451.6844,118.785 1451.825,118.7225 Q1451.9656,118.66 1452.1375,118.66 Q1452.4656,118.66 1452.7,118.9256 Q1452.95,119.1756 1452.95,119.535 Q1452.95,119.8788 1452.6063,120.285 Q1452.1063,120.8788 1451.3094,121.2069 Q1450.2625,121.66 1448.9813,121.66 Q1447.4813,121.66 1446.2781,121.0663 Q1445.3094,120.5975 1444.6219,119.5819 Q1443.95,118.5663 1443.95,117.3631 L1443.95,116.2694 Q1443.95,115.0194 1444.5438,113.9256 Q1445.1531,112.8319 1446.2,112.2538 Q1447.2625,111.66 1448.45,111.66 Q1449.1688,111.66 1449.7938,111.91 Q1450.4188,112.16 1450.95,112.66 Z " fill="#000000"/><text fill="#000000" font-family="sans-serif" font-size="12" lengthAdjust="spacing" textLength="115" x="1463.05" y="121.0702">WorkflowExecutionID</text><line style="stroke:#A80036;stroke-width:1.5;" x1="1434.5" x2="1580.5" y1="132.16" y2="132.16"/><text fill="#000000" font-family="sans-serif" font-size="11" lengthAdjust="spacing" textLength="136" x="1439.5" y="147.5789">String WorkflowExecutionId;</text><line style="stroke:#A80036;stroke-width:1.5;" x1="1434.5" x2="1580.5" y1="153.9959" y2="153.9959"/><!--MD5=[64aab166b1072f0191e2d158e4d4bf63]
class WorkflowID--><rect codeLine="25" fill="#FEFECE" filter="url(#f14249qpgpfibg)" height="61.8359" id="WorkflowID" style="stroke:#A80036;stroke-width:1.5;" width="101" x="1039" y="100.16"/><ellipse cx="1057.15" cy="116.16" fill="#ADD1B2" rx="11" ry="11" style="stroke:#A80036;stroke-width:1.0;"/><path d="M1059.15,112.66 Q1059.3531,112.16 1059.5875,111.91 Q1059.8219,111.66 1060.0875,111.66 Q1060.5563,111.66 1060.8531,111.9413 Q1061.15,112.2225 1061.15,112.8788 L1061.15,114.4413 Q1061.15,115.0975 1060.8688,115.3788 Q1060.5875,115.66 1060.15,115.66 Q1059.7594,115.66 1059.5094,115.4881 Q1059.2594,115.3163 1059.15,114.8631 Q1059.1031,114.5506 1058.9313,114.3788 Q1058.6188,114.0506 1058.0563,113.8631 Q1057.4938,113.66 1056.9313,113.66 Q1056.2281,113.66 1055.6344,113.9413 Q1055.0563,114.2225 1054.6031,114.8475 Q1054.15,115.4725 1054.15,116.3319 L1054.15,117.2538 Q1054.15,118.285 1054.9938,118.9725 Q1055.8375,119.66 1057.3375,119.66 Q1058.2281,119.66 1058.8531,119.4569 Q1059.2125,119.3475 1059.6188,118.9881 Q1059.8844,118.785 1060.025,118.7225 Q1060.1656,118.66 1060.3375,118.66 Q1060.6656,118.66 1060.9,118.9256 Q1061.15,119.1756 1061.15,119.535 Q1061.15,119.8788 1060.8063,120.285 Q1060.3063,120.8788 1059.5094,121.2069 Q1058.4625,121.66 1057.1813,121.66 Q1055.6813,121.66 1054.4781,121.0663 Q1053.5094,120.5975 1052.8219,119.5819 Q1052.15,118.5663 1052.15,117.3631 L1052.15,116.2694 Q1052.15,115.0194 1052.7438,113.9256 Q1053.3531,112.8319 1054.4,112.2538 Q1055.4625,111.66 1056.65,111.66 Q1057.3688,111.66 1057.9938,111.91 Q1058.6188,112.16 1059.15,112.66 Z " fill="#000000"/><text fill="#000000" font-family="sans-serif" font-size="12" lengthAdjust="spacing" textLength="62" x="1071.85" y="121.0702">WorkflowID</text><line style="stroke:#A80036;stroke-width:1.5;" x1="1040" x2="1139" y1="132.16" y2="132.16"/><text fill="#000000" font-family="sans-serif" font-size="11" lengthAdjust="spacing" textLength="89" x="1045" y="147.5789">String WorkflowId;</text><line style="stroke:#A80036;stroke-width:1.5;" x1="1040" x2="1139" y1="153.9959" y2="153.9959"/><!--MD5=[ac6bea31e13c94c7baa9ad18feb7405e]
class Ticket--><rect codeLine="29" fill="#FEFECE" filter="url(#f14249qpgpfibg)" height="117.1797" id="Ticket" style="stroke:#A80036;stroke-width:1.5;" width="215" x="381" y="72.66"/><ellipse cx="468.25" cy="88.66" fill="#ADD1B2" rx="11" ry="11" style="stroke:#A80036;stroke-width:1.0;"/><path d="M470.25,85.16 Q470.4531,84.66 470.6875,84.41 Q470.9219,84.16 471.1875,84.16 Q471.6563,84.16 471.9531,84.4413 Q472.25,84.7225 472.25,85.3788 L472.25,86.9413 Q472.25,87.5975 471.9688,87.8788 Q471.6875,88.16 471.25,88.16 Q470.8594,88.16 470.6094,87.9881 Q470.3594,87.8163 470.25,87.3631 Q470.2031,87.0506 470.0313,86.8788 Q469.7188,86.5506 469.1563,86.3631 Q468.5938,86.16 468.0313,86.16 Q467.3281,86.16 466.7344,86.4413 Q466.1563,86.7225 465.7031,87.3475 Q465.25,87.9725 465.25,88.8319 L465.25,89.7538 Q465.25,90.785 466.0938,91.4725 Q466.9375,92.16 468.4375,92.16 Q469.3281,92.16 469.9531,91.9569 Q470.3125,91.8475 470.7188,91.4881 Q470.9844,91.285 471.125,91.2225 Q471.2656,91.16 471.4375,91.16 Q471.7656,91.16 472,91.4256 Q472.25,91.6756 472.25,92.035 Q472.25,92.3788 471.9063,92.785 Q471.4063,93.3788 470.6094,93.7069 Q469.5625,94.16 468.2813,94.16 Q466.7813,94.16 465.5781,93.5663 Q464.6094,93.0975 463.9219,92.0819 Q463.25,91.0663 463.25,89.8631 L463.25,88.7694 Q463.25,87.5194 463.8438,86.4256 Q464.4531,85.3319 465.5,84.7538 Q466.5625,84.16 467.75,84.16 Q468.4688,84.16 469.0938,84.41 Q469.7188,84.66 470.25,85.16 Z " fill="#000000"/><text fill="#000000" font-family="sans-serif" font-size="12" lengthAdjust="spacing" textLength="32" x="488.75" y="93.5702">Ticket</text><line style="stroke:#A80036;stroke-width:1.5;" x1="382" x2="595" y1="104.66" y2="104.66"/><text fill="#000000" font-family="sans-serif" font-size="11" lengthAdjust="spacing" textLength="72" x="387" y="120.0789">TicketId ticketId</text><text fill="#000000" font-family="sans-serif" font-size="11" lengthAdjust="spacing" textLength="92" x="387" y="133.9149">Colaborator booker</text><text fill="#000000" font-family="sans-serif" font-size="11" lengthAdjust="spacing" textLength="129" x="387" y="147.7508">FormAnswer formAnswer</text><text fill="#000000" font-family="sans-serif" font-size="11" lengthAdjust="spacing" textLength="76" x="387" y="161.5868">Service service</text><text fill="#000000" font-family="sans-serif" font-size="11" lengthAdjust="spacing" textLength="203" x="387" y="175.4227">WorkFlowExecution workFlowExecutionId</text><line style="stroke:#A80036;stroke-width:1.5;" x1="382" x2="595" y1="181.8397" y2="181.8397"/><!--MD5=[55cb5a27cc7918d55c7c1e959c584c82]
class TicketID--><rect codeLine="37" fill="#FEFECE" filter="url(#f14249qpgpfibg)" height="75.6719" id="TicketID" style="stroke:#A80036;stroke-width:1.5;" width="76" x="765.5" y="93.16"/><ellipse cx="780.5" cy="109.16" fill="#ADD1B2" rx="11" ry="11" style="stroke:#A80036;stroke-width:1.0;"/><path d="M782.5,105.66 Q782.7031,105.16 782.9375,104.91 Q783.1719,104.66 783.4375,104.66 Q783.9063,104.66 784.2031,104.9413 Q784.5,105.2225 784.5,105.8788 L784.5,107.4413 Q784.5,108.0975 784.2188,108.3788 Q783.9375,108.66 783.5,108.66 Q783.1094,108.66 782.8594,108.4881 Q782.6094,108.3163 782.5,107.8631 Q782.4531,107.5506 782.2813,107.3788 Q781.9688,107.0506 781.4063,106.8631 Q780.8438,106.66 780.2813,106.66 Q779.5781,106.66 778.9844,106.9413 Q778.4063,107.2225 777.9531,107.8475 Q777.5,108.4725 777.5,109.3319 L777.5,110.2538 Q777.5,111.285 778.3438,111.9725 Q779.1875,112.66 780.6875,112.66 Q781.5781,112.66 782.2031,112.4569 Q782.5625,112.3475 782.9688,111.9881 Q783.2344,111.785 783.375,111.7225 Q783.5156,111.66 783.6875,111.66 Q784.0156,111.66 784.25,111.9256 Q784.5,112.1756 784.5,112.535 Q784.5,112.8788 784.1563,113.285 Q783.6563,113.8788 782.8594,114.2069 Q781.8125,114.66 780.5313,114.66 Q779.0313,114.66 777.8281,114.0663 Q776.8594,113.5975 776.1719,112.5819 Q775.5,111.5663 775.5,110.3631 L775.5,109.2694 Q775.5,108.0194 776.0938,106.9256 Q776.7031,105.8319 777.75,105.2538 Q778.8125,104.66 780,104.66 Q780.7188,104.66 781.3438,104.91 Q781.9688,105.16 782.5,105.66 Z " fill="#000000"/><text fill="#000000" font-family="sans-serif" font-size="12" lengthAdjust="spacing" textLength="44" x="794.5" y="114.0702">TicketID</text><line style="stroke:#A80036;stroke-width:1.5;" x1="766.5" x2="840.5" y1="125.16" y2="125.16"/><text fill="#000000" font-family="sans-serif" font-size="11" lengthAdjust="spacing" textLength="36" x="771.5" y="140.5789">int year</text><text fill="#000000" font-family="sans-serif" font-size="11" lengthAdjust="spacing" textLength="50" x="771.5" y="154.4149">int number</text><line style="stroke:#A80036;stroke-width:1.5;" x1="766.5" x2="840.5" y1="160.8319" y2="160.8319"/><!--MD5=[6395256d0a50d27ca1f6d8b64b5d949b]
class TicketStatus--><rect codeLine="42" fill="#FEFECE" filter="url(#f14249qpgpfibg)" height="61.8359" id="TicketStatus" style="stroke:#A80036;stroke-width:1.5;" width="99" x="631" y="100.16"/><ellipse cx="646" cy="116.16" fill="#ADD1B2" rx="11" ry="11" style="stroke:#A80036;stroke-width:1.0;"/><path d="M648,112.66 Q648.2031,112.16 648.4375,111.91 Q648.6719,111.66 648.9375,111.66 Q649.4063,111.66 649.7031,111.9413 Q650,112.2225 650,112.8788 L650,114.4413 Q650,115.0975 649.7188,115.3788 Q649.4375,115.66 649,115.66 Q648.6094,115.66 648.3594,115.4881 Q648.1094,115.3163 648,114.8631 Q647.9531,114.5506 647.7813,114.3788 Q647.4688,114.0506 646.9063,113.8631 Q646.3438,113.66 645.7813,113.66 Q645.0781,113.66 644.4844,113.9413 Q643.9063,114.2225 643.4531,114.8475 Q643,115.4725 643,116.3319 L643,117.2538 Q643,118.285 643.8438,118.9725 Q644.6875,119.66 646.1875,119.66 Q647.0781,119.66 647.7031,119.4569 Q648.0625,119.3475 648.4688,118.9881 Q648.7344,118.785 648.875,118.7225 Q649.0156,118.66 649.1875,118.66 Q649.5156,118.66 649.75,118.9256 Q650,119.1756 650,119.535 Q650,119.8788 649.6563,120.285 Q649.1563,120.8788 648.3594,121.2069 Q647.3125,121.66 646.0313,121.66 Q644.5313,121.66 643.3281,121.0663 Q642.3594,120.5975 641.6719,119.5819 Q641,118.5663 641,117.3631 L641,116.2694 Q641,115.0194 641.5938,113.9256 Q642.2031,112.8319 643.25,112.2538 Q644.3125,111.66 645.5,111.66 Q646.2188,111.66 646.8438,111.91 Q647.4688,112.16 648,112.66 Z " fill="#000000"/><text fill="#000000" font-family="sans-serif" font-size="12" lengthAdjust="spacing" textLength="67" x="660" y="121.0702">TicketStatus</text><line style="stroke:#A80036;stroke-width:1.5;" x1="632" x2="729" y1="132.16" y2="132.16"/><text fill="#000000" font-family="sans-serif" font-size="11" lengthAdjust="spacing" textLength="61" x="637" y="147.5789">String status</text><line style="stroke:#A80036;stroke-width:1.5;" x1="632" x2="729" y1="153.9959" y2="153.9959"/><!--MD5=[f9cd6c2ef55876403517ca3b14855113]
link RequestServiceUI to RequestServiceController--><path codeLine="47" d="M138.24,131.16 C148.06,131.16 157.87,131.16 167.69,131.16 " fill="none" id="RequestServiceUI-to-RequestServiceController" style="stroke:#A80036;stroke-width:1.0;"/><polygon fill="#A80036" points="172.82,131.16,163.82,127.16,167.82,131.16,163.82,135.16,172.82,131.16" style="stroke:#A80036;stroke-width:1.0;"/><!--MD5=[2414131a860c924c129c12ccf0ae00bc]
link RequestServiceController to Workflow--><path codeLine="48" d="M306.63,86.08 C327.67,68.98 353.83,51.51 381,42.66 C478.41,10.94 746.34,6 842,42.66 C869.97,53.38 894.99,76.12 912.81,95.86 " fill="none" id="RequestServiceController-to-Workflow" style="stroke:#A80036;stroke-width:1.0;"/><polygon fill="#A80036" points="916.28,99.77,913.3082,90.3802,912.9653,96.0267,907.3188,95.6838,916.28,99.77" style="stroke:#A80036;stroke-width:1.0;"/><!--MD5=[199c71c6adc709b369bd3756e6367dc2]
link RequestServiceController to Ticket--><path codeLine="49" d="M346.27,131.16 C356.13,131.16 365.98,131.16 375.84,131.16 " fill="none" id="RequestServiceController-to-Ticket" style="stroke:#A80036;stroke-width:1.0;"/><polygon fill="#A80036" points="380.99,131.16,371.99,127.16,375.99,131.16,371.99,135.16,380.99,131.16" style="stroke:#A80036;stroke-width:1.0;"/><!--MD5=[9630c32b8e52c0b95c9376befdc0a9fd]
link Workflow to WorkflowExecution--><path codeLine="51" d="M964.72,99.77 C982.69,79.2 1009.16,54.1 1039,42.66 C1080.92,26.6 1096.76,30.61 1140,42.66 C1173.83,52.08 1207.64,71.67 1234.25,90.02 " fill="none" id="Workflow-to-WorkflowExecution" style="stroke:#A80036;stroke-width:1.0;"/><polygon fill="#A80036" points="1238.46,92.95,1233.3827,84.5107,1234.3645,90.0817,1228.7935,91.0635,1238.46,92.95" style="stroke:#A80036;stroke-width:1.0;"/><!--MD5=[4e1c4bbe00369450e4ae72601481a1a9]
link Workflow to WorkflowID--><path codeLine="52" d="M1004.23,131.16 C1014.07,131.16 1023.9,131.16 1033.73,131.16 " fill="none" id="Workflow-to-WorkflowID" style="stroke:#A80036;stroke-width:1.0;"/><polygon fill="#A80036" points="1038.87,131.16,1029.87,127.16,1033.87,131.16,1029.87,135.16,1038.87,131.16" style="stroke:#A80036;stroke-width:1.0;"/><!--MD5=[3b8de2d087b07496f4c9c1de57740c68]
link WorkflowExecution to WorkflowExecutionID--><path codeLine="53" d="M1398.29,131.16 C1408.22,131.16 1418.15,131.16 1428.08,131.16 " fill="none" id="WorkflowExecution-to-WorkflowExecutionID" style="stroke:#A80036;stroke-width:1.0;"/><polygon fill="#A80036" points="1433.27,131.16,1424.27,127.16,1428.27,131.16,1424.27,135.16,1433.27,131.16" style="stroke:#A80036;stroke-width:1.0;"/><!--MD5=[ee5c81968339e20f0cdcf7aefc8836f5]
link Ticket to TicketID--><path codeLine="55" d="M565.8,72.48 C586,60.23 608.46,49.09 631,42.66 C673.31,30.59 690.17,23.96 730,42.66 C750.5,52.28 767.26,70.74 779.57,88.33 " fill="none" id="Ticket-to-TicketID" style="stroke:#A80036;stroke-width:1.0;"/><polygon fill="#A80036" points="782.6,92.77,780.8131,83.0846,779.774,88.6452,774.2134,87.6062,782.6,92.77" style="stroke:#A80036;stroke-width:1.0;"/><!--MD5=[b58d93e04cfc8eaf29daaa2f5c8c28e8]
link Ticket to TicketStatus--><path codeLine="56" d="M596.12,131.16 C605.95,131.16 615.77,131.16 625.59,131.16 " fill="none" id="Ticket-to-TicketStatus" style="stroke:#A80036;stroke-width:1.0;"/><polygon fill="#A80036" points="630.73,131.16,621.73,127.16,625.73,131.16,621.73,135.16,630.73,131.16" style="stroke:#A80036;stroke-width:1.0;"/><!--MD5=[798311097fd1b0c8a2357aba1e9509c2]
@startuml
'https://plantuml.com/class-diagram

class RequestServiceUI {
}

class RequestServiceController {
    +getServicesByCatalogue();
    +requestService();
    +currentUser();
}

class Workflow{
    WorkFlowId workflowId
}

class WorkflowExecution{
    WorkFlowExecutionId workFlowExecutionId
    WorkFlow workFlow
}

class WorkflowExecutionID{
    String WorkflowExecutionId;
}

class WorkflowID{
    String WorkflowId;
}

class Ticket{
    TicketId ticketId
    Colaborator booker
    FormAnswer formAnswer
    Service service
    WorkFlowExecution workFlowExecutionId
}

class TicketID{
    int year
    int number
}

class TicketStatus{
    String status
}


RequestServiceUI -> RequestServiceController
RequestServiceController -> Workflow
RequestServiceController -> Ticket

Workflow -> WorkflowExecution
Workflow -> WorkflowID
WorkflowExecution -> WorkflowExecutionID

Ticket -> TicketID
Ticket -> TicketStatus

@enduml

@startuml

class RequestServiceUI {
}

class RequestServiceController {
    +getServicesByCatalogue();
    +requestService();
    +currentUser();
}

class Workflow{
    WorkFlowId workflowId
}

class WorkflowExecution{
    WorkFlowExecutionId workFlowExecutionId
    WorkFlow workFlow
}

class WorkflowExecutionID{
    String WorkflowExecutionId;
}

class WorkflowID{
    String WorkflowId;
}

class Ticket{
    TicketId ticketId
    Colaborator booker
    FormAnswer formAnswer
    Service service
    WorkFlowExecution workFlowExecutionId
}

class TicketID{
    int year
    int number
}

class TicketStatus{
    String status
}


RequestServiceUI -> RequestServiceController
RequestServiceController -> Workflow
RequestServiceController -> Ticket

Workflow -> WorkflowExecution
Workflow -> WorkflowID
WorkflowExecution -> WorkflowExecutionID

Ticket -> TicketID
Ticket -> TicketStatus

@enduml

PlantUML version 1.2021.7(Sun May 23 13:40:07 BST 2021)
(GPL source distribution)
Java Runtime: OpenJDK Runtime Environment
JVM: Dynamic Code Evolution 64-Bit Server VM
Default Encoding: Cp1252
Language: pt
Country: PT
--></g></svg>