<?xml version="1.0" encoding="UTF-8" standalone="no"?><svg xmlns="http://www.w3.org/2000/svg" xmlns:xlink="http://www.w3.org/1999/xlink" contentScriptType="application/ecmascript" contentStyleType="text/css" height="942px" preserveAspectRatio="none" style="width:1713px;height:942px;background:#FFFFFF;" version="1.1" viewBox="0 0 1713 942" width="1713px" zoomAndPan="magnify"><defs><filter height="300%" id="f3t8jj23e8nbd" width="300%" x="-1" y="-1"><feGaussianBlur result="blurOut" stdDeviation="2.0"/><feColorMatrix in="blurOut" result="blurOut2" type="matrix" values="0 0 0 0 0 0 0 0 0 0 0 0 0 0 0 0 0 0 .4 0"/><feOffset dx="4.0" dy="4.0" in="blurOut2" result="blurOut3"/><feBlend in="SourceGraphic" in2="blurOut3" mode="normal"/></filter></defs><g><rect fill="#FFFFFF" filter="url(#f3t8jj23e8nbd)" height="60.7031" style="stroke:#A80036;stroke-width:1.0;" width="10" x="335" y="121.9609"/><rect fill="#FFFFFF" filter="url(#f3t8jj23e8nbd)" height="626.3281" style="stroke:#A80036;stroke-width:1.0;" width="10" x="335" y="213.0156"/><rect fill="#FFFFFF" filter="url(#f3t8jj23e8nbd)" height="565.625" style="stroke:#A80036;stroke-width:1.0;" width="10" x="679" y="243.3672"/><rect fill="#FFFFFF" filter="url(#f3t8jj23e8nbd)" height="30" style="stroke:#A80036;stroke-width:1.0;" width="10" x="826.5" y="273.7188"/><rect fill="#FFFFFF" filter="url(#f3t8jj23e8nbd)" height="30" style="stroke:#A80036;stroke-width:1.0;" width="10" x="826.5" y="334.0703"/><rect fill="#FFFFFF" filter="url(#f3t8jj23e8nbd)" height="91.0547" style="stroke:#A80036;stroke-width:1.0;" width="10" x="826.5" y="434.7734"/><rect fill="#FFFFFF" filter="url(#f3t8jj23e8nbd)" height="101.0547" style="stroke:#A80036;stroke-width:1.0;" width="10" x="1362.5" y="556.1797"/><rect fill="#FFFFFF" filter="url(#f3t8jj23e8nbd)" height="60.7031" style="stroke:#A80036;stroke-width:1.0;" width="10" x="1509.5" y="687.5859"/><line style="stroke:#A80036;stroke-width:1.0;stroke-dasharray:5.0,5.0;" x1="60" x2="60" y1="89.6094" y2="857.3438"/><line style="stroke:#A80036;stroke-width:1.0;stroke-dasharray:5.0,5.0;" x1="340" x2="340" y1="89.6094" y2="857.3438"/><line style="stroke:#A80036;stroke-width:1.0;stroke-dasharray:5.0,5.0;" x1="684" x2="684" y1="89.6094" y2="857.3438"/><line style="stroke:#A80036;stroke-width:1.0;stroke-dasharray:5.0,5.0;" x1="831" x2="831" y1="89.6094" y2="857.3438"/><line style="stroke:#A80036;stroke-width:1.0;stroke-dasharray:5.0,5.0;" x1="1243.5" x2="1243.5" y1="89.6094" y2="857.3438"/><line style="stroke:#A80036;stroke-width:1.0;stroke-dasharray:5.0,5.0;" x1="1367.5" x2="1367.5" y1="89.6094" y2="857.3438"/><line style="stroke:#A80036;stroke-width:1.0;stroke-dasharray:5.0,5.0;" x1="1514.5" x2="1514.5" y1="89.6094" y2="857.3438"/><line style="stroke:#A80036;stroke-width:1.0;stroke-dasharray:5.0,5.0;" x1="1644.5" x2="1644.5" y1="89.6094" y2="857.3438"/><text fill="#000000" font-family="sans-serif" font-size="14" lengthAdjust="spacing" textLength="104" x="5" y="86.5332">Project Manager</text><ellipse cx="60" cy="15" fill="#FEFECE" filter="url(#f3t8jj23e8nbd)" rx="8" ry="8" style="stroke:#A80036;stroke-width:2.0;"/><path d="M60,23 L60,50 M47,31 L73,31 M60,50 L47,65 M60,50 L73,65 " fill="none" filter="url(#f3t8jj23e8nbd)" style="stroke:#A80036;stroke-width:2.0;"/><text fill="#000000" font-family="sans-serif" font-size="14" lengthAdjust="spacing" textLength="104" x="5" y="870.877">Project Manager</text><ellipse cx="60" cy="883.9531" fill="#FEFECE" filter="url(#f3t8jj23e8nbd)" rx="8" ry="8" style="stroke:#A80036;stroke-width:2.0;"/><path d="M60,891.9531 L60,918.9531 M47,899.9531 L73,899.9531 M60,918.9531 L47,933.9531 M60,918.9531 L73,933.9531 " fill="none" filter="url(#f3t8jj23e8nbd)" style="stroke:#A80036;stroke-width:2.0;"/><rect fill="#FEFECE" filter="url(#f3t8jj23e8nbd)" height="31.6094" style="stroke:#A80036;stroke-width:1.5;" width="126" x="275" y="53"/><text fill="#000000" font-family="sans-serif" font-size="14" lengthAdjust="spacing" textLength="112" x="282" y="74.5332">RequestServiceUI</text><rect fill="#FEFECE" filter="url(#f3t8jj23e8nbd)" height="31.6094" style="stroke:#A80036;stroke-width:1.5;" width="126" x="275" y="856.3438"/><text fill="#000000" font-family="sans-serif" font-size="14" lengthAdjust="spacing" textLength="112" x="282" y="877.877">RequestServiceUI</text><rect fill="#FEFECE" filter="url(#f3t8jj23e8nbd)" height="31.6094" style="stroke:#A80036;stroke-width:1.5;" width="176" x="594" y="53"/><text fill="#000000" font-family="sans-serif" font-size="14" lengthAdjust="spacing" textLength="162" x="601" y="74.5332">RequestServiceController</text><rect fill="#FEFECE" filter="url(#f3t8jj23e8nbd)" height="31.6094" style="stroke:#A80036;stroke-width:1.5;" width="176" x="594" y="856.3438"/><text fill="#000000" font-family="sans-serif" font-size="14" lengthAdjust="spacing" textLength="162" x="601" y="877.877">RequestServiceController</text><rect fill="#FEFECE" filter="url(#f3t8jj23e8nbd)" height="31.6094" style="stroke:#A80036;stroke-width:1.5;" width="91" x="784" y="53"/><text fill="#000000" font-family="sans-serif" font-size="14" lengthAdjust="spacing" textLength="77" x="791" y="74.5332">ticketBuilder</text><rect fill="#FEFECE" filter="url(#f3t8jj23e8nbd)" height="31.6094" style="stroke:#A80036;stroke-width:1.5;" width="91" x="784" y="856.3438"/><text fill="#000000" font-family="sans-serif" font-size="14" lengthAdjust="spacing" textLength="77" x="791" y="877.877">ticketBuilder</text><rect fill="#FEFECE" filter="url(#f3t8jj23e8nbd)" height="31.6094" style="stroke:#A80036;stroke-width:1.5;" width="84" x="1199.5" y="53"/><text fill="#000000" font-family="sans-serif" font-size="14" lengthAdjust="spacing" textLength="70" x="1206.5" y="74.5332">ticket:ticket</text><rect fill="#FEFECE" filter="url(#f3t8jj23e8nbd)" height="31.6094" style="stroke:#A80036;stroke-width:1.5;" width="84" x="1199.5" y="856.3438"/><text fill="#000000" font-family="sans-serif" font-size="14" lengthAdjust="spacing" textLength="70" x="1206.5" y="877.877">ticket:ticket</text><rect fill="#FEFECE" filter="url(#f3t8jj23e8nbd)" height="31.6094" style="stroke:#A80036;stroke-width:1.5;" width="136" x="1297.5" y="53"/><text fill="#000000" font-family="sans-serif" font-size="14" lengthAdjust="spacing" textLength="122" x="1304.5" y="74.5332">PersistenceContext</text><rect fill="#FEFECE" filter="url(#f3t8jj23e8nbd)" height="31.6094" style="stroke:#A80036;stroke-width:1.5;" width="136" x="1297.5" y="856.3438"/><text fill="#000000" font-family="sans-serif" font-size="14" lengthAdjust="spacing" textLength="122" x="1304.5" y="877.877">PersistenceContext</text><rect fill="#FEFECE" filter="url(#f3t8jj23e8nbd)" height="31.6094" style="stroke:#A80036;stroke-width:1.5;" width="130" x="1447.5" y="53"/><text fill="#000000" font-family="sans-serif" font-size="14" lengthAdjust="spacing" textLength="116" x="1454.5" y="74.5332">RepositoryFactory</text><rect fill="#FEFECE" filter="url(#f3t8jj23e8nbd)" height="31.6094" style="stroke:#A80036;stroke-width:1.5;" width="130" x="1447.5" y="856.3438"/><text fill="#000000" font-family="sans-serif" font-size="14" lengthAdjust="spacing" textLength="116" x="1454.5" y="877.877">RepositoryFactory</text><text fill="#000000" font-family="sans-serif" font-size="14" lengthAdjust="spacing" textLength="101" x="1591.5" y="86.5332">ticketRepository</text><path d="M1627,36 C1627,26 1645,26 1645,26 C1645,26 1663,26 1663,36 L1663,62 C1663,72 1645,72 1645,72 C1645,72 1627,72 1627,62 L1627,36 " fill="#FEFECE" filter="url(#f3t8jj23e8nbd)" style="stroke:#000000;stroke-width:1.5;"/><path d="M1627,36 C1627,46 1645,46 1645,46 C1645,46 1663,46 1663,36 " fill="none" style="stroke:#000000;stroke-width:1.5;"/><text fill="#000000" font-family="sans-serif" font-size="14" lengthAdjust="spacing" textLength="101" x="1591.5" y="870.877">ticketRepository</text><path d="M1627,883.9531 C1627,873.9531 1645,873.9531 1645,873.9531 C1645,873.9531 1663,873.9531 1663,883.9531 L1663,909.9531 C1663,919.9531 1645,919.9531 1645,919.9531 C1645,919.9531 1627,919.9531 1627,909.9531 L1627,883.9531 " fill="#FEFECE" filter="url(#f3t8jj23e8nbd)" style="stroke:#000000;stroke-width:1.5;"/><path d="M1627,883.9531 C1627,893.9531 1645,893.9531 1645,893.9531 C1645,893.9531 1663,893.9531 1663,883.9531 " fill="none" style="stroke:#000000;stroke-width:1.5;"/><rect fill="#FFFFFF" filter="url(#f3t8jj23e8nbd)" height="60.7031" style="stroke:#A80036;stroke-width:1.0;" width="10" x="335" y="121.9609"/><rect fill="#FFFFFF" filter="url(#f3t8jj23e8nbd)" height="626.3281" style="stroke:#A80036;stroke-width:1.0;" width="10" x="335" y="213.0156"/><rect fill="#FFFFFF" filter="url(#f3t8jj23e8nbd)" height="565.625" style="stroke:#A80036;stroke-width:1.0;" width="10" x="679" y="243.3672"/><rect fill="#FFFFFF" filter="url(#f3t8jj23e8nbd)" height="30" style="stroke:#A80036;stroke-width:1.0;" width="10" x="826.5" y="273.7188"/><rect fill="#FFFFFF" filter="url(#f3t8jj23e8nbd)" height="30" style="stroke:#A80036;stroke-width:1.0;" width="10" x="826.5" y="334.0703"/><rect fill="#FFFFFF" filter="url(#f3t8jj23e8nbd)" height="91.0547" style="stroke:#A80036;stroke-width:1.0;" width="10" x="826.5" y="434.7734"/><rect fill="#FFFFFF" filter="url(#f3t8jj23e8nbd)" height="101.0547" style="stroke:#A80036;stroke-width:1.0;" width="10" x="1362.5" y="556.1797"/><rect fill="#FFFFFF" filter="url(#f3t8jj23e8nbd)" height="60.7031" style="stroke:#A80036;stroke-width:1.0;" width="10" x="1509.5" y="687.5859"/><polygon fill="#A80036" points="323,117.9609,333,121.9609,323,125.9609,327,121.9609" style="stroke:#A80036;stroke-width:1.0;"/><line style="stroke:#A80036;stroke-width:1.0;stroke-dasharray:2.0,2.0;" x1="60" x2="329" y1="121.9609" y2="121.9609"/><text fill="#000000" font-family="sans-serif" font-size="13" font-weight="bold" lengthAdjust="spacing" textLength="7" x="67" y="117.1045">1</text><text fill="#000000" font-family="sans-serif" font-size="13" lengthAdjust="spacing" textLength="95" x="78" y="117.1045">Register a ticket</text><polygon fill="#A80036" points="672,148.3125,682,152.3125,672,156.3125,676,152.3125" style="stroke:#A80036;stroke-width:1.0;"/><line style="stroke:#A80036;stroke-width:1.0;" x1="345" x2="678" y1="152.3125" y2="152.3125"/><text fill="#000000" font-family="sans-serif" font-size="13" font-weight="bold" lengthAdjust="spacing" textLength="7" x="352" y="147.4561">2</text><text fill="#000000" font-family="sans-serif" font-size="13" lengthAdjust="spacing" textLength="36" x="363" y="147.4561">create</text><polygon fill="#A80036" points="71,178.6641,61,182.6641,71,186.6641,67,182.6641" style="stroke:#A80036;stroke-width:1.0;"/><line style="stroke:#A80036;stroke-width:1.0;stroke-dasharray:2.0,2.0;" x1="65" x2="339" y1="182.6641" y2="182.6641"/><text fill="#000000" font-family="sans-serif" font-size="13" font-weight="bold" lengthAdjust="spacing" textLength="7" x="77" y="177.8076">3</text><text fill="#000000" font-family="sans-serif" font-size="13" lengthAdjust="spacing" textLength="240" x="88" y="177.8076">Requests necessary credentials for ticket</text><polygon fill="#A80036" points="323,209.0156,333,213.0156,323,217.0156,327,213.0156" style="stroke:#A80036;stroke-width:1.0;"/><line style="stroke:#A80036;stroke-width:1.0;stroke-dasharray:2.0,2.0;" x1="60" x2="329" y1="213.0156" y2="213.0156"/><text fill="#000000" font-family="sans-serif" font-size="13" font-weight="bold" lengthAdjust="spacing" textLength="7" x="67" y="208.1592">4</text><text fill="#000000" font-family="sans-serif" font-size="13" lengthAdjust="spacing" textLength="90" x="78" y="208.1592">Inserts the data</text><polygon fill="#A80036" points="667,239.3672,677,243.3672,667,247.3672,671,243.3672" style="stroke:#A80036;stroke-width:1.0;"/><line style="stroke:#A80036;stroke-width:1.0;" x1="345" x2="673" y1="243.3672" y2="243.3672"/><text fill="#000000" font-family="sans-serif" font-size="13" font-weight="bold" lengthAdjust="spacing" textLength="7" x="352" y="238.5107">5</text><text fill="#000000" font-family="sans-serif" font-size="13" lengthAdjust="spacing" textLength="304" x="363" y="238.5107">service = requestService(theService, params, values)</text><polygon fill="#A80036" points="814.5,269.7188,824.5,273.7188,814.5,277.7188,818.5,273.7188" style="stroke:#A80036;stroke-width:1.0;"/><line style="stroke:#A80036;stroke-width:1.0;" x1="689" x2="820.5" y1="273.7188" y2="273.7188"/><text fill="#000000" font-family="sans-serif" font-size="13" font-weight="bold" lengthAdjust="spacing" textLength="7" x="696" y="268.8623">6</text><text fill="#000000" font-family="sans-serif" font-size="13" lengthAdjust="spacing" textLength="93" x="707" y="268.8623">requestService()</text><polygon fill="#A80036" points="814.5,330.0703,824.5,334.0703,814.5,338.0703,818.5,334.0703" style="stroke:#A80036;stroke-width:1.0;"/><line style="stroke:#A80036;stroke-width:1.0;" x1="689" x2="820.5" y1="334.0703" y2="334.0703"/><text fill="#000000" font-family="sans-serif" font-size="13" font-weight="bold" lengthAdjust="spacing" textLength="7" x="696" y="329.2139">7</text><text fill="#000000" font-family="sans-serif" font-size="13" lengthAdjust="spacing" textLength="58" x="707" y="329.2139">setticket()</text><path d="M617,377.0703 L617,403.0703 L897,403.0703 L897,387.0703 L887,377.0703 L617,377.0703 " fill="#FBFB77" filter="url(#f3t8jj23e8nbd)" style="stroke:#A80036;stroke-width:1.0;"/><path d="M887,377.0703 L887,387.0703 L897,387.0703 L887,377.0703 " fill="#FBFB77" style="stroke:#A80036;stroke-width:1.0;"/><text fill="#000000" font-family="sans-serif" font-size="13" lengthAdjust="spacing" textLength="178" x="661.5" y="395.5654">Sets the rest of the information</text><polygon fill="#A80036" points="814.5,430.7734,824.5,434.7734,814.5,438.7734,818.5,434.7734" style="stroke:#A80036;stroke-width:1.0;"/><line style="stroke:#A80036;stroke-width:1.0;" x1="689" x2="820.5" y1="434.7734" y2="434.7734"/><text fill="#000000" font-family="sans-serif" font-size="13" font-weight="bold" lengthAdjust="spacing" textLength="7" x="696" y="429.917">8</text><text fill="#000000" font-family="sans-serif" font-size="13" lengthAdjust="spacing" textLength="93" x="707" y="429.917">requestService()</text><polygon fill="#A80036" points="1231.5,461.125,1241.5,465.125,1231.5,469.125,1235.5,465.125" style="stroke:#A80036;stroke-width:1.0;"/><line style="stroke:#A80036;stroke-width:1.0;" x1="836.5" x2="1237.5" y1="465.125" y2="465.125"/><text fill="#000000" font-family="sans-serif" font-size="13" font-weight="bold" lengthAdjust="spacing" textLength="7" x="843.5" y="460.2686">9</text><text fill="#000000" font-family="sans-serif" font-size="13" lengthAdjust="spacing" textLength="372" x="854.5" y="460.2686">newTicket(ticketId, currentUser().get(), formAnswer, service, wfe)</text><polygon fill="#A80036" points="847.5,491.4766,837.5,495.4766,847.5,499.4766,843.5,495.4766" style="stroke:#A80036;stroke-width:1.0;"/><line style="stroke:#A80036;stroke-width:1.0;" x1="841.5" x2="1242.5" y1="495.4766" y2="495.4766"/><text fill="#000000" font-family="sans-serif" font-size="13" font-weight="bold" lengthAdjust="spacing" textLength="14" x="853.5" y="490.6201">10</text><text fill="#000000" font-family="sans-serif" font-size="13" lengthAdjust="spacing" textLength="32" x="871.5" y="490.6201">ticket</text><polygon fill="#A80036" points="700,521.8281,690,525.8281,700,529.8281,696,525.8281" style="stroke:#A80036;stroke-width:1.0;"/><line style="stroke:#A80036;stroke-width:1.0;" x1="694" x2="830.5" y1="525.8281" y2="525.8281"/><text fill="#000000" font-family="sans-serif" font-size="13" font-weight="bold" lengthAdjust="spacing" textLength="14" x="706" y="520.9717">11</text><text fill="#000000" font-family="sans-serif" font-size="13" lengthAdjust="spacing" textLength="32" x="724" y="520.9717">ticket</text><polygon fill="#A80036" points="1350.5,552.1797,1360.5,556.1797,1350.5,560.1797,1354.5,556.1797" style="stroke:#A80036;stroke-width:1.0;"/><line style="stroke:#A80036;stroke-width:1.0;" x1="689" x2="1356.5" y1="556.1797" y2="556.1797"/><text fill="#000000" font-family="sans-serif" font-size="13" font-weight="bold" lengthAdjust="spacing" textLength="14" x="696" y="551.3232">12</text><text fill="#000000" font-family="sans-serif" font-size="13" lengthAdjust="spacing" textLength="0" x="718" y="551.3232"/><path d="M1308,569.1797 L1308,595.1797 L1704,595.1797 L1704,579.1797 L1694,569.1797 L1308,569.1797 " fill="#FBFB77" filter="url(#f3t8jj23e8nbd)" style="stroke:#A80036;stroke-width:1.0;"/><path d="M1694,569.1797 L1694,579.1797 L1704,579.1797 L1694,569.1797 " fill="#FBFB77" style="stroke:#A80036;stroke-width:1.0;"/><text fill="#000000" font-family="sans-serif" font-size="13" lengthAdjust="spacing" textLength="248" x="1375.5" y="587.6748">can create an repository in memory or JPA</text><polygon fill="#A80036" points="1502.5,622.8828,1512.5,626.8828,1502.5,630.8828,1506.5,626.8828" style="stroke:#A80036;stroke-width:1.0;"/><line style="stroke:#A80036;stroke-width:1.0;" x1="1372.5" x2="1508.5" y1="626.8828" y2="626.8828"/><text fill="#000000" font-family="sans-serif" font-size="13" font-weight="bold" lengthAdjust="spacing" textLength="14" x="1379.5" y="622.0264">13</text><text fill="#000000" font-family="sans-serif" font-size="13" lengthAdjust="spacing" textLength="36" x="1397.5" y="622.0264">create</text><polygon fill="#A80036" points="700,653.2344,690,657.2344,700,661.2344,696,657.2344" style="stroke:#A80036;stroke-width:1.0;"/><line style="stroke:#A80036;stroke-width:1.0;" x1="694" x2="1366.5" y1="657.2344" y2="657.2344"/><text fill="#000000" font-family="sans-serif" font-size="13" font-weight="bold" lengthAdjust="spacing" textLength="14" x="706" y="652.3779">14</text><text fill="#000000" font-family="sans-serif" font-size="13" lengthAdjust="spacing" textLength="39" x="724" y="652.3779">factory</text><polygon fill="#A80036" points="1497.5,683.5859,1507.5,687.5859,1497.5,691.5859,1501.5,687.5859" style="stroke:#A80036;stroke-width:1.0;"/><line style="stroke:#A80036;stroke-width:1.0;" x1="689" x2="1503.5" y1="687.5859" y2="687.5859"/><text fill="#000000" font-family="sans-serif" font-size="13" font-weight="bold" lengthAdjust="spacing" textLength="14" x="696" y="682.7295">15</text><text fill="#000000" font-family="sans-serif" font-size="13" lengthAdjust="spacing" textLength="40" x="714" y="682.7295">ticket()</text><polygon fill="#A80036" points="1633,713.9375,1643,717.9375,1633,721.9375,1637,717.9375" style="stroke:#A80036;stroke-width:1.0;"/><line style="stroke:#A80036;stroke-width:1.0;" x1="1519.5" x2="1639" y1="717.9375" y2="717.9375"/><text fill="#000000" font-family="sans-serif" font-size="13" font-weight="bold" lengthAdjust="spacing" textLength="14" x="1526.5" y="713.0811">16</text><text fill="#000000" font-family="sans-serif" font-size="13" lengthAdjust="spacing" textLength="36" x="1544.5" y="713.0811">create</text><polygon fill="#A80036" points="700,744.2891,690,748.2891,700,752.2891,696,748.2891" style="stroke:#A80036;stroke-width:1.0;"/><line style="stroke:#A80036;stroke-width:1.0;" x1="694" x2="1513.5" y1="748.2891" y2="748.2891"/><text fill="#000000" font-family="sans-serif" font-size="13" font-weight="bold" lengthAdjust="spacing" textLength="14" x="706" y="743.4326">17</text><text fill="#000000" font-family="sans-serif" font-size="13" lengthAdjust="spacing" textLength="102" x="724" y="743.4326">ticketRepository()</text><polygon fill="#A80036" points="1633,774.6406,1643,778.6406,1633,782.6406,1637,778.6406" style="stroke:#A80036;stroke-width:1.0;"/><line style="stroke:#A80036;stroke-width:1.0;" x1="689" x2="1639" y1="778.6406" y2="778.6406"/><text fill="#000000" font-family="sans-serif" font-size="13" font-weight="bold" lengthAdjust="spacing" textLength="14" x="696" y="773.7842">18</text><text fill="#000000" font-family="sans-serif" font-size="13" lengthAdjust="spacing" textLength="66" x="714" y="773.7842">save(ticket)</text><polygon fill="#A80036" points="356,804.9922,346,808.9922,356,812.9922,352,808.9922" style="stroke:#A80036;stroke-width:1.0;"/><line style="stroke:#A80036;stroke-width:1.0;" x1="350" x2="683" y1="808.9922" y2="808.9922"/><text fill="#000000" font-family="sans-serif" font-size="13" font-weight="bold" lengthAdjust="spacing" textLength="14" x="362" y="804.1357">19</text><text fill="#000000" font-family="sans-serif" font-size="13" lengthAdjust="spacing" textLength="32" x="380" y="804.1357">ticket</text><polygon fill="#A80036" points="71,835.3438,61,839.3438,71,843.3438,67,839.3438" style="stroke:#A80036;stroke-width:1.0;"/><line style="stroke:#A80036;stroke-width:1.0;stroke-dasharray:2.0,2.0;" x1="65" x2="339" y1="839.3438" y2="839.3438"/><text fill="#000000" font-family="sans-serif" font-size="13" font-weight="bold" lengthAdjust="spacing" textLength="14" x="77" y="834.4873">20</text><text fill="#000000" font-family="sans-serif" font-size="13" lengthAdjust="spacing" textLength="96" x="95" y="834.4873">displayTicketInfo</text><!--MD5=[f4b1832b350c5e43b3e116eba94da699]
@startuml
autonumber

actor "Project Manager" as PM

participant "RequestServiceUI" as UI
participant "RequestServiceController" as CTRL
participant "ticketBuilder" as CB
participant "ticket:ticket" as CC
participant "PersistenceContext" as PC
participant "RepositoryFactory" as RF


database "ticketRepository" as CR

PM - -> UI : Register a ticket
activate UI
    UI -> CTRL : create
    UI - -> PM : Requests necessary credentials for ticket
deactivate UI

PM - -> UI : Inserts the data
activate UI
    UI -> CTRL : service = requestService(theService, params, values)
    activate CTRL
        CTRL -> CB: requestService()
        activate CB
        deactivate CB

        CTRL -> CB: setticket()
        activate CB
        deactivate CB

note over CTRL, CB : Sets the rest of the information


        CTRL -> CB: requestService()
        activate CB
                CB -> CC: newTicket(ticketId, currentUser().get(), formAnswer, service, wfe)
                CC -> CB: ticket
                CB -> CTRL: ticket
        deactivate CB

        CTRL -> PC:
        activate PC
        note over PC, CR : can create an repository in memory or JPA
         PC->RF: create
         PC->CTRL: factory

        deactivate PC

        CTRL->RF:ticket()
        activate RF
        RF->CR:create
        RF->CTRL:ticketRepository()
        deactivate RF

        CTRL->CR:save(ticket)

        CTRL->UI:ticket
    deactivate CTRL

    UI - -> PM : displayTicketInfo
deactivate UI


@enduml

PlantUML version 1.2021.7(Sun May 23 13:40:07 BST 2021)
(GPL source distribution)
Java Runtime: OpenJDK Runtime Environment
JVM: Dynamic Code Evolution 64-Bit Server VM
Default Encoding: Cp1252
Language: pt
Country: PT
--></g></svg>