<?xml version="1.0" encoding="UTF-8" standalone="no"?><svg xmlns="http://www.w3.org/2000/svg" xmlns:xlink="http://www.w3.org/1999/xlink" contentScriptType="application/ecmascript" contentStyleType="text/css" height="942px" preserveAspectRatio="none" style="width:2052px;height:942px;background:#FFFFFF;" version="1.1" viewBox="0 0 2052 942" width="2052px" zoomAndPan="magnify"><defs><filter height="300%" id="f1tl5w5smst85f" width="300%" x="-1" y="-1"><feGaussianBlur result="blurOut" stdDeviation="2.0"/><feColorMatrix in="blurOut" result="blurOut2" type="matrix" values="0 0 0 0 0 0 0 0 0 0 0 0 0 0 0 0 0 0 .4 0"/><feOffset dx="4.0" dy="4.0" in="blurOut2" result="blurOut3"/><feBlend in="SourceGraphic" in2="blurOut3" mode="normal"/></filter></defs><g><rect fill="#FFFFFF" filter="url(#f1tl5w5smst85f)" height="60.7031" style="stroke:#A80036;stroke-width:1.0;" width="10" x="330.5" y="121.9609"/><rect fill="#FFFFFF" filter="url(#f1tl5w5smst85f)" height="626.3281" style="stroke:#A80036;stroke-width:1.0;" width="10" x="330.5" y="213.0156"/><rect fill="#FFFFFF" filter="url(#f1tl5w5smst85f)" height="565.625" style="stroke:#A80036;stroke-width:1.0;" width="10" x="834.5" y="243.3672"/><rect fill="#FFFFFF" filter="url(#f1tl5w5smst85f)" height="30" style="stroke:#A80036;stroke-width:1.0;" width="10" x="986" y="273.7188"/><rect fill="#FFFFFF" filter="url(#f1tl5w5smst85f)" height="30" style="stroke:#A80036;stroke-width:1.0;" width="10" x="986" y="334.0703"/><rect fill="#FFFFFF" filter="url(#f1tl5w5smst85f)" height="91.0547" style="stroke:#A80036;stroke-width:1.0;" width="10" x="986" y="434.7734"/><rect fill="#FFFFFF" filter="url(#f1tl5w5smst85f)" height="101.0547" style="stroke:#A80036;stroke-width:1.0;" width="10" x="1693" y="556.1797"/><rect fill="#FFFFFF" filter="url(#f1tl5w5smst85f)" height="60.7031" style="stroke:#A80036;stroke-width:1.0;" width="10" x="1840" y="687.5859"/><line style="stroke:#A80036;stroke-width:1.0;stroke-dasharray:5.0,5.0;" x1="45" x2="45" y1="89.6094" y2="857.3438"/><line style="stroke:#A80036;stroke-width:1.0;stroke-dasharray:5.0,5.0;" x1="335" x2="335" y1="89.6094" y2="857.3438"/><line style="stroke:#A80036;stroke-width:1.0;stroke-dasharray:5.0,5.0;" x1="839" x2="839" y1="89.6094" y2="857.3438"/><line style="stroke:#A80036;stroke-width:1.0;stroke-dasharray:5.0,5.0;" x1="991" x2="991" y1="89.6094" y2="857.3438"/><line style="stroke:#A80036;stroke-width:1.0;stroke-dasharray:5.0,5.0;" x1="1563" x2="1563" y1="89.6094" y2="857.3438"/><line style="stroke:#A80036;stroke-width:1.0;stroke-dasharray:5.0,5.0;" x1="1698" x2="1698" y1="89.6094" y2="857.3438"/><line style="stroke:#A80036;stroke-width:1.0;stroke-dasharray:5.0,5.0;" x1="1845" x2="1845" y1="89.6094" y2="857.3438"/><line style="stroke:#A80036;stroke-width:1.0;stroke-dasharray:5.0,5.0;" x1="1981" x2="1981" y1="89.6094" y2="857.3438"/><text fill="#000000" font-family="sans-serif" font-size="14" lengthAdjust="spacing" textLength="75" x="5" y="86.5332">Colaborator</text><ellipse cx="45.5" cy="15" fill="#FEFECE" filter="url(#f1tl5w5smst85f)" rx="8" ry="8" style="stroke:#A80036;stroke-width:2.0;"/><path d="M45.5,23 L45.5,50 M32.5,31 L58.5,31 M45.5,50 L32.5,65 M45.5,50 L58.5,65 " fill="none" filter="url(#f1tl5w5smst85f)" style="stroke:#A80036;stroke-width:2.0;"/><text fill="#000000" font-family="sans-serif" font-size="14" lengthAdjust="spacing" textLength="75" x="5" y="870.877">Colaborator</text><ellipse cx="45.5" cy="883.9531" fill="#FEFECE" filter="url(#f1tl5w5smst85f)" rx="8" ry="8" style="stroke:#A80036;stroke-width:2.0;"/><path d="M45.5,891.9531 L45.5,918.9531 M32.5,899.9531 L58.5,899.9531 M45.5,918.9531 L32.5,933.9531 M45.5,918.9531 L58.5,933.9531 " fill="none" filter="url(#f1tl5w5smst85f)" style="stroke:#A80036;stroke-width:2.0;"/><rect fill="#FEFECE" filter="url(#f1tl5w5smst85f)" height="31.6094" style="stroke:#A80036;stroke-width:1.5;" width="123" x="272" y="53"/><text fill="#000000" font-family="sans-serif" font-size="14" lengthAdjust="spacing" textLength="109" x="279" y="74.5332">RegisterActivityUI</text><rect fill="#FEFECE" filter="url(#f1tl5w5smst85f)" height="31.6094" style="stroke:#A80036;stroke-width:1.5;" width="123" x="272" y="856.3438"/><text fill="#000000" font-family="sans-serif" font-size="14" lengthAdjust="spacing" textLength="109" x="279" y="877.877">RegisterActivityUI</text><rect fill="#FEFECE" filter="url(#f1tl5w5smst85f)" height="31.6094" style="stroke:#A80036;stroke-width:1.5;" width="173" x="751" y="53"/><text fill="#000000" font-family="sans-serif" font-size="14" lengthAdjust="spacing" textLength="159" x="758" y="74.5332">RegisterActivityController</text><rect fill="#FEFECE" filter="url(#f1tl5w5smst85f)" height="31.6094" style="stroke:#A80036;stroke-width:1.5;" width="173" x="751" y="856.3438"/><text fill="#000000" font-family="sans-serif" font-size="14" lengthAdjust="spacing" textLength="159" x="758" y="877.877">RegisterActivityController</text><rect fill="#FEFECE" filter="url(#f1tl5w5smst85f)" height="31.6094" style="stroke:#A80036;stroke-width:1.5;" width="102" x="938" y="53"/><text fill="#000000" font-family="sans-serif" font-size="14" lengthAdjust="spacing" textLength="88" x="945" y="74.5332">ActivityBuilder</text><rect fill="#FEFECE" filter="url(#f1tl5w5smst85f)" height="31.6094" style="stroke:#A80036;stroke-width:1.5;" width="102" x="938" y="856.3438"/><text fill="#000000" font-family="sans-serif" font-size="14" lengthAdjust="spacing" textLength="88" x="945" y="877.877">ActivityBuilder</text><rect fill="#FEFECE" filter="url(#f1tl5w5smst85f)" height="31.6094" style="stroke:#A80036;stroke-width:1.5;" width="106" x="1508" y="53"/><text fill="#000000" font-family="sans-serif" font-size="14" lengthAdjust="spacing" textLength="92" x="1515" y="74.5332">Activity:Activity</text><rect fill="#FEFECE" filter="url(#f1tl5w5smst85f)" height="31.6094" style="stroke:#A80036;stroke-width:1.5;" width="106" x="1508" y="856.3438"/><text fill="#000000" font-family="sans-serif" font-size="14" lengthAdjust="spacing" textLength="92" x="1515" y="877.877">Activity:Activity</text><rect fill="#FEFECE" filter="url(#f1tl5w5smst85f)" height="31.6094" style="stroke:#A80036;stroke-width:1.5;" width="136" x="1628" y="53"/><text fill="#000000" font-family="sans-serif" font-size="14" lengthAdjust="spacing" textLength="122" x="1635" y="74.5332">PersistenceContext</text><rect fill="#FEFECE" filter="url(#f1tl5w5smst85f)" height="31.6094" style="stroke:#A80036;stroke-width:1.5;" width="136" x="1628" y="856.3438"/><text fill="#000000" font-family="sans-serif" font-size="14" lengthAdjust="spacing" textLength="122" x="1635" y="877.877">PersistenceContext</text><rect fill="#FEFECE" filter="url(#f1tl5w5smst85f)" height="31.6094" style="stroke:#A80036;stroke-width:1.5;" width="130" x="1778" y="53"/><text fill="#000000" font-family="sans-serif" font-size="14" lengthAdjust="spacing" textLength="116" x="1785" y="74.5332">RepositoryFactory</text><rect fill="#FEFECE" filter="url(#f1tl5w5smst85f)" height="31.6094" style="stroke:#A80036;stroke-width:1.5;" width="130" x="1778" y="856.3438"/><text fill="#000000" font-family="sans-serif" font-size="14" lengthAdjust="spacing" textLength="116" x="1785" y="877.877">RepositoryFactory</text><text fill="#000000" font-family="sans-serif" font-size="14" lengthAdjust="spacing" textLength="112" x="1922" y="86.5332">ActivityRepository</text><path d="M1963,36 C1963,26 1981,26 1981,26 C1981,26 1999,26 1999,36 L1999,62 C1999,72 1981,72 1981,72 C1981,72 1963,72 1963,62 L1963,36 " fill="#FEFECE" filter="url(#f1tl5w5smst85f)" style="stroke:#000000;stroke-width:1.5;"/><path d="M1963,36 C1963,46 1981,46 1981,46 C1981,46 1999,46 1999,36 " fill="none" style="stroke:#000000;stroke-width:1.5;"/><text fill="#000000" font-family="sans-serif" font-size="14" lengthAdjust="spacing" textLength="112" x="1922" y="870.877">ActivityRepository</text><path d="M1963,883.9531 C1963,873.9531 1981,873.9531 1981,873.9531 C1981,873.9531 1999,873.9531 1999,883.9531 L1999,909.9531 C1999,919.9531 1981,919.9531 1981,919.9531 C1981,919.9531 1963,919.9531 1963,909.9531 L1963,883.9531 " fill="#FEFECE" filter="url(#f1tl5w5smst85f)" style="stroke:#000000;stroke-width:1.5;"/><path d="M1963,883.9531 C1963,893.9531 1981,893.9531 1981,893.9531 C1981,893.9531 1999,893.9531 1999,883.9531 " fill="none" style="stroke:#000000;stroke-width:1.5;"/><rect fill="#FFFFFF" filter="url(#f1tl5w5smst85f)" height="60.7031" style="stroke:#A80036;stroke-width:1.0;" width="10" x="330.5" y="121.9609"/><rect fill="#FFFFFF" filter="url(#f1tl5w5smst85f)" height="626.3281" style="stroke:#A80036;stroke-width:1.0;" width="10" x="330.5" y="213.0156"/><rect fill="#FFFFFF" filter="url(#f1tl5w5smst85f)" height="565.625" style="stroke:#A80036;stroke-width:1.0;" width="10" x="834.5" y="243.3672"/><rect fill="#FFFFFF" filter="url(#f1tl5w5smst85f)" height="30" style="stroke:#A80036;stroke-width:1.0;" width="10" x="986" y="273.7188"/><rect fill="#FFFFFF" filter="url(#f1tl5w5smst85f)" height="30" style="stroke:#A80036;stroke-width:1.0;" width="10" x="986" y="334.0703"/><rect fill="#FFFFFF" filter="url(#f1tl5w5smst85f)" height="91.0547" style="stroke:#A80036;stroke-width:1.0;" width="10" x="986" y="434.7734"/><rect fill="#FFFFFF" filter="url(#f1tl5w5smst85f)" height="101.0547" style="stroke:#A80036;stroke-width:1.0;" width="10" x="1693" y="556.1797"/><rect fill="#FFFFFF" filter="url(#f1tl5w5smst85f)" height="60.7031" style="stroke:#A80036;stroke-width:1.0;" width="10" x="1840" y="687.5859"/><polygon fill="#A80036" points="318.5,117.9609,328.5,121.9609,318.5,125.9609,322.5,121.9609" style="stroke:#A80036;stroke-width:1.0;"/><line style="stroke:#A80036;stroke-width:1.0;stroke-dasharray:2.0,2.0;" x1="45.5" x2="324.5" y1="121.9609" y2="121.9609"/><text fill="#000000" font-family="sans-serif" font-size="13" font-weight="bold" lengthAdjust="spacing" textLength="7" x="52.5" y="117.1045">1</text><text fill="#000000" font-family="sans-serif" font-size="13" lengthAdjust="spacing" textLength="105" x="63.5" y="117.1045">Register a Activity</text><polygon fill="#A80036" points="827.5,148.3125,837.5,152.3125,827.5,156.3125,831.5,152.3125" style="stroke:#A80036;stroke-width:1.0;"/><line style="stroke:#A80036;stroke-width:1.0;" x1="340.5" x2="833.5" y1="152.3125" y2="152.3125"/><text fill="#000000" font-family="sans-serif" font-size="13" font-weight="bold" lengthAdjust="spacing" textLength="7" x="347.5" y="147.4561">2</text><text fill="#000000" font-family="sans-serif" font-size="13" lengthAdjust="spacing" textLength="36" x="358.5" y="147.4561">create</text><polygon fill="#A80036" points="56.5,178.6641,46.5,182.6641,56.5,186.6641,52.5,182.6641" style="stroke:#A80036;stroke-width:1.0;"/><line style="stroke:#A80036;stroke-width:1.0;stroke-dasharray:2.0,2.0;" x1="50.5" x2="334.5" y1="182.6641" y2="182.6641"/><text fill="#000000" font-family="sans-serif" font-size="13" font-weight="bold" lengthAdjust="spacing" textLength="7" x="62.5" y="177.8076">3</text><text fill="#000000" font-family="sans-serif" font-size="13" lengthAdjust="spacing" textLength="250" x="73.5" y="177.8076">Requests necessary credentials for Activity</text><polygon fill="#A80036" points="318.5,209.0156,328.5,213.0156,318.5,217.0156,322.5,213.0156" style="stroke:#A80036;stroke-width:1.0;"/><line style="stroke:#A80036;stroke-width:1.0;stroke-dasharray:2.0,2.0;" x1="45.5" x2="324.5" y1="213.0156" y2="213.0156"/><text fill="#000000" font-family="sans-serif" font-size="13" font-weight="bold" lengthAdjust="spacing" textLength="7" x="52.5" y="208.1592">4</text><text fill="#000000" font-family="sans-serif" font-size="13" lengthAdjust="spacing" textLength="90" x="63.5" y="208.1592">Inserts the data</text><polygon fill="#A80036" points="822.5,239.3672,832.5,243.3672,822.5,247.3672,826.5,243.3672" style="stroke:#A80036;stroke-width:1.0;"/><line style="stroke:#A80036;stroke-width:1.0;" x1="340.5" x2="828.5" y1="243.3672" y2="243.3672"/><text fill="#000000" font-family="sans-serif" font-size="13" font-weight="bold" lengthAdjust="spacing" textLength="7" x="347.5" y="238.5107">5</text><text fill="#000000" font-family="sans-serif" font-size="13" lengthAdjust="spacing" textLength="464" x="358.5" y="238.5107">Activity = newActivity(ActivityId ActivityID, ActivityParameters ActivityParameter)</text><polygon fill="#A80036" points="974,269.7188,984,273.7188,974,277.7188,978,273.7188" style="stroke:#A80036;stroke-width:1.0;"/><line style="stroke:#A80036;stroke-width:1.0;" x1="844.5" x2="980" y1="273.7188" y2="273.7188"/><text fill="#000000" font-family="sans-serif" font-size="13" font-weight="bold" lengthAdjust="spacing" textLength="7" x="851.5" y="268.8623">6</text><text fill="#000000" font-family="sans-serif" font-size="13" lengthAdjust="spacing" textLength="85" x="862.5" y="268.8623">registerActivity</text><polygon fill="#A80036" points="974,330.0703,984,334.0703,974,338.0703,978,334.0703" style="stroke:#A80036;stroke-width:1.0;"/><line style="stroke:#A80036;stroke-width:1.0;" x1="844.5" x2="980" y1="334.0703" y2="334.0703"/><text fill="#000000" font-family="sans-serif" font-size="13" font-weight="bold" lengthAdjust="spacing" textLength="7" x="851.5" y="329.2139">7</text><text fill="#000000" font-family="sans-serif" font-size="13" lengthAdjust="spacing" textLength="68" x="862.5" y="329.2139">setActivity()</text><path d="M771,377.0703 L771,403.0703 L1059,403.0703 L1059,387.0703 L1049,377.0703 L771,377.0703 " fill="#FBFB77" filter="url(#f1tl5w5smst85f)" style="stroke:#A80036;stroke-width:1.0;"/><path d="M1049,377.0703 L1049,387.0703 L1059,387.0703 L1049,377.0703 " fill="#FBFB77" style="stroke:#A80036;stroke-width:1.0;"/><text fill="#000000" font-family="sans-serif" font-size="13" lengthAdjust="spacing" textLength="178" x="819.5" y="395.5654">Sets the rest of the information</text><polygon fill="#A80036" points="974,430.7734,984,434.7734,974,438.7734,978,434.7734" style="stroke:#A80036;stroke-width:1.0;"/><line style="stroke:#A80036;stroke-width:1.0;" x1="844.5" x2="980" y1="434.7734" y2="434.7734"/><text fill="#000000" font-family="sans-serif" font-size="13" font-weight="bold" lengthAdjust="spacing" textLength="7" x="851.5" y="429.917">8</text><text fill="#000000" font-family="sans-serif" font-size="13" lengthAdjust="spacing" textLength="93" x="862.5" y="429.917">registerActivity()</text><polygon fill="#A80036" points="1551,461.125,1561,465.125,1551,469.125,1555,465.125" style="stroke:#A80036;stroke-width:1.0;"/><line style="stroke:#A80036;stroke-width:1.0;" x1="996" x2="1557" y1="465.125" y2="465.125"/><text fill="#000000" font-family="sans-serif" font-size="13" font-weight="bold" lengthAdjust="spacing" textLength="7" x="1003" y="460.2686">9</text><text fill="#000000" font-family="sans-serif" font-size="13" lengthAdjust="spacing" textLength="532" x="1014" y="460.2686">newActivity(ActivityId ActivityID, Description description, Form form, Colaborator colaborator)</text><polygon fill="#A80036" points="1007,491.4766,997,495.4766,1007,499.4766,1003,495.4766" style="stroke:#A80036;stroke-width:1.0;"/><line style="stroke:#A80036;stroke-width:1.0;" x1="1001" x2="1562" y1="495.4766" y2="495.4766"/><text fill="#000000" font-family="sans-serif" font-size="13" font-weight="bold" lengthAdjust="spacing" textLength="14" x="1013" y="490.6201">10</text><text fill="#000000" font-family="sans-serif" font-size="13" lengthAdjust="spacing" textLength="42" x="1031" y="490.6201">Activity</text><polygon fill="#A80036" points="855.5,521.8281,845.5,525.8281,855.5,529.8281,851.5,525.8281" style="stroke:#A80036;stroke-width:1.0;"/><line style="stroke:#A80036;stroke-width:1.0;" x1="849.5" x2="990" y1="525.8281" y2="525.8281"/><text fill="#000000" font-family="sans-serif" font-size="13" font-weight="bold" lengthAdjust="spacing" textLength="14" x="861.5" y="520.9717">11</text><text fill="#000000" font-family="sans-serif" font-size="13" lengthAdjust="spacing" textLength="42" x="879.5" y="520.9717">Activity</text><polygon fill="#A80036" points="1681,552.1797,1691,556.1797,1681,560.1797,1685,556.1797" style="stroke:#A80036;stroke-width:1.0;"/><line style="stroke:#A80036;stroke-width:1.0;" x1="844.5" x2="1687" y1="556.1797" y2="556.1797"/><text fill="#000000" font-family="sans-serif" font-size="13" font-weight="bold" lengthAdjust="spacing" textLength="14" x="851.5" y="551.3232">12</text><text fill="#000000" font-family="sans-serif" font-size="13" lengthAdjust="spacing" textLength="0" x="873.5" y="551.3232"/><path d="M1636,569.1797 L1636,595.1797 L2043,595.1797 L2043,579.1797 L2033,569.1797 L1636,569.1797 " fill="#FBFB77" filter="url(#f1tl5w5smst85f)" style="stroke:#A80036;stroke-width:1.0;"/><path d="M2033,569.1797 L2033,579.1797 L2043,579.1797 L2033,569.1797 " fill="#FBFB77" style="stroke:#A80036;stroke-width:1.0;"/><text fill="#000000" font-family="sans-serif" font-size="13" lengthAdjust="spacing" textLength="248" x="1709" y="587.6748">can create an repository in memory or JPA</text><polygon fill="#A80036" points="1833,622.8828,1843,626.8828,1833,630.8828,1837,626.8828" style="stroke:#A80036;stroke-width:1.0;"/><line style="stroke:#A80036;stroke-width:1.0;" x1="1703" x2="1839" y1="626.8828" y2="626.8828"/><text fill="#000000" font-family="sans-serif" font-size="13" font-weight="bold" lengthAdjust="spacing" textLength="14" x="1710" y="622.0264">13</text><text fill="#000000" font-family="sans-serif" font-size="13" lengthAdjust="spacing" textLength="36" x="1728" y="622.0264">create</text><polygon fill="#A80036" points="855.5,653.2344,845.5,657.2344,855.5,661.2344,851.5,657.2344" style="stroke:#A80036;stroke-width:1.0;"/><line style="stroke:#A80036;stroke-width:1.0;" x1="849.5" x2="1697" y1="657.2344" y2="657.2344"/><text fill="#000000" font-family="sans-serif" font-size="13" font-weight="bold" lengthAdjust="spacing" textLength="14" x="861.5" y="652.3779">14</text><text fill="#000000" font-family="sans-serif" font-size="13" lengthAdjust="spacing" textLength="39" x="879.5" y="652.3779">factory</text><polygon fill="#A80036" points="1828,683.5859,1838,687.5859,1828,691.5859,1832,687.5859" style="stroke:#A80036;stroke-width:1.0;"/><line style="stroke:#A80036;stroke-width:1.0;" x1="844.5" x2="1834" y1="687.5859" y2="687.5859"/><text fill="#000000" font-family="sans-serif" font-size="13" font-weight="bold" lengthAdjust="spacing" textLength="14" x="851.5" y="682.7295">15</text><text fill="#000000" font-family="sans-serif" font-size="13" lengthAdjust="spacing" textLength="50" x="869.5" y="682.7295">Activity()</text><polygon fill="#A80036" points="1969,713.9375,1979,717.9375,1969,721.9375,1973,717.9375" style="stroke:#A80036;stroke-width:1.0;"/><line style="stroke:#A80036;stroke-width:1.0;" x1="1850" x2="1975" y1="717.9375" y2="717.9375"/><text fill="#000000" font-family="sans-serif" font-size="13" font-weight="bold" lengthAdjust="spacing" textLength="14" x="1857" y="713.0811">16</text><text fill="#000000" font-family="sans-serif" font-size="13" lengthAdjust="spacing" textLength="36" x="1875" y="713.0811">create</text><polygon fill="#A80036" points="855.5,744.2891,845.5,748.2891,855.5,752.2891,851.5,748.2891" style="stroke:#A80036;stroke-width:1.0;"/><line style="stroke:#A80036;stroke-width:1.0;" x1="849.5" x2="1844" y1="748.2891" y2="748.2891"/><text fill="#000000" font-family="sans-serif" font-size="13" font-weight="bold" lengthAdjust="spacing" textLength="14" x="861.5" y="743.4326">17</text><text fill="#000000" font-family="sans-serif" font-size="13" lengthAdjust="spacing" textLength="112" x="879.5" y="743.4326">ActivityRepository()</text><polygon fill="#A80036" points="1969,774.6406,1979,778.6406,1969,782.6406,1973,778.6406" style="stroke:#A80036;stroke-width:1.0;"/><line style="stroke:#A80036;stroke-width:1.0;" x1="844.5" x2="1975" y1="778.6406" y2="778.6406"/><text fill="#000000" font-family="sans-serif" font-size="13" font-weight="bold" lengthAdjust="spacing" textLength="14" x="851.5" y="773.7842">18</text><text fill="#000000" font-family="sans-serif" font-size="13" lengthAdjust="spacing" textLength="76" x="869.5" y="773.7842">save(Activity)</text><polygon fill="#A80036" points="351.5,804.9922,341.5,808.9922,351.5,812.9922,347.5,808.9922" style="stroke:#A80036;stroke-width:1.0;"/><line style="stroke:#A80036;stroke-width:1.0;" x1="345.5" x2="838.5" y1="808.9922" y2="808.9922"/><text fill="#000000" font-family="sans-serif" font-size="13" font-weight="bold" lengthAdjust="spacing" textLength="14" x="357.5" y="804.1357">19</text><text fill="#000000" font-family="sans-serif" font-size="13" lengthAdjust="spacing" textLength="42" x="375.5" y="804.1357">Activity</text><polygon fill="#A80036" points="56.5,835.3438,46.5,839.3438,56.5,843.3438,52.5,839.3438" style="stroke:#A80036;stroke-width:1.0;"/><line style="stroke:#A80036;stroke-width:1.0;stroke-dasharray:2.0,2.0;" x1="50.5" x2="334.5" y1="839.3438" y2="839.3438"/><text fill="#000000" font-family="sans-serif" font-size="13" font-weight="bold" lengthAdjust="spacing" textLength="14" x="62.5" y="834.4873">20</text><text fill="#000000" font-family="sans-serif" font-size="13" lengthAdjust="spacing" textLength="103" x="80.5" y="834.4873">displayActivityInfo</text><!--MD5=[849745241d56d6fae0468ca25e68a990]
@startuml
autonumber

actor "Colaborator" as C

participant "RegisterActivityUI" as UI
participant "RegisterActivityController" as CTRL
participant "ActivityBuilder" as CB
participant "Activity:Activity" as CC
participant "PersistenceContext" as PC
participant "RepositoryFactory" as RF


database "ActivityRepository" as CR

C - -> UI : Register a Activity
activate UI
    UI -> CTRL : create
    UI - -> C : Requests necessary credentials for Activity
deactivate UI

C - -> UI : Inserts the data
activate UI
    UI -> CTRL : Activity = newActivity(ActivityId ActivityID, ActivityParameters ActivityParameter)
    activate CTRL
        CTRL -> CB: registerActivity
        activate CB
        deactivate CB

        CTRL -> CB: setActivity()
        activate CB
        deactivate CB

note over CTRL, CB : Sets the rest of the information


        CTRL -> CB: registerActivity()
        activate CB
                CB -> CC: newActivity(ActivityId ActivityID, Description description, Form form, Colaborator colaborator)
                CC -> CB: Activity
                CB -> CTRL: Activity
        deactivate CB

        CTRL -> PC:
        activate PC
        note over PC, CR : can create an repository in memory or JPA
         PC->RF: create
         PC->CTRL: factory

        deactivate PC

        CTRL->RF:Activity()
        activate RF
        RF->CR:create
        RF->CTRL:ActivityRepository()
        deactivate RF

        CTRL->CR:save(Activity)

        CTRL->UI:Activity
    deactivate CTRL

    UI - -> C : displayActivityInfo
deactivate UI


@enduml

PlantUML version 1.2021.7(Sun May 23 13:40:07 BST 2021)
(GPL source distribution)
Java Runtime: OpenJDK Runtime Environment
JVM: Dynamic Code Evolution 64-Bit Server VM
Default Encoding: Cp1252
Language: pt
Country: PT
--></g></svg>