<?xml version="1.0" encoding="UTF-8" standalone="no"?><svg xmlns="http://www.w3.org/2000/svg" xmlns:xlink="http://www.w3.org/1999/xlink" contentScriptType="application/ecmascript" contentStyleType="text/css" height="316px" preserveAspectRatio="none" style="width:382px;height:316px;background:#FFFFFF;" version="1.1" viewBox="0 0 382 316" width="382px" zoomAndPan="magnify"><defs><filter height="300%" id="f17b7tj8l6if1c" width="300%" x="-1" y="-1"><feGaussianBlur result="blurOut" stdDeviation="2.0"/><feColorMatrix in="blurOut" result="blurOut2" type="matrix" values="0 0 0 0 0 0 0 0 0 0 0 0 0 0 0 0 0 0 .4 0"/><feOffset dx="4.0" dy="4.0" in="blurOut2" result="blurOut3"/><feBlend in="SourceGraphic" in2="blurOut3" mode="normal"/></filter></defs><g><rect fill="#FFFFFF" filter="url(#f17b7tj8l6if1c)" height="122.4063" style="stroke:#A80036;stroke-width:1.0;" width="10" x="40.5" y="99.6094"/><rect fill="#FFFFFF" filter="url(#f17b7tj8l6if1c)" height="30.3516" style="stroke:#A80036;stroke-width:1.0;" width="10" x="335.5" y="121.9609"/><rect fill="#FFFFFF" filter="url(#f17b7tj8l6if1c)" height="30.3516" style="stroke:#A80036;stroke-width:1.0;" width="10" x="335.5" y="182.6641"/><line style="stroke:#A80036;stroke-width:1.0;stroke-dasharray:5.0,5.0;" x1="45" x2="45" y1="89.6094" y2="231.0156"/><line style="stroke:#A80036;stroke-width:1.0;stroke-dasharray:5.0,5.0;" x1="340.5" x2="340.5" y1="89.6094" y2="231.0156"/><text fill="#000000" font-family="sans-serif" font-size="14" lengthAdjust="spacing" textLength="75" x="5" y="86.5332">Colaborator</text><ellipse cx="45.5" cy="15" fill="#FEFECE" filter="url(#f17b7tj8l6if1c)" rx="8" ry="8" style="stroke:#A80036;stroke-width:2.0;"/><path d="M45.5,23 L45.5,50 M32.5,31 L58.5,31 M45.5,50 L32.5,65 M45.5,50 L58.5,65 " fill="none" filter="url(#f17b7tj8l6if1c)" style="stroke:#A80036;stroke-width:2.0;"/><text fill="#000000" font-family="sans-serif" font-size="14" lengthAdjust="spacing" textLength="75" x="5" y="244.5488">Colaborator</text><ellipse cx="45.5" cy="257.625" fill="#FEFECE" filter="url(#f17b7tj8l6if1c)" rx="8" ry="8" style="stroke:#A80036;stroke-width:2.0;"/><path d="M45.5,265.625 L45.5,292.625 M32.5,273.625 L58.5,273.625 M45.5,292.625 L32.5,307.625 M45.5,292.625 L58.5,307.625 " fill="none" filter="url(#f17b7tj8l6if1c)" style="stroke:#A80036;stroke-width:2.0;"/><rect fill="#FEFECE" filter="url(#f17b7tj8l6if1c)" height="31.6094" style="stroke:#A80036;stroke-width:1.5;" width="60" x="308.5" y="53"/><text fill="#000000" font-family="sans-serif" font-size="14" lengthAdjust="spacing" textLength="46" x="315.5" y="74.5332">System</text><rect fill="#FEFECE" filter="url(#f17b7tj8l6if1c)" height="31.6094" style="stroke:#A80036;stroke-width:1.5;" width="60" x="308.5" y="230.0156"/><text fill="#000000" font-family="sans-serif" font-size="14" lengthAdjust="spacing" textLength="46" x="315.5" y="251.5488">System</text><rect fill="#FFFFFF" filter="url(#f17b7tj8l6if1c)" height="122.4063" style="stroke:#A80036;stroke-width:1.0;" width="10" x="40.5" y="99.6094"/><rect fill="#FFFFFF" filter="url(#f17b7tj8l6if1c)" height="30.3516" style="stroke:#A80036;stroke-width:1.0;" width="10" x="335.5" y="121.9609"/><rect fill="#FFFFFF" filter="url(#f17b7tj8l6if1c)" height="30.3516" style="stroke:#A80036;stroke-width:1.0;" width="10" x="335.5" y="182.6641"/><polygon fill="#A80036" points="323.5,117.9609,333.5,121.9609,323.5,125.9609,327.5,121.9609" style="stroke:#A80036;stroke-width:1.0;"/><line style="stroke:#A80036;stroke-width:1.0;stroke-dasharray:2.0,2.0;" x1="50.5" x2="329.5" y1="121.9609" y2="121.9609"/><text fill="#000000" font-family="sans-serif" font-size="13" font-weight="bold" lengthAdjust="spacing" textLength="7" x="57.5" y="117.1045">1</text><text fill="#000000" font-family="sans-serif" font-size="13" lengthAdjust="spacing" textLength="148" x="68.5" y="117.1045">Wants to create a activity</text><polygon fill="#A80036" points="61.5,148.3125,51.5,152.3125,61.5,156.3125,57.5,152.3125" style="stroke:#A80036;stroke-width:1.0;"/><line style="stroke:#A80036;stroke-width:1.0;stroke-dasharray:2.0,2.0;" x1="55.5" x2="339.5" y1="152.3125" y2="152.3125"/><text fill="#000000" font-family="sans-serif" font-size="13" font-weight="bold" lengthAdjust="spacing" textLength="7" x="67.5" y="147.4561">2</text><text fill="#000000" font-family="sans-serif" font-size="13" lengthAdjust="spacing" textLength="250" x="78.5" y="147.4561">Requests necessary information for Activity</text><polygon fill="#A80036" points="323.5,178.6641,333.5,182.6641,323.5,186.6641,327.5,182.6641" style="stroke:#A80036;stroke-width:1.0;"/><line style="stroke:#A80036;stroke-width:1.0;stroke-dasharray:2.0,2.0;" x1="50.5" x2="329.5" y1="182.6641" y2="182.6641"/><text fill="#000000" font-family="sans-serif" font-size="13" font-weight="bold" lengthAdjust="spacing" textLength="7" x="57.5" y="177.8076">3</text><text fill="#000000" font-family="sans-serif" font-size="13" lengthAdjust="spacing" textLength="90" x="68.5" y="177.8076">Inserts the data</text><polygon fill="#A80036" points="61.5,209.0156,51.5,213.0156,61.5,217.0156,57.5,213.0156" style="stroke:#A80036;stroke-width:1.0;"/><line style="stroke:#A80036;stroke-width:1.0;stroke-dasharray:2.0,2.0;" x1="55.5" x2="339.5" y1="213.0156" y2="213.0156"/><text fill="#000000" font-family="sans-serif" font-size="13" font-weight="bold" lengthAdjust="spacing" textLength="7" x="67.5" y="208.1592">4</text><text fill="#000000" font-family="sans-serif" font-size="13" lengthAdjust="spacing" textLength="103" x="78.5" y="208.1592">displayActivityInfo</text><!--MD5=[2b290e09396f663c1b3b5dc38205b89b]
@startuml
autonumber

actor "Colaborator" as C
participant "System" as UI

activate C
C - -> UI : Wants to create a activity
activate UI
    UI - -> C : Requests necessary information for Activity
deactivate UI
C - -> UI : Inserts the data
activate UI
UI - -> C : displayActivityInfo
deactivate UI

@enduml

PlantUML version 1.2021.7(Sun May 23 13:40:07 BST 2021)
(GPL source distribution)
Java Runtime: OpenJDK Runtime Environment
JVM: Dynamic Code Evolution 64-Bit Server VM
Default Encoding: Cp1252
Language: pt
Country: PT
--></g></svg>