<?xml version="1.0" encoding="UTF-8" standalone="no"?><svg xmlns="http://www.w3.org/2000/svg" xmlns:xlink="http://www.w3.org/1999/xlink" contentScriptType="application/ecmascript" contentStyleType="text/css" height="239px" preserveAspectRatio="none" style="width:1634px;height:239px;" version="1.1" viewBox="0 0 1634 239" width="1634px" zoomAndPan="magnify"><defs><filter height="300%" id="f1widfaqqi3miw" width="300%" x="-1" y="-1"><feGaussianBlur result="blurOut" stdDeviation="2.0"/><feColorMatrix in="blurOut" result="blurOut2" type="matrix" values="0 0 0 0 0 0 0 0 0 0 0 0 0 0 0 0 0 0 .4 0"/><feOffset dx="4.0" dy="4.0" in="blurOut2" result="blurOut3"/><feBlend in="SourceGraphic" in2="blurOut3" mode="normal"/></filter></defs><g><!--MD5=[96e33993055fd616c90c5761ab21985b]
class RegisterAnColaboratorUI--><rect codeLine="3" fill="#FEFECE" filter="url(#f1widfaqqi3miw)" height="48" id="RegisterAnColaboratorUI" style="stroke:#A80036;stroke-width:1.5;" width="170" x="7" y="128.98"/><ellipse cx="22" cy="144.98" fill="#ADD1B2" rx="11" ry="11" style="stroke:#A80036;stroke-width:1.0;"/><path d="M24,141.48 Q24.2031,140.98 24.4375,140.73 Q24.6719,140.48 24.9375,140.48 Q25.4063,140.48 25.7031,140.7613 Q26,141.0425 26,141.6988 L26,143.2613 Q26,143.9175 25.7188,144.1988 Q25.4375,144.48 25,144.48 Q24.6094,144.48 24.3594,144.3081 Q24.1094,144.1363 24,143.6831 Q23.9531,143.3706 23.7813,143.1988 Q23.4688,142.8706 22.9063,142.6831 Q22.3438,142.48 21.7813,142.48 Q21.0781,142.48 20.4844,142.7613 Q19.9063,143.0425 19.4531,143.6675 Q19,144.2925 19,145.1519 L19,146.0738 Q19,147.105 19.8438,147.7925 Q20.6875,148.48 22.1875,148.48 Q23.0781,148.48 23.7031,148.2769 Q24.0625,148.1675 24.4688,147.8081 Q24.7344,147.605 24.875,147.5425 Q25.0156,147.48 25.1875,147.48 Q25.5156,147.48 25.75,147.7456 Q26,147.9956 26,148.355 Q26,148.6988 25.6563,149.105 Q25.1563,149.6988 24.3594,150.0269 Q23.3125,150.48 22.0313,150.48 Q20.5313,150.48 19.3281,149.8863 Q18.3594,149.4175 17.6719,148.4019 Q17,147.3863 17,146.1831 L17,145.0894 Q17,143.8394 17.5938,142.7456 Q18.2031,141.6519 19.25,141.0738 Q20.3125,140.48 21.5,140.48 Q22.2188,140.48 22.8438,140.73 Q23.4688,140.98 24,141.48 Z " fill="#000000"/><text fill="#000000" font-family="sans-serif" font-size="12" lengthAdjust="spacing" textLength="138" x="36" y="149.8902">RegisterAnColaboratorUI</text><line style="stroke:#A80036;stroke-width:1.5;" x1="8" x2="176" y1="160.98" y2="160.98"/><line style="stroke:#A80036;stroke-width:1.5;" x1="8" x2="176" y1="168.98" y2="168.98"/><!--MD5=[95dceb02a5c681b8ac702977bdacd5bd]
class RegisterAnColaboratorController--><rect codeLine="6" fill="#FEFECE" filter="url(#f1widfaqqi3miw)" height="61.8359" id="RegisterAnColaboratorController" style="stroke:#A80036;stroke-width:1.5;" width="212" x="212" y="121.98"/><ellipse cx="227" cy="137.98" fill="#ADD1B2" rx="11" ry="11" style="stroke:#A80036;stroke-width:1.0;"/><path d="M229,134.48 Q229.2031,133.98 229.4375,133.73 Q229.6719,133.48 229.9375,133.48 Q230.4063,133.48 230.7031,133.7613 Q231,134.0425 231,134.6988 L231,136.2613 Q231,136.9175 230.7188,137.1988 Q230.4375,137.48 230,137.48 Q229.6094,137.48 229.3594,137.3081 Q229.1094,137.1363 229,136.6831 Q228.9531,136.3706 228.7813,136.1988 Q228.4688,135.8706 227.9063,135.6831 Q227.3438,135.48 226.7813,135.48 Q226.0781,135.48 225.4844,135.7613 Q224.9063,136.0425 224.4531,136.6675 Q224,137.2925 224,138.1519 L224,139.0738 Q224,140.105 224.8438,140.7925 Q225.6875,141.48 227.1875,141.48 Q228.0781,141.48 228.7031,141.2769 Q229.0625,141.1675 229.4688,140.8081 Q229.7344,140.605 229.875,140.5425 Q230.0156,140.48 230.1875,140.48 Q230.5156,140.48 230.75,140.7456 Q231,140.9956 231,141.355 Q231,141.6988 230.6563,142.105 Q230.1563,142.6988 229.3594,143.0269 Q228.3125,143.48 227.0313,143.48 Q225.5313,143.48 224.3281,142.8863 Q223.3594,142.4175 222.6719,141.4019 Q222,140.3863 222,139.1831 L222,138.0894 Q222,136.8394 222.5938,135.7456 Q223.2031,134.6519 224.25,134.0738 Q225.3125,133.48 226.5,133.48 Q227.2188,133.48 227.8438,133.73 Q228.4688,133.98 229,134.48 Z " fill="#000000"/><text fill="#000000" font-family="sans-serif" font-size="12" lengthAdjust="spacing" textLength="180" x="241" y="142.8902">RegisterAnColaboratorController</text><line style="stroke:#A80036;stroke-width:1.5;" x1="213" x2="423" y1="153.98" y2="153.98"/><line style="stroke:#A80036;stroke-width:1.5;" x1="213" x2="423" y1="161.98" y2="161.98"/><text fill="#000000" font-family="sans-serif" font-size="11" lengthAdjust="spacing" textLength="104" x="218" y="177.3989">registerColaborator();</text><!--MD5=[65f9b271fae1a3d56975d9ea4f8e38de]
class Colaborator--><rect codeLine="10" fill="#FEFECE" filter="url(#f1widfaqqi3miw)" height="144.8516" id="Colaborator" style="stroke:#A80036;stroke-width:1.5;" width="240" x="612" y="80.48"/><ellipse cx="695.25" cy="96.48" fill="#ADD1B2" rx="11" ry="11" style="stroke:#A80036;stroke-width:1.0;"/><path d="M697.25,92.98 Q697.4531,92.48 697.6875,92.23 Q697.9219,91.98 698.1875,91.98 Q698.6563,91.98 698.9531,92.2612 Q699.25,92.5425 699.25,93.1987 L699.25,94.7612 Q699.25,95.4175 698.9688,95.6987 Q698.6875,95.98 698.25,95.98 Q697.8594,95.98 697.6094,95.8081 Q697.3594,95.6362 697.25,95.1831 Q697.2031,94.8706 697.0313,94.6987 Q696.7188,94.3706 696.1563,94.1831 Q695.5938,93.98 695.0313,93.98 Q694.3281,93.98 693.7344,94.2612 Q693.1563,94.5425 692.7031,95.1675 Q692.25,95.7925 692.25,96.6519 L692.25,97.5737 Q692.25,98.605 693.0938,99.2925 Q693.9375,99.98 695.4375,99.98 Q696.3281,99.98 696.9531,99.7769 Q697.3125,99.6675 697.7188,99.3081 Q697.9844,99.105 698.125,99.0425 Q698.2656,98.98 698.4375,98.98 Q698.7656,98.98 699,99.2456 Q699.25,99.4956 699.25,99.855 Q699.25,100.1987 698.9063,100.605 Q698.4063,101.1987 697.6094,101.5269 Q696.5625,101.98 695.2813,101.98 Q693.7813,101.98 692.5781,101.3862 Q691.6094,100.9175 690.9219,99.9019 Q690.25,98.8862 690.25,97.6831 L690.25,96.5894 Q690.25,95.3394 690.8438,94.2456 Q691.4531,93.1519 692.5,92.5737 Q693.5625,91.98 694.75,91.98 Q695.4688,91.98 696.0938,92.23 Q696.7188,92.48 697.25,92.98 Z " fill="#000000"/><text fill="#000000" font-family="sans-serif" font-size="12" lengthAdjust="spacing" textLength="65" x="715.75" y="101.3902">Colaborator</text><line style="stroke:#A80036;stroke-width:1.5;" x1="613" x2="851" y1="112.48" y2="112.48"/><text fill="#000000" font-family="sans-serif" font-size="11" lengthAdjust="spacing" textLength="87" x="618" y="127.8989">SystemUser user;</text><text fill="#000000" font-family="sans-serif" font-size="11" lengthAdjust="spacing" textLength="228" x="618" y="141.7349">MecanographicNumber mecanographicNumber;</text><text fill="#000000" font-family="sans-serif" font-size="11" lengthAdjust="spacing" textLength="59" x="618" y="155.5708">Name name;</text><text fill="#000000" font-family="sans-serif" font-size="11" lengthAdjust="spacing" textLength="88" x="618" y="169.4068">Address address;</text><text fill="#000000" font-family="sans-serif" font-size="11" lengthAdjust="spacing" textLength="93" x="618" y="183.2427">BirthDate birthDate;</text><text fill="#000000" font-family="sans-serif" font-size="11" lengthAdjust="spacing" textLength="104" x="618" y="197.0786">Evaluation evaluation;</text><text fill="#000000" font-family="sans-serif" font-size="11" lengthAdjust="spacing" textLength="79" x="618" y="210.9146">Contact contact;</text><line style="stroke:#A80036;stroke-width:1.5;" x1="613" x2="851" y1="217.3316" y2="217.3316"/><!--MD5=[c3cb3626ac710d9e89af15a00badc09d]
class MecanographicNumber--><rect codeLine="20" fill="#FEFECE" filter="url(#f1widfaqqi3miw)" height="61.8359" id="MecanographicNumber" style="stroke:#A80036;stroke-width:1.5;" width="161" x="1459.5" y="121.98"/><ellipse cx="1474.5" cy="137.98" fill="#ADD1B2" rx="11" ry="11" style="stroke:#A80036;stroke-width:1.0;"/><path d="M1476.5,134.48 Q1476.7031,133.98 1476.9375,133.73 Q1477.1719,133.48 1477.4375,133.48 Q1477.9063,133.48 1478.2031,133.7613 Q1478.5,134.0425 1478.5,134.6988 L1478.5,136.2613 Q1478.5,136.9175 1478.2188,137.1988 Q1477.9375,137.48 1477.5,137.48 Q1477.1094,137.48 1476.8594,137.3081 Q1476.6094,137.1363 1476.5,136.6831 Q1476.4531,136.3706 1476.2813,136.1988 Q1475.9688,135.8706 1475.4063,135.6831 Q1474.8438,135.48 1474.2813,135.48 Q1473.5781,135.48 1472.9844,135.7613 Q1472.4063,136.0425 1471.9531,136.6675 Q1471.5,137.2925 1471.5,138.1519 L1471.5,139.0738 Q1471.5,140.105 1472.3438,140.7925 Q1473.1875,141.48 1474.6875,141.48 Q1475.5781,141.48 1476.2031,141.2769 Q1476.5625,141.1675 1476.9688,140.8081 Q1477.2344,140.605 1477.375,140.5425 Q1477.5156,140.48 1477.6875,140.48 Q1478.0156,140.48 1478.25,140.7456 Q1478.5,140.9956 1478.5,141.355 Q1478.5,141.6988 1478.1563,142.105 Q1477.6563,142.6988 1476.8594,143.0269 Q1475.8125,143.48 1474.5313,143.48 Q1473.0313,143.48 1471.8281,142.8863 Q1470.8594,142.4175 1470.1719,141.4019 Q1469.5,140.3863 1469.5,139.1831 L1469.5,138.0894 Q1469.5,136.8394 1470.0938,135.7456 Q1470.7031,134.6519 1471.75,134.0738 Q1472.8125,133.48 1474,133.48 Q1474.7188,133.48 1475.3438,133.73 Q1475.9688,133.98 1476.5,134.48 Z " fill="#000000"/><text fill="#000000" font-family="sans-serif" font-size="12" lengthAdjust="spacing" textLength="129" x="1488.5" y="142.8902">MecanographicNumber</text><line style="stroke:#A80036;stroke-width:1.5;" x1="1460.5" x2="1619.5" y1="153.98" y2="153.98"/><text fill="#000000" font-family="sans-serif" font-size="11" lengthAdjust="spacing" textLength="145" x="1465.5" y="169.3989">String mecanographicNumber;</text><line style="stroke:#A80036;stroke-width:1.5;" x1="1460.5" x2="1619.5" y1="175.8159" y2="175.8159"/><!--MD5=[53f6a92bd21ca2f2960392a061f3a1c6]
class Name--><rect codeLine="24" fill="#FEFECE" filter="url(#f1widfaqqi3miw)" height="61.8359" id="Name" style="stroke:#A80036;stroke-width:1.5;" width="72" x="1352" y="121.98"/><ellipse cx="1369.7" cy="137.98" fill="#ADD1B2" rx="11" ry="11" style="stroke:#A80036;stroke-width:1.0;"/><path d="M1371.7,134.48 Q1371.9031,133.98 1372.1375,133.73 Q1372.3719,133.48 1372.6375,133.48 Q1373.1063,133.48 1373.4031,133.7613 Q1373.7,134.0425 1373.7,134.6988 L1373.7,136.2613 Q1373.7,136.9175 1373.4188,137.1988 Q1373.1375,137.48 1372.7,137.48 Q1372.3094,137.48 1372.0594,137.3081 Q1371.8094,137.1363 1371.7,136.6831 Q1371.6531,136.3706 1371.4813,136.1988 Q1371.1688,135.8706 1370.6063,135.6831 Q1370.0438,135.48 1369.4813,135.48 Q1368.7781,135.48 1368.1844,135.7613 Q1367.6063,136.0425 1367.1531,136.6675 Q1366.7,137.2925 1366.7,138.1519 L1366.7,139.0738 Q1366.7,140.105 1367.5438,140.7925 Q1368.3875,141.48 1369.8875,141.48 Q1370.7781,141.48 1371.4031,141.2769 Q1371.7625,141.1675 1372.1688,140.8081 Q1372.4344,140.605 1372.575,140.5425 Q1372.7156,140.48 1372.8875,140.48 Q1373.2156,140.48 1373.45,140.7456 Q1373.7,140.9956 1373.7,141.355 Q1373.7,141.6988 1373.3563,142.105 Q1372.8563,142.6988 1372.0594,143.0269 Q1371.0125,143.48 1369.7313,143.48 Q1368.2313,143.48 1367.0281,142.8863 Q1366.0594,142.4175 1365.3719,141.4019 Q1364.7,140.3863 1364.7,139.1831 L1364.7,138.0894 Q1364.7,136.8394 1365.2938,135.7456 Q1365.9031,134.6519 1366.95,134.0738 Q1368.0125,133.48 1369.2,133.48 Q1369.9188,133.48 1370.5438,133.73 Q1371.1688,133.98 1371.7,134.48 Z " fill="#000000"/><text fill="#000000" font-family="sans-serif" font-size="12" lengthAdjust="spacing" textLength="34" x="1384.3" y="142.8902">Name</text><line style="stroke:#A80036;stroke-width:1.5;" x1="1353" x2="1423" y1="153.98" y2="153.98"/><text fill="#000000" font-family="sans-serif" font-size="11" lengthAdjust="spacing" textLength="60" x="1358" y="169.3989">String name;</text><line style="stroke:#A80036;stroke-width:1.5;" x1="1353" x2="1423" y1="175.8159" y2="175.8159"/><!--MD5=[0f39e4cb6f03951afbf6d14bd2505654]
class Address--><rect codeLine="28" fill="#FEFECE" filter="url(#f1widfaqqi3miw)" height="75.6719" id="Address" style="stroke:#A80036;stroke-width:1.5;" width="78" x="1239" y="114.98"/><ellipse cx="1254" cy="130.98" fill="#ADD1B2" rx="11" ry="11" style="stroke:#A80036;stroke-width:1.0;"/><path d="M1256,127.48 Q1256.2031,126.98 1256.4375,126.73 Q1256.6719,126.48 1256.9375,126.48 Q1257.4063,126.48 1257.7031,126.7612 Q1258,127.0425 1258,127.6987 L1258,129.2613 Q1258,129.9175 1257.7188,130.1988 Q1257.4375,130.48 1257,130.48 Q1256.6094,130.48 1256.3594,130.3081 Q1256.1094,130.1363 1256,129.6831 Q1255.9531,129.3706 1255.7813,129.1988 Q1255.4688,128.8706 1254.9063,128.6831 Q1254.3438,128.48 1253.7813,128.48 Q1253.0781,128.48 1252.4844,128.7613 Q1251.9063,129.0425 1251.4531,129.6675 Q1251,130.2925 1251,131.1519 L1251,132.0738 Q1251,133.105 1251.8438,133.7925 Q1252.6875,134.48 1254.1875,134.48 Q1255.0781,134.48 1255.7031,134.2769 Q1256.0625,134.1675 1256.4688,133.8081 Q1256.7344,133.605 1256.875,133.5425 Q1257.0156,133.48 1257.1875,133.48 Q1257.5156,133.48 1257.75,133.7456 Q1258,133.9956 1258,134.355 Q1258,134.6988 1257.6563,135.105 Q1257.1563,135.6988 1256.3594,136.0269 Q1255.3125,136.48 1254.0313,136.48 Q1252.5313,136.48 1251.3281,135.8863 Q1250.3594,135.4175 1249.6719,134.4019 Q1249,133.3863 1249,132.1831 L1249,131.0894 Q1249,129.8394 1249.5938,128.7456 Q1250.2031,127.6519 1251.25,127.0737 Q1252.3125,126.48 1253.5,126.48 Q1254.2188,126.48 1254.8438,126.73 Q1255.4688,126.98 1256,127.48 Z " fill="#000000"/><text fill="#000000" font-family="sans-serif" font-size="12" lengthAdjust="spacing" textLength="46" x="1268" y="135.8902">Address</text><line style="stroke:#A80036;stroke-width:1.5;" x1="1240" x2="1316" y1="146.98" y2="146.98"/><text fill="#000000" font-family="sans-serif" font-size="11" lengthAdjust="spacing" textLength="62" x="1245" y="162.3989">String street;</text><text fill="#000000" font-family="sans-serif" font-size="11" lengthAdjust="spacing" textLength="51" x="1245" y="176.2349">String city;</text><line style="stroke:#A80036;stroke-width:1.5;" x1="1240" x2="1316" y1="182.6519" y2="182.6519"/><!--MD5=[ec957f90f125634d426aef890efece94]
class BirthDate--><rect codeLine="33" fill="#FEFECE" filter="url(#f1widfaqqi3miw)" height="61.8359" id="BirthDate" style="stroke:#A80036;stroke-width:1.5;" width="83" x="1120.5" y="121.98"/><ellipse cx="1135.5" cy="137.98" fill="#ADD1B2" rx="11" ry="11" style="stroke:#A80036;stroke-width:1.0;"/><path d="M1137.5,134.48 Q1137.7031,133.98 1137.9375,133.73 Q1138.1719,133.48 1138.4375,133.48 Q1138.9063,133.48 1139.2031,133.7613 Q1139.5,134.0425 1139.5,134.6988 L1139.5,136.2613 Q1139.5,136.9175 1139.2188,137.1988 Q1138.9375,137.48 1138.5,137.48 Q1138.1094,137.48 1137.8594,137.3081 Q1137.6094,137.1363 1137.5,136.6831 Q1137.4531,136.3706 1137.2813,136.1988 Q1136.9688,135.8706 1136.4063,135.6831 Q1135.8438,135.48 1135.2813,135.48 Q1134.5781,135.48 1133.9844,135.7613 Q1133.4063,136.0425 1132.9531,136.6675 Q1132.5,137.2925 1132.5,138.1519 L1132.5,139.0738 Q1132.5,140.105 1133.3438,140.7925 Q1134.1875,141.48 1135.6875,141.48 Q1136.5781,141.48 1137.2031,141.2769 Q1137.5625,141.1675 1137.9688,140.8081 Q1138.2344,140.605 1138.375,140.5425 Q1138.5156,140.48 1138.6875,140.48 Q1139.0156,140.48 1139.25,140.7456 Q1139.5,140.9956 1139.5,141.355 Q1139.5,141.6988 1139.1563,142.105 Q1138.6563,142.6988 1137.8594,143.0269 Q1136.8125,143.48 1135.5313,143.48 Q1134.0313,143.48 1132.8281,142.8863 Q1131.8594,142.4175 1131.1719,141.4019 Q1130.5,140.3863 1130.5,139.1831 L1130.5,138.0894 Q1130.5,136.8394 1131.0938,135.7456 Q1131.7031,134.6519 1132.75,134.0738 Q1133.8125,133.48 1135,133.48 Q1135.7188,133.48 1136.3438,133.73 Q1136.9688,133.98 1137.5,134.48 Z " fill="#000000"/><text fill="#000000" font-family="sans-serif" font-size="12" lengthAdjust="spacing" textLength="51" x="1149.5" y="142.8902">BirthDate</text><line style="stroke:#A80036;stroke-width:1.5;" x1="1121.5" x2="1202.5" y1="153.98" y2="153.98"/><text fill="#000000" font-family="sans-serif" font-size="11" lengthAdjust="spacing" textLength="71" x="1126.5" y="169.3989">Date birthDate;</text><line style="stroke:#A80036;stroke-width:1.5;" x1="1121.5" x2="1202.5" y1="175.8159" y2="175.8159"/><!--MD5=[71e8807956d33805e77353b9d7e2df39]
class Evaluation--><rect codeLine="37" fill="#FEFECE" filter="url(#f1widfaqqi3miw)" height="61.8359" id="Evaluation" style="stroke:#A80036;stroke-width:1.5;" width="89" x="996.5" y="121.98"/><ellipse cx="1011.5" cy="137.98" fill="#ADD1B2" rx="11" ry="11" style="stroke:#A80036;stroke-width:1.0;"/><path d="M1013.5,134.48 Q1013.7031,133.98 1013.9375,133.73 Q1014.1719,133.48 1014.4375,133.48 Q1014.9063,133.48 1015.2031,133.7613 Q1015.5,134.0425 1015.5,134.6988 L1015.5,136.2613 Q1015.5,136.9175 1015.2188,137.1988 Q1014.9375,137.48 1014.5,137.48 Q1014.1094,137.48 1013.8594,137.3081 Q1013.6094,137.1363 1013.5,136.6831 Q1013.4531,136.3706 1013.2813,136.1988 Q1012.9688,135.8706 1012.4063,135.6831 Q1011.8438,135.48 1011.2813,135.48 Q1010.5781,135.48 1009.9844,135.7613 Q1009.4063,136.0425 1008.9531,136.6675 Q1008.5,137.2925 1008.5,138.1519 L1008.5,139.0738 Q1008.5,140.105 1009.3438,140.7925 Q1010.1875,141.48 1011.6875,141.48 Q1012.5781,141.48 1013.2031,141.2769 Q1013.5625,141.1675 1013.9688,140.8081 Q1014.2344,140.605 1014.375,140.5425 Q1014.5156,140.48 1014.6875,140.48 Q1015.0156,140.48 1015.25,140.7456 Q1015.5,140.9956 1015.5,141.355 Q1015.5,141.6988 1015.1563,142.105 Q1014.6563,142.6988 1013.8594,143.0269 Q1012.8125,143.48 1011.5313,143.48 Q1010.0313,143.48 1008.8281,142.8863 Q1007.8594,142.4175 1007.1719,141.4019 Q1006.5,140.3863 1006.5,139.1831 L1006.5,138.0894 Q1006.5,136.8394 1007.0938,135.7456 Q1007.7031,134.6519 1008.75,134.0738 Q1009.8125,133.48 1011,133.48 Q1011.7188,133.48 1012.3438,133.73 Q1012.9688,133.98 1013.5,134.48 Z " fill="#000000"/><text fill="#000000" font-family="sans-serif" font-size="12" lengthAdjust="spacing" textLength="57" x="1025.5" y="142.8902">Evaluation</text><line style="stroke:#A80036;stroke-width:1.5;" x1="997.5" x2="1084.5" y1="153.98" y2="153.98"/><text fill="#000000" font-family="sans-serif" font-size="11" lengthAdjust="spacing" textLength="75" x="1002.5" y="169.3989">long evaluation;</text><line style="stroke:#A80036;stroke-width:1.5;" x1="997.5" x2="1084.5" y1="175.8159" y2="175.8159"/><!--MD5=[72ce1314beffbcf60a64ee91fbbc10dc]
class Contact--><rect codeLine="41" fill="#FEFECE" filter="url(#f1widfaqqi3miw)" height="61.8359" id="Contact" style="stroke:#A80036;stroke-width:1.5;" width="74" x="887" y="121.98"/><ellipse cx="902" cy="137.98" fill="#ADD1B2" rx="11" ry="11" style="stroke:#A80036;stroke-width:1.0;"/><path d="M904,134.48 Q904.2031,133.98 904.4375,133.73 Q904.6719,133.48 904.9375,133.48 Q905.4063,133.48 905.7031,133.7613 Q906,134.0425 906,134.6988 L906,136.2613 Q906,136.9175 905.7188,137.1988 Q905.4375,137.48 905,137.48 Q904.6094,137.48 904.3594,137.3081 Q904.1094,137.1363 904,136.6831 Q903.9531,136.3706 903.7813,136.1988 Q903.4688,135.8706 902.9063,135.6831 Q902.3438,135.48 901.7813,135.48 Q901.0781,135.48 900.4844,135.7613 Q899.9063,136.0425 899.4531,136.6675 Q899,137.2925 899,138.1519 L899,139.0738 Q899,140.105 899.8438,140.7925 Q900.6875,141.48 902.1875,141.48 Q903.0781,141.48 903.7031,141.2769 Q904.0625,141.1675 904.4688,140.8081 Q904.7344,140.605 904.875,140.5425 Q905.0156,140.48 905.1875,140.48 Q905.5156,140.48 905.75,140.7456 Q906,140.9956 906,141.355 Q906,141.6988 905.6563,142.105 Q905.1563,142.6988 904.3594,143.0269 Q903.3125,143.48 902.0313,143.48 Q900.5313,143.48 899.3281,142.8863 Q898.3594,142.4175 897.6719,141.4019 Q897,140.3863 897,139.1831 L897,138.0894 Q897,136.8394 897.5938,135.7456 Q898.2031,134.6519 899.25,134.0738 Q900.3125,133.48 901.5,133.48 Q902.2188,133.48 902.8438,133.73 Q903.4688,133.98 904,134.48 Z " fill="#000000"/><text fill="#000000" font-family="sans-serif" font-size="12" lengthAdjust="spacing" textLength="42" x="916" y="142.8902">Contact</text><line style="stroke:#A80036;stroke-width:1.5;" x1="888" x2="960" y1="153.98" y2="153.98"/><text fill="#000000" font-family="sans-serif" font-size="11" lengthAdjust="spacing" textLength="59" x="893" y="169.3989">long contact</text><line style="stroke:#A80036;stroke-width:1.5;" x1="888" x2="960" y1="175.8159" y2="175.8159"/><!--MD5=[bc064d979c32666ae52f3d7624591b7b]
class SystemUser--><rect codeLine="45" fill="#FEFECE" filter="url(#f1widfaqqi3miw)" height="117.1797" id="SystemUser" style="stroke:#A80036;stroke-width:1.5;" width="118" x="459" y="94.48"/><ellipse cx="482.1" cy="110.48" fill="#ADD1B2" rx="11" ry="11" style="stroke:#A80036;stroke-width:1.0;"/><path d="M484.1,106.98 Q484.3031,106.48 484.5375,106.23 Q484.7719,105.98 485.0375,105.98 Q485.5063,105.98 485.8031,106.2612 Q486.1,106.5425 486.1,107.1987 L486.1,108.7612 Q486.1,109.4175 485.8188,109.6987 Q485.5375,109.98 485.1,109.98 Q484.7094,109.98 484.4594,109.8081 Q484.2094,109.6362 484.1,109.1831 Q484.0531,108.8706 483.8813,108.6987 Q483.5688,108.3706 483.0063,108.1831 Q482.4438,107.98 481.8813,107.98 Q481.1781,107.98 480.5844,108.2612 Q480.0063,108.5425 479.5531,109.1675 Q479.1,109.7925 479.1,110.6519 L479.1,111.5737 Q479.1,112.605 479.9438,113.2925 Q480.7875,113.98 482.2875,113.98 Q483.1781,113.98 483.8031,113.7769 Q484.1625,113.6675 484.5688,113.3081 Q484.8344,113.105 484.975,113.0425 Q485.1156,112.98 485.2875,112.98 Q485.6156,112.98 485.85,113.2456 Q486.1,113.4956 486.1,113.855 Q486.1,114.1987 485.7563,114.605 Q485.2563,115.1987 484.4594,115.5269 Q483.4125,115.98 482.1313,115.98 Q480.6313,115.98 479.4281,115.3862 Q478.4594,114.9175 477.7719,113.9019 Q477.1,112.8862 477.1,111.6831 L477.1,110.5894 Q477.1,109.3394 477.6938,108.2456 Q478.3031,107.1519 479.35,106.5737 Q480.4125,105.98 481.6,105.98 Q482.3188,105.98 482.9438,106.23 Q483.5688,106.48 484.1,106.98 Z " fill="#000000"/><text fill="#000000" font-family="sans-serif" font-size="12" lengthAdjust="spacing" textLength="68" x="497.9" y="115.3902">SystemUser</text><line style="stroke:#A80036;stroke-width:1.5;" x1="460" x2="576" y1="126.48" y2="126.48"/><text fill="#000000" font-family="sans-serif" font-size="11" lengthAdjust="spacing" textLength="103" x="465" y="141.8989">Username username;</text><text fill="#000000" font-family="sans-serif" font-size="11" lengthAdjust="spacing" textLength="106" x="465" y="155.7349">Password password;</text><text fill="#000000" font-family="sans-serif" font-size="11" lengthAdjust="spacing" textLength="59" x="465" y="169.5708">Name name;</text><text fill="#000000" font-family="sans-serif" font-size="11" lengthAdjust="spacing" textLength="96" x="465" y="183.4068">EmailAddress email;</text><text fill="#000000" font-family="sans-serif" font-size="11" lengthAdjust="spacing" textLength="67" x="465" y="197.2427">RoleSet roles;</text><line style="stroke:#A80036;stroke-width:1.5;" x1="460" x2="576" y1="203.6597" y2="203.6597"/><!--MD5=[4f6d11d83b94ec537797c29d78fa9512]
link RegisterAnColaboratorUI to RegisterAnColaboratorController--><path codeLine="53" d="M177.19,152.98 C187.03,152.98 196.86,152.98 206.7,152.98 " fill="none" id="RegisterAnColaboratorUI-to-RegisterAnColaboratorController" style="stroke:#A80036;stroke-width:1.0;"/><polygon fill="#A80036" points="211.84,152.98,202.84,148.98,206.84,152.98,202.84,156.98,211.84,152.98" style="stroke:#A80036;stroke-width:1.0;"/><!--MD5=[b13a5de1af115b6e322e0b17b5731144]
link RegisterAnColaboratorController to Colaborator--><path codeLine="54" d="M348.69,121.78 C375.35,97.07 416.36,64.46 459.5,50.48 C509.39,34.31 527.29,35.34 577.5,50.48 C597.81,56.61 617.91,66.37 636.55,77.5 " fill="none" id="RegisterAnColaboratorController-to-Colaborator" style="stroke:#A80036;stroke-width:1.0;"/><polygon fill="#A80036" points="641.26,80.35,635.6203,72.2757,636.9788,77.767,631.4875,79.1256,641.26,80.35" style="stroke:#A80036;stroke-width:1.0;"/><!--MD5=[e3b1396b9021a839a2b9a709f18c8905]
link SystemUser to Colaborator--><path codeLine="56" d="M577.35,152.98 C587.13,152.98 596.9,152.98 606.67,152.98 " fill="none" id="SystemUser-to-Colaborator" style="stroke:#A80036;stroke-width:1.0;"/><polygon fill="#A80036" points="611.79,152.98,602.8015,148.9543,606.79,152.9657,602.7786,156.9543,611.79,152.98" style="stroke:#A80036;stroke-width:1.0;"/><!--MD5=[657bc550fc200aa2cb3e8e4dcd7ba9f0]
link Colaborator to MecanographicNumber--><path codeLine="57" d="M823.38,80.35 C843.45,68.05 865.36,57.12 887.5,50.48 C1001.8,16.2 1312.94,8.12 1424.5,50.48 C1459.95,63.94 1491.48,93.81 1512.61,117.86 " fill="none" id="Colaborator-to-MecanographicNumber" style="stroke:#A80036;stroke-width:1.0;"/><polygon fill="#A80036" points="1515.91,121.66,1513.0343,112.2403,1512.6337,117.883,1506.9911,117.4824,1515.91,121.66" style="stroke:#A80036;stroke-width:1.0;"/><!--MD5=[1f4c19a7145df35af56939f434dc32f7]
link Colaborator to Name--><path codeLine="58" d="M823.38,80.35 C843.45,68.05 865.36,57.12 887.5,50.48 C979.03,23.03 1232.93,6 1317.5,50.48 C1344.02,64.43 1362.51,93.37 1373.87,116.95 " fill="none" id="Colaborator-to-Name" style="stroke:#A80036;stroke-width:1.0;"/><polygon fill="#A80036" points="1376.05,121.59,1375.8416,111.7433,1373.9231,117.0649,1368.6015,115.1464,1376.05,121.59" style="stroke:#A80036;stroke-width:1.0;"/><!--MD5=[c1a965a575f0044a07d5d7b3fe5c30fc]
link Colaborator to Address--><path codeLine="59" d="M823.38,80.35 C843.45,68.05 865.36,57.12 887.5,50.48 C954.76,30.31 1140.93,18.61 1203.5,50.48 C1228.31,63.12 1246.8,88.31 1259.15,110.56 " fill="none" id="Colaborator-to-Address" style="stroke:#A80036;stroke-width:1.0;"/><polygon fill="#A80036" points="1261.54,114.96,1260.7778,105.1407,1259.1618,110.5618,1253.7407,108.9458,1261.54,114.96" style="stroke:#A80036;stroke-width:1.0;"/><!--MD5=[1dced8c7ba4d2e2696697b56ec30ebbc]
link Colaborator to BirthDate--><path codeLine="60" d="M823.38,80.35 C843.45,68.05 865.36,57.12 887.5,50.48 C971.79,25.2 1006.84,11.03 1085.5,50.48 C1113.04,64.29 1133.2,93.24 1145.89,116.86 " fill="none" id="Colaborator-to-BirthDate" style="stroke:#A80036;stroke-width:1.0;"/><polygon fill="#A80036" points="1148.33,121.51,1147.7067,111.6809,1146.0142,117.0786,1140.6165,115.3861,1148.33,121.51" style="stroke:#A80036;stroke-width:1.0;"/><!--MD5=[c434cec6315bbe023ffb6b42f35ba212]
link Colaborator to Evaluation--><path codeLine="61" d="M823.38,80.35 C843.45,68.05 865.36,57.12 887.5,50.48 C919,41.03 931.97,36.01 961.5,50.48 C989.75,64.32 1010.84,93.57 1024.17,117.3 " fill="none" id="Colaborator-to-Evaluation" style="stroke:#A80036;stroke-width:1.0;"/><polygon fill="#A80036" points="1026.74,121.97,1025.8904,112.1579,1024.3227,117.5932,1018.8874,116.0255,1026.74,121.97" style="stroke:#A80036;stroke-width:1.0;"/><!--MD5=[202e5d8666958109710524d339dc5890]
link Colaborator to Contact--><path codeLine="62" d="M852.38,152.98 C862.14,152.98 871.91,152.98 881.68,152.98 " fill="none" id="Colaborator-to-Contact" style="stroke:#A80036;stroke-width:1.0;"/><polygon fill="#A80036" points="886.79,152.98,877.79,148.98,881.79,152.98,877.79,156.98,886.79,152.98" style="stroke:#A80036;stroke-width:1.0;"/><!--MD5=[d02192c80fb8eb162bccaa0259347462]
@startuml
'https://plantuml.com/class-diagram

class RegisterAnColaboratorUI {
}

class RegisterAnColaboratorController {
registerColaborator();
}

class Colaborator {
SystemUser user;
MecanographicNumber mecanographicNumber;
Name name;
Address address;
BirthDate birthDate;
Evaluation evaluation;
Contact contact;
}

class MecanographicNumber{
String mecanographicNumber;
}

class Name{
String name;
}

class Address{
String street;
String city;
}

class BirthDate{
Date birthDate;
}

class Evaluation{
long evaluation;
}

class Contact{
long contact
}

class SystemUser{
Username username;
Password password;
Name name;
EmailAddress email;
RoleSet roles;
}

RegisterAnColaboratorUI -> RegisterAnColaboratorController
RegisterAnColaboratorController -> Colaborator

SystemUser -> Colaborator
Colaborator -> MecanographicNumber
Colaborator -> Name
Colaborator -> Address
Colaborator -> BirthDate
Colaborator -> Evaluation
Colaborator -> Contact

@enduml

@startuml

class RegisterAnColaboratorUI {
}

class RegisterAnColaboratorController {
registerColaborator();
}

class Colaborator {
SystemUser user;
MecanographicNumber mecanographicNumber;
Name name;
Address address;
BirthDate birthDate;
Evaluation evaluation;
Contact contact;
}

class MecanographicNumber{
String mecanographicNumber;
}

class Name{
String name;
}

class Address{
String street;
String city;
}

class BirthDate{
Date birthDate;
}

class Evaluation{
long evaluation;
}

class Contact{
long contact
}

class SystemUser{
Username username;
Password password;
Name name;
EmailAddress email;
RoleSet roles;
}

RegisterAnColaboratorUI -> RegisterAnColaboratorController
RegisterAnColaboratorController -> Colaborator

SystemUser -> Colaborator
Colaborator -> MecanographicNumber
Colaborator -> Name
Colaborator -> Address
Colaborator -> BirthDate
Colaborator -> Evaluation
Colaborator -> Contact

@enduml

PlantUML version 1.2021.5(Sun Apr 25 12:20:28 BST 2021)
(GPL source distribution)
Java Runtime: OpenJDK Runtime Environment
JVM: Dynamic Code Evolution 64-Bit Server VM
Default Encoding: Cp1252
Language: pt
Country: PT
--></g></svg>