<?xml version="1.0" encoding="UTF-8" standalone="no"?><svg xmlns="http://www.w3.org/2000/svg" xmlns:xlink="http://www.w3.org/1999/xlink" contentScriptType="application/ecmascript" contentStyleType="text/css" height="395px" preserveAspectRatio="none" style="width:568px;height:395px;" version="1.1" viewBox="0 0 568 395" width="568.75px" zoomAndPan="magnify"><defs><filter height="300%" id="fe35zyzs6ysz7" width="300%" x="-1" y="-1"><feGaussianBlur result="blurOut" stdDeviation="2.5"/><feColorMatrix in="blurOut" result="blurOut2" type="matrix" values="0 0 0 0 0 0 0 0 0 0 0 0 0 0 0 0 0 0 .4 0"/><feOffset dx="5.0" dy="5.0" in="blurOut2" result="blurOut3"/><feBlend in="SourceGraphic" in2="blurOut3" mode="normal"/></filter></defs><g><rect fill="#FFFFFF" filter="url(#fe35zyzs6ysz7)" height="153.0078" style="stroke:#A80036;stroke-width:1.25;" width="12.5" x="113.75" y="124.5117"/><rect fill="#FFFFFF" filter="url(#fe35zyzs6ysz7)" height="37.9395" style="stroke:#A80036;stroke-width:1.25;" width="12.5" x="510" y="152.4512"/><rect fill="#FFFFFF" filter="url(#fe35zyzs6ysz7)" height="37.9395" style="stroke:#A80036;stroke-width:1.25;" width="12.5" x="510" y="228.3301"/><line style="stroke:#A80036;stroke-width:1.25;stroke-dasharray:5.0,5.0;" x1="120" x2="120" y1="112.0117" y2="288.7695"/><line style="stroke:#A80036;stroke-width:1.25;stroke-dasharray:5.0,5.0;" x1="516.25" x2="516.25" y1="112.0117" y2="288.7695"/><text fill="#000000" font-family="sans-serif" font-size="17.5" lengthAdjust="spacing" textLength="220" x="6.25" y="108.1665">Human Resources Manager</text><ellipse cx="120" cy="18.75" fill="#FEFECE" filter="url(#fe35zyzs6ysz7)" rx="10" ry="10" style="stroke:#A80036;stroke-width:2.5;"/><path d="M120,28.75 L120,62.5 M103.75,38.75 L136.25,38.75 M120,62.5 L103.75,81.25 M120,62.5 L136.25,81.25 " fill="none" filter="url(#fe35zyzs6ysz7)" style="stroke:#A80036;stroke-width:2.5;"/><text fill="#000000" font-family="sans-serif" font-size="17.5" lengthAdjust="spacing" textLength="220" x="6.25" y="305.686">Human Resources Manager</text><ellipse cx="120" cy="322.0313" fill="#FEFECE" filter="url(#fe35zyzs6ysz7)" rx="10" ry="10" style="stroke:#A80036;stroke-width:2.5;"/><path d="M120,332.0313 L120,365.7813 M103.75,342.0313 L136.25,342.0313 M120,365.7813 L103.75,384.5313 M120,365.7813 L136.25,384.5313 " fill="none" filter="url(#fe35zyzs6ysz7)" style="stroke:#A80036;stroke-width:2.5;"/><rect fill="#FEFECE" filter="url(#fe35zyzs6ysz7)" height="39.5117" style="stroke:#A80036;stroke-width:1.875;" width="75" x="476.25" y="66.25"/><text fill="#000000" font-family="sans-serif" font-size="17.5" lengthAdjust="spacing" textLength="57.5" x="485" y="93.1665">System</text><rect fill="#FEFECE" filter="url(#fe35zyzs6ysz7)" height="39.5117" style="stroke:#A80036;stroke-width:1.875;" width="75" x="476.25" y="287.5195"/><text fill="#000000" font-family="sans-serif" font-size="17.5" lengthAdjust="spacing" textLength="57.5" x="485" y="314.436">System</text><rect fill="#FFFFFF" filter="url(#fe35zyzs6ysz7)" height="153.0078" style="stroke:#A80036;stroke-width:1.25;" width="12.5" x="113.75" y="124.5117"/><rect fill="#FFFFFF" filter="url(#fe35zyzs6ysz7)" height="37.9395" style="stroke:#A80036;stroke-width:1.25;" width="12.5" x="510" y="152.4512"/><rect fill="#FFFFFF" filter="url(#fe35zyzs6ysz7)" height="37.9395" style="stroke:#A80036;stroke-width:1.25;" width="12.5" x="510" y="228.3301"/><polygon fill="#A80036" points="495,147.4512,507.5,152.4512,495,157.4512,500,152.4512" style="stroke:#A80036;stroke-width:1.25;"/><line style="stroke:#A80036;stroke-width:1.25;stroke-dasharray:2.0,2.0;" x1="126.25" x2="502.5" y1="152.4512" y2="152.4512"/><text fill="#000000" font-family="sans-serif" font-size="16.25" font-weight="bold" lengthAdjust="spacing" textLength="8.75" x="135" y="146.3806">1</text><text fill="#000000" font-family="sans-serif" font-size="16.25" lengthAdjust="spacing" textLength="158.75" x="148.75" y="146.3806">Register a colaborator</text><polygon fill="#A80036" points="140,185.3906,127.5,190.3906,140,195.3906,135,190.3906" style="stroke:#A80036;stroke-width:1.25;"/><line style="stroke:#A80036;stroke-width:1.25;stroke-dasharray:2.0,2.0;" x1="132.5" x2="515" y1="190.3906" y2="190.3906"/><text fill="#000000" font-family="sans-serif" font-size="16.25" font-weight="bold" lengthAdjust="spacing" textLength="8.75" x="147.5" y="184.3201">2</text><text fill="#000000" font-family="sans-serif" font-size="16.25" lengthAdjust="spacing" textLength="340" x="161.25" y="184.3201">Requests necessary credentials for colaborator</text><polygon fill="#A80036" points="495,223.3301,507.5,228.3301,495,233.3301,500,228.3301" style="stroke:#A80036;stroke-width:1.25;"/><line style="stroke:#A80036;stroke-width:1.25;stroke-dasharray:2.0,2.0;" x1="126.25" x2="502.5" y1="228.3301" y2="228.3301"/><text fill="#000000" font-family="sans-serif" font-size="16.25" font-weight="bold" lengthAdjust="spacing" textLength="8.75" x="135" y="222.2595">3</text><text fill="#000000" font-family="sans-serif" font-size="16.25" lengthAdjust="spacing" textLength="112.5" x="148.75" y="222.2595">Inserts the data</text><polygon fill="#A80036" points="140,261.2695,127.5,266.2695,140,271.2695,135,266.2695" style="stroke:#A80036;stroke-width:1.25;"/><line style="stroke:#A80036;stroke-width:1.25;stroke-dasharray:2.0,2.0;" x1="132.5" x2="515" y1="266.2695" y2="266.2695"/><text fill="#000000" font-family="sans-serif" font-size="16.25" font-weight="bold" lengthAdjust="spacing" textLength="8.75" x="147.5" y="260.199">4</text><text fill="#000000" font-family="sans-serif" font-size="16.25" lengthAdjust="spacing" textLength="158.75" x="161.25" y="260.199">displayColaboratorInfo</text><!--MD5=[357dd3fb05dcf1aa27e8053fcff33685]
@startuml
autonumber

actor "Human Resources Manager" as HRM

participant "System" as UI
activate HRM
HRM - -> UI : Register a colaborator
activate UI
    UI - -> HRM : Requests necessary credentials for colaborator
deactivate UI
HRM - -> UI : Inserts the data
activate UI
UI - -> HRM : displayColaboratorInfo
deactivate UI

@enduml

PlantUML version 1.2021.4(Sun Apr 04 09:49:39 BST 2021)
(GPL source distribution)
Java Runtime: OpenJDK Runtime Environment
JVM: Dynamic Code Evolution 64-Bit Server VM
Default Encoding: Cp1252
Language: pt
Country: PT
--></g></svg>